<?xml version="1.0" standalone="no"?>
<!DOCTYPE svg PUBLIC "-//W3C//DTD SVG 1.1//EN" "http://www.w3.org/Graphics/SVG/1.1/DTD/svg11.dtd" >
<svg>
<metadata>
Created by FontForge 20120731 at Thu Aug  4 04:01:42 2016
 By www
Data by URW, Type Solutions, Inc. (c) 1993. Microsoft Corporation. All rights reserved.
</metadata>
<defs>
<font id="GoudyOldStyleT-Italic" horiz-adv-x="1024" >
  <font-face 
    font-family="Goudy Old Style"
    font-weight="300"
    font-style="italic"
    font-stretch="normal"
    units-per-em="2048"
    panose-1="2 2 5 2 5 3 5 9 3 3"
    ascent="1638"
    descent="-410"
    x-height="813"
    cap-height="1372"
    bbox="-347.026 -544 2074 1777"
    underline-thickness="71"
    underline-position="-145"
    slope="-7"
    unicode-range="U+0020-F002"
  />
<missing-glyph horiz-adv-x="512" 
d="M51 0v1365h410v-1365h-410zM410 51v1263h-308v-1263h308z" />
    <glyph glyph-name=".notdef" horiz-adv-x="512" 
d="M51 0v1365h410v-1365h-410zM410 51v1263h-308v-1263h308z" />
    <glyph glyph-name=".null" horiz-adv-x="0" 
 />
    <glyph glyph-name="nonmarkingreturn" horiz-adv-x="512" 
 />
    <glyph glyph-name="space" unicode=" " horiz-adv-x="512" 
 />
    <glyph glyph-name="space" unicode="&#xa0;" horiz-adv-x="512" 
 />
    <glyph glyph-name="exclam" unicode="!" horiz-adv-x="469" 
d="M217 425l38 805q4 81 78 81q68 0 68 -47q0 -19 -3 -37l-138 -805q-6 -31 -23 -31q-22 0 -20 34zM221 212q14 1 29 -18l28 -33q12 -14 34 -32q16 -14 15 -24t-19 -24q-58 -45 -82 -76q-15 -19 -27 -19t-24 20q-23 37 -56 66q-18 16 -18 29q0 16 24 32q26 18 37 29l31 32
q16 17 28 18z" />
    <glyph glyph-name="quotedbl" unicode="&#x22;" horiz-adv-x="572" 
d="M191 864l-5 308v13q0 92 20.5 129t71.5 37q61 0 61 -71q0 -37 -19 -110l-81 -306q-8 -30 -28 -30t-20 30zM450 864l-5 308l-1 13v29q0 137 93 137q61 0 61 -71q0 -35 -20 -110l-81 -306q-8 -30 -27 -30q-20 0 -20 30z" />
    <glyph glyph-name="numbersign" unicode="#" horiz-adv-x="1229" 
d="M847 441l-71 -350l-5 -24q-14 -67 -71 -67q-46 0 -46 41q0 12 8 50l73 350h-312l-71 -350l-5 -24q-14 -67 -69 -67q-44 0 -44 41q0 10 3 26l5 24l73 350h-171q-56 0 -56 40q0 26 21.5 42.5t55.5 16.5h167l66 310h-170q-56 0 -56 40q0 26 21.5 42.5t55.5 16.5h166l67 325
l5 24q14 67 70 67q45 0 45 -41q0 -9 -3 -25l-5 -25l-67 -325h312l67 325l4 24q13 67 70 67q46 0 46 -41q0 -10 -3 -26l-6 -24l-68 -325h165q56 0 56 -40q0 -26 -21.5 -42.5t-55.5 -16.5h-160l-65 -310h164q56 0 56 -40q0 -26 -22 -42.5t-55 -16.5h-164zM818 850h-311
l-62 -310h311z" />
    <glyph glyph-name="dollar" unicode="$" 
d="M494 692l-45 20q-240 109 -240 312q0 141 104.5 236t259.5 95l10 88q6 48 33 48q36 0 34 -29l-3 -26l-9 -85q97 -14 184.5 -71.5t87.5 -107.5q0 -29 -19 -63t-36 -34q-19 0 -32 29q-38 82 -80 121t-114 62l-56 -476l69 -32q143 -68 204 -149t61 -203
q0 -171 -121.5 -284.5t-305.5 -113.5l-25 -213q-6 -48 -33 -48q-36 0 -34 30l3 26l25 208q-117 16 -191 63q-50 32 -85 75t-35 71q0 37 24 89t40 51t24 -31q32 -124 85 -184.5t144 -76.5zM556 664l-69 -579q129 7 214 92t85 207q0 81 -48.5 150t-131.5 106zM566 1298
q-16 1 -23 1q-98 0 -169 -65t-71 -155q0 -140 169 -220l40 -19z" />
    <glyph glyph-name="percent" unicode="%" horiz-adv-x="1459" 
d="M447 1343q103 0 164.5 -67.5t61.5 -181.5q0 -158 -93.5 -275.5t-218.5 -117.5q-99 0 -160.5 72t-61.5 189q0 154 91.5 267.5t216.5 113.5zM447 1303q-86 0 -146 -104.5t-60 -254.5q0 -93 34 -146t92 -53q82 0 142.5 109.5t60.5 258.5q0 190 -123 190zM1251 1303
l-882 -1268q-34 -49 -69 -49q-37 0 -36 18q0 7 10 21l894 1289q25 37 63 37q35 0 35 -18q0 -8 -15 -30zM1166 638q104 0 165 -67.5t61 -181.5q0 -158 -93 -275.5t-218 -117.5q-100 0 -161.5 72t-61.5 189q0 154 92 267.5t216 113.5zM1167 598q-87 0 -147 -104.5t-60 -254.5
q0 -92 34 -145.5t93 -53.5q82 0 142.5 109t60.5 257q0 192 -123 192z" />
    <glyph glyph-name="ampersand" unicode="&#x26;" horiz-adv-x="1497" 
d="M1118 707q63 -42 87 -87.5t24 -120.5q0 -208 -188 -364t-438 -156q-233 0 -373.5 120t-140.5 320q0 144 67.5 250.5t222.5 207.5q-15 66 -15 115q0 162 114 278.5t272 116.5q98 0 158.5 -46t60.5 -122q0 -58 -38.5 -99.5t-91.5 -41.5q-39 0 -39 29q0 10 13 33
q16 29 16 50q0 36 -35 60t-87 24q-106 0 -189.5 -93t-83.5 -213q0 -21 4 -60q64 31 140 31t122 -36t46 -97q0 -59 -41.5 -95.5t-109.5 -36.5q-125 0 -196 142q-155 -118 -155 -308q0 -181 129.5 -312.5t309.5 -131.5q176 0 308.5 118.5t132.5 276.5q0 72 -50 125.5
t-117 53.5q-64 0 -109.5 -44.5t-45.5 -107.5q0 -39 22.5 -66t55.5 -27q29 0 47 32q11 18 23 18q25 0 23 -30q-2 -36 -31.5 -60.5t-71.5 -24.5q-66 0 -114 59t-48 141q0 167 254 275l143 61q331 141 331 325q0 59 -38.5 100.5t-93.5 41.5q-40 0 -70.5 -31.5t-30.5 -71.5
q0 -37 46 -46q55 -10 55 -39q0 -33 -27.5 -60t-60.5 -27q-49 0 -78.5 36t-29.5 94q0 79 60 138.5t140 59.5q93 0 152.5 -65.5t59.5 -166.5q0 -132 -102 -244q-61 -68 -233 -163q-22 -13 -67 -38zM455 848q40 -102 116 -102q29 0 49.5 21t20.5 51q0 60 -74 60q-45 0 -112 -30
z" />
    <glyph glyph-name="quotesingle" unicode="'" horiz-adv-x="313" 
d="M191 864l-5 308v13q0 92 20.5 129t71.5 37q61 0 61 -71q0 -37 -19 -110l-81 -306q-8 -30 -28 -30t-20 30z" />
    <glyph glyph-name="parenleft" unicode="(" horiz-adv-x="543" 
d="M563 1420q26 0 26 -22q0 -13 -32 -35q-132 -93 -219.5 -364.5t-87.5 -592.5q0 -189 34 -345.5t92 -229.5l10 -14q17 -21 17 -34q0 -16 -21 -16q-43 0 -98 101q-80 147 -129 332t-49 340q0 194 77 388.5t217 354.5q120 137 163 137z" />
    <glyph glyph-name="parenright" unicode=")" horiz-adv-x="543" 
d="M211 1420q41 2 98 -101q80 -146 129 -331.5t49 -340.5q0 -194 -78 -390.5t-217 -352.5q-121 -137 -162 -137q-26 0 -26 22q0 13 32 35q133 95 220 365.5t87 590.5q0 189 -34.5 347t-90.5 229l-11 14q-16 20 -17 33q-1 16 21 17z" />
    <glyph glyph-name="asterisk" unicode="*" 
d="M583 1005l-100 -126l-21 -27q-9 -10 -19 -10q-18 0 -47 29.5t-29 48.5q0 17 19 30l138 95q23 16 23 23q0 12 -31 21l-149 42q-54 16 -54 41q0 24 22.5 59.5t38.5 36.5q11 1 37 -19l138 -110l17 -11q12 1 10 22l-11 174l-1 26q0 29 45 29q88 0 86 -35q-1 -10 -9 -35
l-52 -166l-3 -11q1 -11 15 -10q6 0 12 3l160 73q25 12 33 11q22 -2 33 -36l7 -30q5 -18 5 -29q0 -40 -63 -40l-156 -5q-33 0 -35 -15q-1 -5 17 -25l111 -126q13 -15 13 -26q0 -18 -32 -42t-55 -24q-21 0 -38 46l-52 145q-5 16 -10 16z" />
    <glyph glyph-name="plus" unicode="+" 
d="M594 618l2 -90l2 -72l3 -104l1 -28q0 -33 -21 -39l-36 -10l-35 -16l-10 4q-10 10 -10 38l2 47l2 118v67l-1 85l-85 1l-111 2q-37 0 -75 -3q-34 -3 -45 -3q-39 0 -39 20q0 9 12 43l10 28q7 22 39 22q7 0 28 -1q72 -3 104 -3l71 -2l90 -3v50q0 59 -6 192q-1 23 -1 33
q0 28 26 56.5t51 28.5q29 0 29 -36l2 -132v-79l-1 -115l114 1h65q124 0 153 -3.5t29 -17.5q0 -38 -21 -62t-55 -24l-41 1l-162 6h-80z" />
    <glyph glyph-name="comma" unicode="," horiz-adv-x="462" 
d="M179 214q22 2 56 -40q56 -67 56 -161q0 -127 -109 -246q-70 -78 -105 -80q-17 -1 -16 17q1 13 37 48q84 80 84 180q0 94 -70 131l-17 10q-19 10 -18 21q1 16 38 57q17 19 24 28q25 34 40 35z" />
    <glyph glyph-name="hyphen" unicode="-" horiz-adv-x="313" 
d="M308 510q15 -3 15 -29q0 -46 -13 -65t-51 -28q-103 -25 -220 -74q-15 -6 -25 -6q-19 0 -19 37q0 50 16.5 65t95.5 34q108 26 164 55q26 13 37 11z" />
    <glyph glyph-name="hyphen" unicode="&#xad;" horiz-adv-x="313" 
d="M308 510q15 -3 15 -29q0 -46 -13 -65t-51 -28q-103 -25 -220 -74q-15 -6 -25 -6q-19 0 -19 37q0 50 16.5 65t95.5 34q108 26 164 55q26 13 37 11z" />
    <glyph glyph-name="period" unicode="." horiz-adv-x="462" 
d="M204 212q14 1 29 -18l28 -33q12 -14 34 -32q16 -14 15 -24t-19 -24q-58 -45 -82 -76q-15 -19 -27 -19t-24 20q-23 37 -56 66q-18 16 -18 29q0 16 24 32q26 18 37 29l31 32q16 17 28 18z" />
    <glyph glyph-name="slash" unicode="/" horiz-adv-x="1012" 
d="M1064 1364l-1114 -1600q-25 -35 -56 -35q-42 0 -41 16q1 10 11 22q8 12 56 80l1100 1580q16 23 36 23q53 0 52 -17q0 -7 -7 -17l-13 -18z" />
    <glyph glyph-name="zero" unicode="0" 
d="M614 1351q168 0 265.5 -140t97.5 -383q0 -155 -49 -333.5t-123 -294.5q-137 -214 -328 -214q-163 0 -259 156.5t-96 423.5q0 296 136 544q131 241 356 241zM550 1257q-129 0 -219 -177t-90 -430q0 -226 87 -382t213 -156q129 0 213 157.5t84 400.5q0 258 -81 422.5
t-207 164.5z" />
    <glyph glyph-name="one" unicode="1" 
d="M694 1068l-102 -831q-5 -42 -5 -72q0 -107 112 -107q64 0 62 -35q-2 -30 -43 -30q-7 0 -31 2q-81 9 -172 9q-82 0 -139 -5l-34 -3l-19 -2q-11 -1 -18 -1q-37 0 -37 29q0 33 50 35q75 4 98.5 38t39.5 159l94 769q7 62 7 91q0 49 -43 49q-24 0 -72 -19q-21 -8 -35 -8
q-25 0 -25 25q0 26 44 46l80 36q89 40 108 51.5t63 49.5q27 24 42 24q24 0 23 -24q-1 -26 -12 -67q-19 -72 -36 -209z" />
    <glyph glyph-name="two" unicode="2" 
d="M558 510l-224 -294q-23 -30 -24 -44q-3 -31 62 -31l49 -1l107 -1l134 10q71 14 135 84q28 31 48 31q32 0 30 -23q-1 -10 -20 -37l-125 -180l-16 -23q-7 -8 -23 -8t-49 5q-67 9 -212 9q-205 0 -263 -9q-29 -5 -43 -5q-37 0 -37 26q0 16 37 60l183 221q47 58 137.5 196
t128.5 213q109 209 109 355q0 168 -155 168q-117 0 -193 -64l-67 -56q-11 -9 -26 -10q-28 -2 -28 24q0 41 104 127q119 98 261 98q120 0 198 -67t78 -170q0 -215 -296 -604z" />
    <glyph glyph-name="three" unicode="3" 
d="M608 806q139 -24 194.5 -82t55.5 -178q0 -225 -158 -392.5t-368 -167.5q-86 0 -170 38.5t-84 77.5q0 35 33 35q14 0 35 -12q105 -56 183 -56q141 0 251 127t110 288q0 105 -56 163.5t-156 58.5q-28 0 -44 -2q-22 -3 -31 -4q-24 -1 -24 25q0 23 36 36q106 40 185 137.5
t79 188.5q0 66 -41.5 106.5t-109.5 40.5q-84 0 -146 -54l-59 -51q-16 -14 -34 -15q-31 -2 -31 27q0 35 87 107q125 104 253 104q109 0 171.5 -54.5t62.5 -149.5q0 -85 -49.5 -160.5t-174.5 -181.5z" />
    <glyph glyph-name="four" unicode="4" 
d="M598 417h-457q-55 0 -54 32q2 33 80 130q8 10 105 138q133 174 237 296l202 238l74 87q27 27 49 27q26 0 26 -24q0 -8 -3 -21q-23 -115 -32 -190l-73 -590h33q52 0 99 44q34 31 51 31q24 0 25 -22q0 -5 -2 -12l-53 -137q-11 -27 -39 -27h-129l-58 -481q-5 -42 -48 -52
q-30 -7 -45 -12q-18 -6 -31 -6q-37 0 -37 37q0 9 4 21q26 83 36 159zM613 540l68 552q-187 -187 -443 -552h375z" />
    <glyph glyph-name="five" unicode="5" 
d="M410 884q78 12 125 12q167 0 262 -89t95 -247q0 -220 -174 -404q-161 -170 -376 -170q-97 0 -183.5 30t-86.5 64q0 35 35 33q17 -1 40 -10q99 -40 170 -40q162 0 273 116q135 141 135 335q0 111 -69.5 179t-184.5 68q-53 0 -91 -7q-31 -6 -41 -6q-41 0 -41 37q0 13 7 35
l155 467q11 33 26 43t52 10h314q45 0 59 4.5t45 29.5q22 18 41 18q30 0 29 -22q-1 -12 -10 -26l-87 -134q-17 -28 -55 -28h-308q-37 0 -52 -9.5t-24 -39.5l-7 -23z" />
    <glyph glyph-name="six" unicode="6" 
d="M355 785q142 95 268 95q138 0 225.5 -104.5t87.5 -270.5q0 -214 -134.5 -366.5t-323.5 -152.5q-161 0 -261 124t-100 324q0 279 197.5 555t469.5 376l58 21q41 15 67 15q36 0 35 -33q-1 -25 -46 -39q-191 -59 -314 -182.5t-229 -361.5zM542 779q-113 0 -186 -96.5
t-73 -246.5q0 -161 67.5 -264t173.5 -103q111 0 184 104.5t73 264.5q0 150 -67 245.5t-172 95.5z" />
    <glyph glyph-name="seven" unicode="7" 
d="M856 1178h-345q-82 0 -122.5 -26t-73.5 -99q-16 -37 -41 -36q-27 2 -27 28q0 18 6 36l70 221q11 36 42 36q13 0 53 -5q80 -9 226 -9q154 0 229 9q36 5 51 5q46 0 46 -45q0 -43 -41 -160.5t-89 -213.5l-139 -276q-179 -356 -179 -567q0 -45 16 -118q2 -11 2 -18
q0 -21 -45 -39.5t-96 -18.5q-61 0 -61 87q0 224 165 512l184 322q81 141 111 207.5t58 167.5z" />
    <glyph glyph-name="eight" unicode="8" 
d="M690 747q124 -77 171.5 -146t47.5 -171q0 -182 -129.5 -313t-310.5 -131q-152 0 -252 96t-100 242q0 247 276 394q-84 75 -112.5 123t-28.5 118q0 156 116.5 274t270.5 118q132 0 219.5 -76t87.5 -190q0 -224 -256 -338zM614 787q218 61 218 261q0 104 -57 170t-146 66
q-101 0 -175.5 -71.5t-74.5 -168.5q0 -136 135 -206zM453 676q-221 -99 -221 -327q0 -122 74 -205t183 -83q121 0 205.5 85t84.5 206q0 138 -153 226z" />
    <glyph glyph-name="nine" unicode="9" 
d="M738 554q-141 -96 -267 -96q-138 0 -225.5 104.5t-87.5 270.5q0 213 134.5 365.5t323.5 152.5q161 0 261 -124t100 -324q0 -277 -199 -555t-467 -375l-59 -21q-42 -15 -66 -15q-36 0 -36 32q0 25 46 40q194 62 315.5 184t226.5 361zM570 1268q-111 0 -184 -104.5
t-73 -263.5q0 -150 67 -245.5t173 -95.5q113 0 185.5 96.5t72.5 246.5q0 161 -67.5 263.5t-173.5 102.5z" />
    <glyph glyph-name="colon" unicode=":" horiz-adv-x="497" 
d="M278 797q13 0 28 -18l28 -33q13 -16 34 -32q15 -13 15 -22q0 -11 -19 -26q-62 -50 -82 -76q-14 -19 -26 -19q-13 0 -25 20q-22 37 -56 67q-18 15 -18 27q0 16 24 33q25 18 37 29l31 32q17 18 29 18zM241 212q14 1 29 -18l28 -33q12 -14 33 -32q17 -14 16 -24
q-1 -9 -20 -24q-59 -47 -81 -76q-15 -19 -27 -19t-24 20q-20 33 -57 66q-18 17 -17 31q1 15 24 30q27 19 37 29l31 32q17 17 28 18z" />
    <glyph glyph-name="semicolon" unicode=";" horiz-adv-x="462" 
d="M180 214q21 2 55 -40q56 -67 56 -161q0 -127 -109 -246q-70 -78 -105 -80q-17 -1 -16 17q1 13 37 48q35 33 59.5 85.5t24.5 92.5q0 96 -70 133l-17 10q-18 10 -17 22q1 14 37 56q19 21 25 28q25 34 40 35zM219 797q13 0 28 -18l28 -33q13 -15 34 -32q16 -13 15 -24
t-19 -24q-56 -42 -82 -76q-14 -19 -26 -19q-13 0 -26 20q-24 41 -55 67q-18 14 -18 27q0 17 24 33q24 17 36 29l31 32q18 18 30 18z" />
    <glyph glyph-name="less" unicode="&#x3c;" 
d="M934 1245v-65l-670 -438l670 -446v-171l-844 561v12z" />
    <glyph glyph-name="equal" unicode="=" 
d="M203 852q10 0 28 -1q57 -3 102 -3l217 -6l250 1l114 -2q41 0 41 -23q0 -17 -17 -38q-11 -14 -14 -18q-20 -29 -50 -29l-41 1l-160 5h-173l-207 3l-67 -3q-29 -4 -41 -4q-44 0 -48 23l2 7l11 30l10 33q9 24 43 24zM203 606q10 0 28 -1q57 -3 102 -3l217 -6l250 1l114 -2
q41 0 41 -23q0 -17 -17 -38q-11 -14 -14 -18q-20 -29 -50 -29l-41 1l-160 5h-173l-207 3l-67 -3q-29 -4 -41 -4q-44 0 -48 23l2 7l11 30l10 33q9 24 43 24z" />
    <glyph glyph-name="greater" unicode="&#x3e;" 
d="M90 125v65l669 438l-669 446v171l844 -561v-12z" />
    <glyph glyph-name="question" unicode="?" horiz-adv-x="582" 
d="M487 883l-103 -131q-117 -152 -117 -254q0 -16 4 -33q4 -16 4 -26q0 -13 -14 -13q-17 0 -31 35t-14 79q0 95 81 234l88 150q59 102 59 156q0 60 -49 107t-111 47q-27 0 -47 -15l-36 -26q-9 -6 -18 -7q-17 -1 -15 15q4 35 68 72.5t121 37.5q89 0 159.5 -65t70.5 -146
q0 -87 -100 -217zM233 212q14 1 29 -18l28 -33q12 -14 34 -32q16 -14 15 -24t-20 -24q-54 -41 -81 -76q-15 -19 -27 -19t-24 20q-23 37 -56 66q-18 16 -18 29q0 16 24 32q26 18 37 29l31 32q16 17 28 18z" />
    <glyph glyph-name="at" unicode="@" horiz-adv-x="1533" 
d="M936 487q-181 -195 -346 -195q-59 0 -94.5 39.5t-35.5 106.5q0 163 151 365q177 236 365 236q43 0 99 -18q20 -6 35 -6q17 0 48 29l19 19q17 16 29 16q13 0 12 -14q-1 -10 -6 -24l-15 -40l-28 -80q-45 -122 -82 -270.5t-37 -201.5q0 -82 56 -82q58 0 132 67
q80 72 129 191t49 242q0 209 -131.5 334t-350.5 125q-283 0 -490 -228t-207 -539q0 -242 143.5 -380.5t395.5 -138.5q232 0 444 92l20 -64q-222 -94 -473 -94q-304 0 -487 165.5t-183 441.5q0 154 67 304.5t187 264.5q118 113 275 177t315 64q258 0 418.5 -144t160.5 -376
q0 -152 -75.5 -288t-207.5 -222q-107 -69 -195 -69q-112 0 -112 130q0 26 6 65zM969 993q-91 0 -192 -106q-73 -78 -130.5 -200.5t-57.5 -201.5q0 -98 95 -98q79 0 168.5 79.5t113.5 170.5q10 37 17 58l27 81q31 92 42 118q13 29 13 46q0 21 -29 37t-67 16z" />
    <glyph glyph-name="A" unicode="A" horiz-adv-x="1303" 
d="M853 494h-413q-47 0 -60 -5t-24 -29l-128 -256q-30 -60 -30 -96q0 -51 69 -66q67 -14 66 -34q-1 -15 -30 -15q-11 0 -26 2q-57 9 -128 9q-66 0 -131 -8q-21 -3 -33 -3q-31 0 -31 20q0 19 30 28l39 10q52 14 93 98l32 68l574 1119q19 36 38 36q20 0 31 -36l326 -1042
l29 -86q31 -98 50.5 -124t72.5 -43q29 -8 29 -25q0 -23 -41 -23q-11 0 -27 2q-59 9 -131 9q-64 0 -107 -5l-26 -3q-21 -3 -28 -3q-40 0 -40 21q0 15 46 27q76 19 76 76q0 39 -15 87l-70 218l-11 34q-8 27 -19 32.5t-52 5.5zM857 665l-131 413q-7 23 -9 33q-5 22 -15 21
q-6 -1 -16 -23q-6 -14 -15 -31l-234 -451l-10 -19q-4 -9 -4 -16q0 -11 18 -11h373q62 0 62 24q0 8 -7 25q-5 14 -12 35z" />
    <glyph glyph-name="B" unicode="B" horiz-adv-x="1190" 
d="M227 184l119 972q5 38 5 60q0 89 -94 107q-57 11 -57 28q0 21 30 21q15 0 45 -6q50 -9 84 -9q38 0 162 10q75 6 146 6q137 0 214 -22.5t132 -78.5q80 -81 80 -202q0 -103 -62.5 -189t-171.5 -134q-24 -11 -24 -21t26 -16q101 -23 168 -110t67 -197q0 -158 -135 -282
q-77 -70 -166.5 -99t-229.5 -29q-66 0 -118 4q-131 10 -145 10q-34 0 -85 -7q-56 -7 -83 -7q-37 0 -37 20q0 15 35 25q79 20 89 94zM501 763l129 -11q139 -11 227 68t88 215q0 130 -80.5 204t-220.5 74q-94 0 -117 -17.5t-33 -97.5l-43 -351l-2 -22q-2 -19 -2 -26
q0 -31 26 -34zM627 702l-125 10h-18q-51 0 -55 -41l-4 -37l-53 -440l-8 -66q0 -44 45 -62t155 -18q170 0 272 94.5t102 252.5q0 137 -80.5 216.5t-230.5 90.5z" />
    <glyph glyph-name="C" unicode="C" horiz-adv-x="1343" 
d="M795 1386q232 0 432 -129q15 -10 25 -10q7 0 13 5l14 14q8 7 19 7q21 0 21 -34v-95l13 -150q2 -23 2 -37q0 -36 -21 -36q-23 0 -34 48q-36 146 -151 236q-155 122 -332 122q-232 0 -378.5 -178.5t-146.5 -461.5t140.5 -465.5t358.5 -182.5q149 0 283.5 87.5t172.5 208.5
q18 61 44 61q23 0 21 -40q-2 -35 -13 -73l-21 -65l-8 -44q-3 -25 -14.5 -36.5t-56.5 -38.5q-205 -119 -434 -119q-291 0 -458 174t-167 477q0 330 190 542.5t486 212.5z" />
    <glyph glyph-name="D" unicode="D" horiz-adv-x="1411" 
d="M227 184l119 972q5 38 5 60q0 89 -94 107q-57 11 -57 28q0 21 31 21q23 0 79 -9q42 -6 78 -6q39 0 151 8q111 7 215 7q309 0 471 -157q154 -149 154 -381q0 -212 -99 -403.5t-270 -310.5q-100 -68 -215 -97.5t-285 -29.5q-84 0 -167 8q-64 6 -85 6q-27 0 -63 -6
q-46 -8 -61 -8q-37 0 -37 20q0 15 35 25q79 20 89 94zM492 1177l-122 -999q-5 -38 -5 -55q0 -45 26.5 -58.5t112.5 -13.5q161 0 260.5 29t186.5 102q117 97 193.5 282t76.5 370q0 249 -185 385q-125 92 -346 92q-122 0 -154.5 -22t-43.5 -112z" />
    <glyph glyph-name="E" unicode="E" horiz-adv-x="1180" 
d="M228 184l118 972q5 37 5 60q0 89 -94 107q-57 11 -57 28q0 21 31 21q32 0 80 -5q97 -9 373 -9q261 0 381 10q56 4 80 4q28 0 28 -25l-2 -97l4 -150q0 -32 -23 -32q-24 0 -27 41q-6 110 -60 142t-236 32h-80l-180 4q-42 0 -54 -11t-18 -55l-53 -435q-2 -13 -2 -20
q-1 -22 43 -22h279q135 0 166 123q7 24 22 25q20 1 20 -25q0 -34 -13 -96q-14 -75 -19 -178q-4 -74 -9.5 -95.5t-20.5 -21.5q-20 0 -20 26l-2 45q0 110 -156 110h-239q-46 0 -56 -6.5t-14 -39.5l-53 -428q-1 -12 -1 -23q0 -49 30.5 -64t130.5 -15q441 0 546 160q25 37 41 37
q19 0 19 -22q0 -31 -31.5 -89t-71.5 -103q-41 -44 -79.5 -57.5t-125.5 -13.5q-42 0 -174 8q-97 6 -189 6q-104 0 -192 -7q-87 -7 -139 -7q-37 0 -37 20q0 15 36 25q54 14 69 37.5t26 108.5z" />
    <glyph glyph-name="F" unicode="F" horiz-adv-x="1035" 
d="M482 739h254q82 0 116.5 20t49.5 75q7 27 22 28q17 1 17 -20l-24 -189l-10 -160q-2 -26 -21 -26t-19 42q0 80 -28 111.5t-98 31.5h-248q-43 0 -55.5 -11.5t-17.5 -53.5l-47 -378q-4 -36 -4 -59q0 -89 94 -108q57 -11 57 -28q0 -21 -35 -21q-6 0 -26 2q-67 9 -145 9
q-73 0 -121 -5l-29 -3q-23 -3 -30 -3q-37 0 -37 20q0 15 35 25q79 20 89 94l6 52l119 972q5 38 5 60q0 89 -94 107q-57 11 -57 28q0 21 31 21q26 0 70 -4q92 -10 327 -10q260 0 348 9q45 5 60 5q34 0 34 -36l-3 -117l13 -128q0 -30 -22 -30q-17 0 -20 40q-10 102 -75.5 146
t-206.5 44l-121 4l-50 2q-46 0 -64.5 -18t-24.5 -70l-50 -412l-4 -30l3 -14q7 -14 37 -14z" />
    <glyph glyph-name="G" unicode="G" horiz-adv-x="1455" 
d="M762 1324q-260 0 -384 -187q-48 -73 -81 -196.5t-33 -232.5q0 -277 139 -467q147 -201 411 -201q246 0 300 197q32 117 32 278q0 68 -19.5 93t-78.5 32l-38 4q-32 4 -31 21q1 24 41 24l195 -2l153 11q27 0 27 -18q0 -19 -43 -30q-32 -8 -43 -27t-18 -76l-21 -184
q-11 -93 -11 -164q0 -36 5 -60q3 -15 3 -21q0 -19 -26 -24q-52 -11 -114 -36q-194 -79 -344 -79q-214 0 -383 102q-283 170 -283 580q0 319 192 522t494 203q93 0 211 -33.5t201 -82.5q21 -13 32 -13q13 0 26 13l12 14q5 5 16 5q22 0 22 -32v-106l11 -159q4 -51 -21 -51
q-17 0 -25 31q-39 154 -187 253t-339 99z" />
    <glyph glyph-name="H" unicode="H" horiz-adv-x="1518" 
d="M478 749h637q34 0 43.5 7t12.5 37l45 363q4 35 4 60q0 89 -94 107q-57 11 -57 28q0 21 31 21q12 0 30 -2q67 -8 146 -8q72 0 119 5l30 3q24 2 31 2q37 0 37 -20q0 -15 -20 -20l-16 -5q-55 -15 -70 -37.5t-25 -108.5l-119 -972q-5 -39 -5 -59q0 -90 94 -108q57 -11 57 -28
q0 -21 -35 -21q-6 0 -26 2q-69 9 -146 9q-71 0 -119 -5l-29 -3q-24 -3 -31 -3q-37 0 -37 20q0 15 36 25q54 14 69 37.5t26 108.5l50 414q2 14 2 29q0 36 -44 36h-654q-22 0 -26 -32l-52 -422q-4 -36 -4 -59q0 -89 94 -108q57 -11 57 -28q0 -21 -35 -21q-7 0 -27 2
q-70 9 -147 9q-67 0 -116 -5l-29 -3q-25 -3 -32 -3q-37 0 -37 20q0 15 35 25q79 20 89 94l6 52l119 972q4 31 4 60q0 89 -93 107q-57 11 -57 28q0 21 34 21q7 0 28 -2q67 -8 147 -8q67 0 115 5l30 3q25 2 32 2q37 0 37 -20q0 -15 -20 -20l-16 -5q-54 -15 -69 -37.5
t-25 -108.5l-47 -377q-2 -17 -2 -24q0 -31 34 -31z" />
    <glyph glyph-name="I" unicode="I" horiz-adv-x="649" 
d="M227 184l119 972q4 30 4 60q0 89 -93 107q-57 11 -57 28q0 21 34 21q7 0 27 -2l23 -3q50 -5 123 -5q71 0 118 5l30 3q25 2 31 2q37 0 37 -20q0 -15 -20 -20l-16 -5q-54 -15 -69 -37.5t-25 -108.5l-120 -972q-4 -36 -4 -59q0 -89 94 -108q57 -11 57 -28q0 -21 -31 -21
q-12 0 -30 2q-68 9 -147 9q-70 0 -118 -5l-29 -3q-24 -3 -31 -3q-37 0 -37 20q0 15 35 25q79 20 89 94z" />
    <glyph glyph-name="J" unicode="J" horiz-adv-x="600" 
d="M241 342l100 814q4 35 4 60q0 89 -93 107q-57 11 -57 28q0 21 34 21q7 0 27 -2l24 -3q50 -5 123 -5q69 0 116 5l30 3q25 2 32 2q36 0 36 -20q0 -15 -20 -20l-16 -5q-54 -15 -69 -38t-25 -108l-91 -743q-37 -299 -163 -438q-112 -124 -229 -124q-39 0 -65.5 15.5
t-25.5 38.5q2 48 21 94.5t36 46.5q18 0 34 -43q23 -60 76 -60q57 0 97 77q36 69 64 297z" />
    <glyph glyph-name="K" unicode="K" horiz-adv-x="1369" 
d="M228 184l119 972q4 34 4 60q0 89 -94 107q-57 11 -57 28q0 21 35 21q6 0 27 -2l23 -3q50 -5 123 -5q70 0 118 5l29 3q25 2 32 2q37 0 37 -20q0 -15 -20 -20l-16 -5q-55 -15 -69.5 -37.5t-25.5 -108.5l-50 -411q-2 -12 -2 -22q0 -23 14 -23q10 0 131 90.5t217 169.5
l172 142q83 68 109.5 97.5t26.5 52.5q0 40 -53 51q-33 6 -33 22q0 22 31 22q13 0 32 -2q68 -8 153 -8q74 0 124 5l30 3l17 1q10 1 16 1q30 0 30 -22q0 -18 -27 -24q-81 -19 -132 -48t-172 -124l-489 -382q-32 -25 -33 -36q-1 -13 18 -36l410 -495q69 -83 124.5 -115.5
t153.5 -46.5q40 -6 40 -29q0 -20 -23 -21q-8 0 -24 2q-55 9 -120 9q-66 0 -120 -9q-16 -2 -21 -2q-31 0 -75 54l-461 573q-21 26 -29 27q-20 1 -38.5 -22t-22.5 -56l-44 -360q-4 -37 -4 -59q0 -89 94 -108q57 -11 57 -28q0 -21 -35 -21q-7 0 -27 2q-69 9 -146 9
q-69 0 -117 -5l-30 -3q-24 -3 -31 -3q-37 0 -37 20q0 15 36 25q54 14 69 37.5t26 108.5z" />
    <glyph glyph-name="L" unicode="L" horiz-adv-x="1113" 
d="M227 184l119 972q4 30 4 60q0 89 -93 107q-57 11 -57 28q0 21 34 21q7 0 28 -2l23 -3q51 -5 124 -5q67 0 115 5l30 3q25 2 32 2q37 0 37 -20q0 -15 -20 -20l-16 -5q-54 -15 -69 -37.5t-25 -108.5l-123 -997q-3 -27 -3 -41q0 -62 183 -62q387 0 488 138q38 52 55 52
t16 -23q-4 -66 -67 -160q-36 -53 -83 -74t-128 -21l-233 6l-281 8q-75 0 -132 -8q-38 -6 -51 -6q-37 0 -37 20q0 15 35 25q79 20 89 94z" />
    <glyph glyph-name="M" unicode="M" horiz-adv-x="1735" 
d="M1508 1088l-14 -879q0 -88 21 -121t86 -46q60 -12 60 -30q0 -19 -32 -19q-7 0 -27 2q-68 9 -148 9q-70 0 -119 -5l-30 -3l-16 -2q-10 -1 -16 -1q-39 0 -39 22q0 14 33 23q79 20 79 94l1 52l11 754q0 31 -12 30q-15 -1 -51 -75l-416 -859l-7 -14q-7 -14 -22 -13
q-18 1 -36 42l-380 871q-10 23 -16 23q-9 1 -15 -35l-116 -681q-9 -54 -9 -80q0 -86 102 -96q68 -7 68 -31q0 -27 -42 -27q-11 0 -27 2q-57 9 -132 9q-67 0 -133 -8q-22 -3 -32 -3q-39 0 -39 22t54 34q53 13 68.5 35.5t34.5 112.5l23 101l63 340q51 272 51 413
q0 110 -44.5 188t-107.5 78q-8 0 -20 -2q-33 -4 -46 -4q-23 0 -22 17q3 44 93 44q178 0 202 -11q21 -9 37 -48l152 -353q30 -70 82 -196q57 -140 84 -202l122 -282l17 -30q7 -1 31 48l323 662q66 134 88 181l64 141l27 57q11 24 45 24q52 0 60 1l94 4l25 -5q9 -5 9 -14
q0 -13 -62 -33q-45 -14 -63.5 -66t-18.5 -162z" />
    <glyph glyph-name="N" unicode="N" horiz-adv-x="1456" 
d="M240 313l91 631q12 79 12 155q0 86 -54.5 149.5t-129.5 63.5q-15 0 -27 -3q-13 -2 -22 -2q-22 1 -22 18q0 15 31.5 29t67.5 14l92 -4l67 -1q40 0 61 -29l229 -323q116 -163 242 -364l222 -353l12 -17q12 -17 17 -17q16 0 23 65q2 13 8 45q34 185 68.5 463t34.5 370
q0 107 -102 121q-53 7 -54 29q-1 19 37 19q12 0 26 -2q55 -8 124 -8q61 0 101 5l25 3q21 2 29 2q38 0 38 -24q0 -15 -36 -20q-64 -9 -83.5 -54t-38.5 -229q-52 -492 -130 -908q-20 -108 -26.5 -126t-28.5 -18q-15 0 -30 23l-230 362l-122 188q-119 183 -143 218l-150 215
q-10 14 -16 23q-12 20 -19 19q-13 -2 -19 -43l-92 -754q-8 -68 -8 -93q0 -94 102 -106q49 -6 49 -27q0 -25 -44 -25q-12 0 -28 2q-61 9 -136 9q-65 0 -110 -5l-27 -3q-22 -3 -29 -3q-25 0 -25 18q0 19 44 32q55 18 77.5 51t35.5 116z" />
    <glyph glyph-name="O" unicode="O" horiz-adv-x="1511" 
d="M826 1386q277 0 458.5 -186.5t181.5 -469.5q0 -248 -128 -450q-190 -300 -578 -300q-296 0 -470.5 171.5t-174.5 461.5q0 321 208 547t503 226zM798 1332q-225 0 -375 -195.5t-150 -488.5q0 -265 141.5 -437t359.5 -172q232 0 379 198.5t147 511.5q0 308 -178 460
q-146 123 -324 123z" />
    <glyph glyph-name="P" unicode="P" horiz-adv-x="1025" 
d="M488 1147l-115 -938q-4 -36 -4 -59q0 -90 106 -108q65 -11 65 -27q0 -22 -51 -22q-14 0 -32 2q-67 9 -147 9q-65 0 -114 -5l-30 -3q-25 -3 -32 -3q-37 0 -37 20q0 15 35 25q79 20 89 94l6 52l119 972q5 38 5 60q0 89 -94 107q-57 11 -57 28q0 21 31 21q25 0 78 -7
q50 -7 114 -7q74 0 170 7q84 7 126 7q152 0 244.5 -89t92.5 -235q0 -131 -77 -242t-198 -153q-65 -23 -164 -23q-42 0 -56 2l-37 5q-51 6 -50 24q1 13 25 13h16l78 -2q124 0 216.5 105t92.5 246q0 120 -89 204t-217 84q-58 0 -76.5 -28t-31.5 -136z" />
    <glyph glyph-name="Q" unicode="Q" horiz-adv-x="1527" 
d="M781 -18q157 -103 302.5 -168t220.5 -65q76 0 123 75q13 21 21 21q12 0 12 -15q0 -60 -80.5 -124.5t-156.5 -64.5q-94 0 -238 66.5t-392 224.5l-168 108q-60 38 -105 38q-59 0 -101.5 -50.5t-42.5 -121.5q0 -58 27 -102q18 -30 18 -45q0 -14 -21 -14q-30 0 -57.5 63
t-27.5 130q0 173 157 233q-89 115 -122.5 206.5t-33.5 221.5q0 386 255 611q200 176 461 176q276 0 454.5 -187t178.5 -476q0 -248 -128 -443q-98 -148 -225.5 -216.5t-330.5 -81.5zM799 1331q-223 0 -374 -190.5t-151 -473.5q0 -280 137.5 -454.5t359.5 -174.5
q124 0 233 62t176 170q53 86 87.5 223.5t34.5 261.5q0 257 -139 416.5t-364 159.5z" />
    <glyph glyph-name="R" unicode="R" horiz-adv-x="1187" 
d="M432 628l-52 -419q-4 -37 -4 -59q0 -89 94 -108q57 -11 57 -28q0 -21 -35 -21q-6 0 -26 2q-68 9 -145 9q-73 0 -121 -5l-28 -3q-24 -3 -31 -3q-37 0 -37 20q0 15 36 25q54 14 69 37.5t26 108.5l118 972q5 37 5 60q0 89 -94 107q-57 11 -57 28q0 21 31 21q12 0 56 -8
q33 -6 65 -6q21 0 192 10q60 4 133 4q209 0 292 -72q94 -80 94 -214q0 -101 -61 -199.5t-146 -135.5l-64 -27q-29 -13 -30 -35q0 -5 5 -18q6 -14 18 -53q25 -80 60 -166l74 -175q55 -133 101.5 -188.5t98.5 -52.5l29 2l7 -1q8 -3 8 -9q1 -16 -41 -29t-94 -13
q-154 0 -213 162l-173 480q-14 40 -25 48.5t-50 8.5q-91 0 -112.5 -6t-26.5 -33zM502 1200l-44 -357q-4 -34 -4 -45q0 -34 34.5 -43t160.5 -9t197 82.5t71 228.5q0 119 -71.5 188.5t-195.5 69.5q-83 0 -111.5 -22t-36.5 -93z" />
    <glyph glyph-name="S" unicode="S" horiz-adv-x="902" 
d="M433 876l230 -240q155 -161 155 -322q0 -150 -121 -242.5t-317 -92.5q-204 0 -252 41q-22 19 -43.5 95.5t-21.5 132.5q0 35 23 35q15 0 24 -26q36 -102 123 -162.5t197 -60.5q114 0 188 65.5t74 166.5q0 56 -27 106t-98 127l-228 246q-101 109 -138.5 185.5t-37.5 174.5
q0 122 86.5 201.5t218.5 79.5q81 0 217 -46q40 -13 45 -13q10 1 32 14q11 7 21 8q25 1 25 -59v-33l21 -194q2 -31 -26 -31q-24 0 -36 46q-31 111 -119 184.5t-191 73.5q-75 0 -122.5 -49t-47.5 -126q0 -134 146 -285z" />
    <glyph glyph-name="T" unicode="T" horiz-adv-x="1178" 
d="M779 1212l-123 -1003q-4 -33 -4 -59q0 -90 102 -108q62 -11 62 -27q0 -22 -44 -22q-13 0 -32 2q-68 9 -147 9q-66 0 -115 -5l-30 -3q-24 -3 -32 -3q-50 0 -50 20q0 15 39 25q60 15 77.5 39t27.5 107l126 1028l1 14q0 34 -44 34h-216q-179 0 -217 -121q-19 -58 -40 -58
q-29 0 -29 41q0 33 32 113q14 35 25 80q7 34 20.5 45.5t43.5 11.5q24 0 94 -5q136 -9 416 -9q299 0 417 10q54 4 74 4q32 0 42.5 -13.5t10.5 -52.5l-1 -86l2 -100q0 -49 -24 -49q-26 0 -29 51q-5 75 -35 106.5t-97 31.5h-275q-23 -1 -28 -48z" />
    <glyph glyph-name="U" unicode="U" horiz-adv-x="1478" 
d="M1296 1002l19 154q4 36 4 60q0 89 -94 107q-57 11 -57 28q0 21 31 21q10 0 25 -2q55 -8 123 -8q60 0 99 5l25 3q21 2 26 2q36 0 36 -19q0 -16 -36 -25q-54 -14 -70.5 -38t-28.5 -109l-87 -580q-49 -330 -199 -475.5t-442 -145.5q-232 0 -354 107q-104 91 -104 299
q0 52 6 118l60 677q4 48 4 69q0 58 -69 78l-15 4q-15 4 -15 16q0 24 42 24q11 0 25 -2q54 -8 120 -8q60 0 99 5l24 3q20 2 25 2q37 0 37 -20q0 -15 -20 -20l-16 -5q-54 -15 -69 -38t-25 -108l-29 -238q-16 -127 -20 -182l-15 -199q-7 -102 -7 -165q0 -166 91.5 -257
t257.5 -91q204 0 342 115q78 65 116 149.5t69 265.5l35 202q11 64 31 221z" />
    <glyph glyph-name="V" unicode="V" horiz-adv-x="1336" 
d="M574 26l-316 1148q-22 77 -49.5 109t-84.5 43q-34 7 -34 25q0 21 33 21q12 0 29 -2q63 -8 140 -8q70 0 114 5l28 2q25 3 38 3q42 0 43 -24q1 -17 -39 -22q-66 -8 -66 -81q0 -46 64 -301t118 -427l63 -197q24 -76 36 -77q15 -1 124 196t205 399l101 212q78 165 78 206
q0 65 -85 69q-51 3 -53 25t30 22q11 0 29 -2q62 -8 139 -8q69 0 114 5l28 3q24 2 30 2q36 0 36 -22q0 -18 -41 -20q-50 -4 -91.5 -59.5t-126.5 -235.5q-37 -79 -115 -227l-123 -235q-311 -594 -365 -594q-18 0 -31 47z" />
    <glyph glyph-name="W" unicode="W" horiz-adv-x="1822" 
d="M1012 743l57 -210q12 -42 23 -79l26 -83l28 -89q11 -31 13 -39q4 -15 12 -16q16 -2 154 257t240 480q60 130 78 163q44 82 44 132q0 27 -27 47t-63 20q-53 0 -53 22q0 24 30 24q6 0 47 -5q47 -5 117 -5q68 0 113 5l28 3l15 1l14 1q32 0 32 -24q0 -17 -32 -21
q-62 -7 -103 -64t-160 -299q-231 -475 -374 -725l-115 -201q-33 -59 -52 -59q-16 0 -31 52q-10 35 -29 96q-49 152 -76 251l-52 187l-177 -321q-26 -47 -53 -91q-37 -62 -42 -71l-26 -46q-29 -51 -50 -51q-18 0 -33 57l-300 1162q-16 63 -39.5 89t-68.5 31q-37 4 -37 23
q0 25 37 25h14l15 -2l23 -2l29 -3q26 -3 89 -3q70 0 115 5l28 3l16 1q9 1 14 1q24 0 25 -19t-38 -23q-72 -8 -72 -90q0 -41 32 -168l200 -786l10 -31q8 -28 14 -29q9 -1 29 36q6 10 14 24l20 35l186 338l-132 514q-37 143 -118 151q-49 6 -49 26q0 22 32 22q11 0 29 -2
q62 -8 137 -8q68 0 112 5l27 3l15 1l14 1q30 0 29 -21q-1 -13 -18 -16q-73 -16 -73 -90q0 -48 20 -124l21 -80l50 -199l118 230q67 131 67 189q0 28 -24.5 49t-57.5 21q-41 0 -41 21q0 20 28 20q10 0 27 -2q59 -8 128 -8q62 0 104 5l25 3l14 1l13 1q25 0 25 -20
q0 -16 -43 -22q-31 -5 -56 -33.5t-65 -104.5l-47 -90z" />
    <glyph glyph-name="X" unicode="X" horiz-adv-x="1371" 
d="M799 749l123 -306q107 -264 177 -332q61 -59 155 -59q41 0 70 22q21 16 30 16q21 0 20 -21q-2 -35 -59 -55.5t-153 -20.5q-136 0 -188 50.5t-142 270.5l-53 129l-74 179l-225 -314q-103 -144 -103 -188q0 -33 29 -56.5t74 -28.5q46 -5 46 -22q0 -20 -27 -20q-14 0 -34 2
q-74 9 -160 9q-80 0 -162 -8q-26 -3 -35 -3q-29 0 -30 18q-1 14 24 22q123 40 280 256l295 405l-129 307q-61 148 -120.5 214t-131.5 66q-65 0 -105.5 -44t-40.5 -114q0 -59 15.5 -87.5t49.5 -32.5q30 -4 29 -29q-2 -35 -38 -35q-46 0 -79 59.5t-33 142.5q0 104 66 171
t168 67q121 0 200.5 -80t162.5 -285l78 -191l228 310q66 90 66 132q0 55 -76 62q-39 4 -39 26q0 19 25 19q12 0 30 -2q65 -8 142 -8q69 0 115 5l29 3l15 1q10 1 15 1q30 0 28 -20q-1 -15 -37 -23q-67 -15 -131 -83t-250 -321z" />
    <glyph glyph-name="Y" unicode="Y" horiz-adv-x="1151" 
d="M685 535l-40 -326q-4 -34 -4 -59q0 -90 94 -108q57 -11 57 -28q0 -21 -31 -21q-12 0 -30 2q-66 9 -144 9q-69 0 -117 -5l-28 -3q-24 -3 -31 -3q-37 0 -37 20q0 15 36 25q54 14 69 37.5t26 108.5l45 372q4 33 4 39q-1 26 -19 63l-17 34l-234 486q-42 88 -74.5 118.5
t-87.5 32.5q-44 2 -44 23q0 20 30 20q13 0 33 -2q71 -8 156 -8q76 0 128 5l31 3q25 2 33 2q35 0 35 -21q0 -18 -38 -22q-62 -7 -62 -57q0 -43 33 -115l189 -412l10 -21q5 -11 12 -12t21 17l48 66q14 18 110 167l104 162q61 95 61 135q0 64 -88 64q-46 0 -46 27q0 22 33 22
q11 0 27 -2q60 -8 132 -8q64 0 107 5l26 3q23 2 28 2q26 0 26 -21q0 -17 -35 -25q-49 -12 -77.5 -42.5t-112.5 -162.5q-34 -53 -87 -131q-79 -116 -97 -144q-70 -106 -93 -137q-39 -49 -50.5 -78.5t-19.5 -95.5z" />
    <glyph glyph-name="Z" unicode="Z" horiz-adv-x="1088" 
d="M316 131h515q141 0 141 56q0 25 -42 32q-59 10 -59 65q0 31 23.5 52.5t58.5 21.5q39 0 64 -31.5t25 -81.5q0 -103 -93.5 -181.5t-210.5 -72.5l-379 18l-140 -9l-99 -7h-9q-31 0 -31 18q0 14 37 55q35 38 115 168q50 82 169 249q151 214 300 446l128 197q38 60 38 77
q0 18 -26 18q-44 0 -86 3l-157 11q-62 4 -117 4q-134 0 -216 -55t-82 -145q0 -64 30 -82l30 -18q13 -7 13 -17q1 -22 -39 -22q-83 0 -83 128q0 152 107 249t275 97q25 0 51 -2l269 -20l70 -6q19 -1 36 -1q22 0 53 5q31 6 41 6q22 0 21 -20q-1 -9 -24 -47l-28 -44l-716 -1066
q-16 -24 -15 -33q1 -15 42 -15z" />
    <glyph glyph-name="bracketleft" unicode="[" horiz-adv-x="512" 
d="M68 -180l189 1546q5 42 34 42l23 1l256 10q37 0 37 -29q0 -39 -45 -39h-121q-62 0 -71 -68l-168 -1380q-2 -11 -2 -20q-2 -48 57 -48h120q39 0 37 -32q-2 -36 -47 -36l-254 10h-22q-25 0 -25 21q0 8 2 22z" />
    <glyph glyph-name="backslash" unicode="\" horiz-adv-x="1013" 
d="M911 -236l-722 1600l-16 34q-11 24 -11 32q0 20 54 20q22 0 33 -23l712 -1580q20 -44 37 -80q5 -11 5 -20q0 -18 -46 -18q-30 0 -46 35z" />
    <glyph glyph-name="bracketright" unicode="]" horiz-adv-x="512" 
d="M494 1366l-189 -1546q-5 -43 -35 -43h-22l-256 -10q-38 0 -38 29q0 39 46 39h120q63 0 71 68l169 1380q1 10 1 20q0 48 -56 48h-121q-38 0 -36 32q2 36 47 36l253 -10h22q25 0 25 -21q0 -13 -1 -22z" />
    <glyph glyph-name="asciicircum" unicode="^" 
d="M1071 590h-64l-439 670l-445 -670h-171l561 844h12z" />
    <glyph glyph-name="underscore" unicode="_" 
d="M54 -179h917v-71h-917v71z" />
    <glyph glyph-name="grave" unicode="`" horiz-adv-x="922" 
d="M438 1153l104 -168q14 -22 14 -32q0 -20 -16 -20q-14 0 -40 16l-140 91q-59 38 -59 81q0 31 21 53.5t51 22.5q37 0 65 -44z" />
    <glyph glyph-name="a" unicode="a" horiz-adv-x="925" 
d="M571 214q-174 -228 -357 -228q-73 0 -119.5 56t-46.5 145q0 118 56 251.5t145 230.5q133 143 278 143q51 0 112 -19q22 -7 36 -7q30 0 74 69q21 34 33 33t12 -19q0 -8 -3 -17q-2 -7 -13 -56l-23 -109q-21 -94 -41 -241t-20 -201q0 -124 39 -124q20 0 51.5 33t48.5 71
q14 33 30 33q17 0 17 -21q0 -64 -79.5 -153t-135.5 -89q-39 0 -58 45t-36 174zM528 770q-106 0 -202 -120q-63 -79 -107 -199.5t-44 -214.5q0 -149 134 -149q85 0 173 90.5t101 191.5q7 56 15 94l18 90q16 75 23 101q7 28 7 50q0 25 -37 45.5t-81 20.5z" />
    <glyph glyph-name="b" unicode="b" horiz-adv-x="862" 
d="M286 618q64 99 147 152t176 53q92 0 149.5 -68.5t57.5 -178.5q0 -192 -134 -379q-70 -98 -163.5 -154.5t-187.5 -56.5q-98 0 -155 45t-57 123q0 48 7 101l124 1011q5 44 5 55q0 34 -53 34h-48q-40 0 -39 19q1 21 39 23q116 7 161 17q30 6 47 6q19 0 19 -23q0 -6 -1 -12z
M257 382l-19 -154q-4 -34 -4 -66q0 -122 122 -122q123 0 230.5 146.5t107.5 313.5q0 103 -45 162t-125 59q-105 0 -176 -90t-91 -249z" />
    <glyph glyph-name="c" unicode="c" horiz-adv-x="708" 
d="M585 650l-58 61q-47 49 -101 49q-105 0 -175 -112.5t-70 -279.5q0 -134 58.5 -207.5t165.5 -73.5q106 0 184 69l37 32q8 8 17 8q12 1 12 -12q0 -24 -44 -73q-113 -125 -288 -125q-124 0 -193 80.5t-69 225.5q0 206 128 367t291 161q81 0 142 -36t61 -83q0 -28 -18 -49
t-43 -21q-19 0 -37 19z" />
    <glyph glyph-name="d" unicode="d" horiz-adv-x="884" 
d="M543 195q-111 -209 -284 -209q-96 0 -150.5 69t-54.5 190q0 213 136 389.5t299 176.5q53 0 125 -35l60 490q5 40 5 55q0 34 -54 34h-49q-40 0 -39 19q1 21 39 23q115 7 164 17q29 6 46 6q19 0 19 -23q0 -7 -1 -12l-134 -1091q-7 -61 -7 -99q0 -89 48 -89q54 0 106 85
l18 30q11 16 21 16q15 0 15 -16q0 -46 -55 -121q-75 -104 -160 -104q-53 0 -75 31.5t-33 120.5q-2 16 -5 47zM568 406l32 256q2 17 2 27q0 82 -120 82q-94 0 -178 -100q-57 -69 -95.5 -179t-38.5 -207q0 -91 40.5 -145.5t107.5 -54.5q95 0 169 90q62 77 81 231z" />
    <glyph glyph-name="e" unicode="e" horiz-adv-x="714" 
d="M174 397q-5 -43 -5 -69q0 -102 68 -173t166 -71q124 0 198 75q23 23 30 23q14 0 14 -19q0 -33 -71 -89q-114 -88 -254 -88q-122 0 -193.5 76.5t-71.5 208.5q0 202 134.5 375.5t290.5 173.5q76 0 124.5 -41t48.5 -106q0 -119 -157 -208q-120 -68 -322 -68zM179 433
q151 0 254 69.5t103 172.5q0 93 -94 93q-82 0 -164 -99q-71 -87 -99 -236z" />
    <glyph glyph-name="f" unicode="f" horiz-adv-x="541" 
d="M248 738h-132q-49 0 -49 28q0 40 57 40h134l4 26q47 274 171 438q51 68 96.5 95t109.5 27q40 0 55 -9t15 -34q0 -125 -24 -125q-9 0 -17 10l-24 26q-36 42 -91 42q-56 0 -98 -108.5t-80 -350.5l-5 -37h150q48 0 48 -27q0 -41 -56 -41h-151l-92 -744q-20 -167 -94 -245
q-84 -90 -169 -90q-51 0 -51 41q0 39 17.5 85t31.5 46q12 0 16 -23q12 -69 52 -69q50 0 67 137l8 68l56 458q21 170 45 336z" />
    <glyph glyph-name="g" unicode="g" horiz-adv-x="723" 
d="M570 748q53 -102 53 -186q0 -133 -79 -227.5t-191 -94.5q-40 0 -89 16q-13 4 -20 4q-44 0 -44 -58q0 -73 125 -112l158 -51q189 -60 189 -194q0 -88 -83 -141t-219 -53q-169 0 -272.5 63.5t-103.5 168.5q0 75 47 123.5t131 59.5q-32 43 -32 99q0 58 51 103q9 7 9 12
l-7 14q-74 87 -74 215q0 125 79.5 218t185.5 93q34 0 102 -17q61 -16 92 -16q47 0 83 15l45 18q15 6 28 6q14 0 26 -13.5t13 -29.5q1 -26 -22 -44.5t-55 -18.5q-45 0 -126 28zM383 782q-68 0 -112 -82t-44 -209q0 -96 35 -152.5t94 -56.5q71 0 117 81t46 206q0 94 -38 153.5
t-98 59.5zM193 39q-52 -12 -81.5 -48t-29.5 -88q0 -91 74.5 -150t190.5 -59q100 0 160 31.5t60 84.5q0 75 -139 125l-130 48q-62 23 -105 56z" />
    <glyph glyph-name="h" unicode="h" horiz-adv-x="921" 
d="M292 641q151 178 284 178q75 0 118 -56t43 -152q0 -40 -3 -66l-28 -253q-5 -41 -5 -85q0 -89 46 -89q67 0 125 102q12 21 25 21q16 0 16 -18q0 -46 -57 -123q-80 -107 -179 -107q-90 0 -90 190q0 35 3 85l19 277q2 37 2 56q0 116 -91 116q-89 0 -165 -72
q-69 -65 -86 -201l-50 -401l-1 -11q-5 -39 -63 -39q-53 0 -53 32v7l1 11l150 1223q5 41 6 55q2 34 -55 34h-50q-41 0 -40 19q1 22 40 23q113 6 166 17q29 6 46 6q20 0 19 -23q0 -5 -1 -12z" />
    <glyph glyph-name="i" unicode="i" horiz-adv-x="502" 
d="M177 410l42 248q5 27 5 49q0 40 -59 40h-54q-44 0 -43 20q1 23 43 23q92 0 178 17q33 6 51 6q21 0 21 -24l-1 -11l-56 -276q-42 -205 -42 -312q0 -60 31 -62q45 -3 89 83q11 23 24 23q16 0 15 -21q-4 -65 -77 -142.5t-130 -77.5q-30 0 -49 44.5t-19 114.5q0 79 31 258z
M348 1222q9 -1 17 -18q16 -31 20 -36l22 -33q9 -13 9 -20q0 -9 -15 -23q-22 -22 -53 -61q-12 -15 -22 -15q-12 0 -21 19q-21 44 -37 65q-9 13 -9 21q0 11 10 22l28 29q5 5 26 33q15 18 25 17z" />
    <glyph glyph-name="j" unicode="j" horiz-adv-x="470" 
d="M144 -108l94 766q5 40 6 55q2 34 -55 34h-49q-40 0 -39 20q2 21 39 23q120 7 164 17q30 6 47 6q19 0 19 -23q0 -5 -1 -12l-99 -803q-19 -161 -98 -243q-78 -81 -160 -81q-35 0 -47 11t-15 45l-4 41q-1 14 -1 27q0 27 18 27q17 0 38 -28q41 -53 70 -53q52 0 73 171z
M346 1222q9 -1 17 -18q16 -30 20 -36l22 -33q9 -13 9 -20q0 -9 -15 -23q-24 -24 -54 -61q-11 -15 -21 -15q-12 0 -21 19q-21 44 -37 65q-9 13 -9 21q0 11 10 22l28 29q5 5 26 33q15 18 25 17z" />
    <glyph glyph-name="k" unicode="k" horiz-adv-x="863" 
d="M249 295l-31 -252l-1 -11q-5 -39 -63 -39q-53 0 -53 31q0 12 1 19l150 1223q5 41 5 56q0 33 -54 33h-50q-40 0 -39 19q1 22 39 23q116 6 165 17q28 6 47 6q16 0 18 -23v-12l-115 -939q-1 -7 -2 -13l-1 -9q0 -14 9 -15q6 -1 23 12l13 10l61 44q167 122 213 247
q21 59 38.5 78t50.5 19q57 0 57 -62q0 -92 -222 -247q-47 -33 -48 -42q0 -6 9 -17q26 -32 51 -77l112 -198q25 -44 49 -44q21 0 50.5 25.5t47.5 58.5q20 39 35 38t15 -21q0 -67 -62.5 -153.5t-111.5 -86.5q-46 0 -84 67l-177 314q-16 29 -29 29q-11 0 -26 -9l-38 -21
q-46 -25 -52 -78z" />
    <glyph glyph-name="l" unicode="l" horiz-adv-x="463" 
d="M131 247l125 1019q5 42 6 54q2 35 -56 35h-51q-41 0 -40 19q1 22 40 23q116 6 168 17q29 6 46 6q19 0 19 -23l-1 -12l-142 -1159q-5 -37 -5 -54q0 -56 38 -56q33 0 71 34.5t67 89.5q11 21 23 21q20 0 20 -21q0 -15 -24.5 -59.5t-48.5 -75.5q-38 -47 -88.5 -79.5
t-86.5 -32.5q-86 0 -86 163q0 41 6 91z" />
    <glyph glyph-name="m" unicode="m" horiz-adv-x="1383" 
d="M316 609q69 97 153 150.5t168 53.5q125 0 125 -166v-38q64 94 141.5 149t147.5 55t112 -59.5t42 -159.5q0 -37 -3 -73l-25 -320l-4 -42l4 -19q9 -23 33 -23q49 0 99 78q11 17 24 17q19 0 19 -24q0 -35 -60 -104q-79 -91 -158 -91q-77 0 -77 140q0 24 3 68l23 320
q2 29 2 51q0 156 -106 156q-74 0 -132 -104.5t-79 -274.5l-38 -306q-4 -30 -17.5 -40t-51.5 -10q-49 0 -49 32l2 18l54 445q5 39 5 91q0 69 -32.5 110t-87.5 41q-77 0 -141.5 -101t-82.5 -247l-41 -339q-4 -30 -17.5 -40t-51.5 -10q-49 0 -49 32q0 5 2 18l58 478q4 30 4 51
q0 98 -43 101q-44 3 -83 -89q-9 -23 -19 -22q-16 1 -16 30q0 66 56.5 142.5t105.5 76.5q81 0 81 -202z" />
    <glyph glyph-name="n" unicode="n" horiz-adv-x="961" 
d="M319 615q68 92 153.5 145t163.5 53q62 0 103.5 -64t41.5 -161q0 -56 -7 -143l-21 -260q-1 -10 -1 -19q0 -52 29 -52q50 0 96 67q20 30 36 30q18 0 17 -20q-3 -54 -84.5 -126.5t-139.5 -72.5q-71 0 -71 132q0 30 4 82l25 307q2 20 2 45q0 78 -29.5 124.5t-78.5 46.5
q-85 0 -147.5 -103.5t-83.5 -279.5l-38 -303q-3 -30 -17 -40t-52 -10q-51 0 -49 32l2 18l32 259q7 60 15 119q14 103 14 156q0 98 -45 98q-17 0 -40.5 -24.5t-34.5 -54.5q-13 -37 -28 -37q-20 0 -20 28q0 68 59.5 145.5t112.5 77.5q36 0 58.5 -43t22.5 -112v-40z" />
    <glyph glyph-name="o" unicode="o" horiz-adv-x="818" 
d="M465 820q133 0 212 -88.5t79 -237.5q0 -211 -118 -359.5t-286 -148.5q-127 0 -206.5 94.5t-79.5 244.5q0 111 46.5 224.5t118.5 179.5q99 91 234 91zM468 771q-114 0 -190.5 -129t-76.5 -320q0 -280 170 -280q103 0 177.5 137.5t74.5 329.5q0 262 -155 262z" />
    <glyph glyph-name="p" unicode="p" horiz-adv-x="895" 
d="M356 798q95 16 149 16q155 0 245 -73.5t90 -198.5q0 -111 -54.5 -228t-141.5 -193q-130 -115 -284 -115q-32 0 -48 3q-21 3 -29 3q-23 0 -26 -25l-4 -23l-18 -151q-2 -12 -2 -34q0 -39 18 -53t79 -22l31 -5q30 -4 30 -21q0 -27 -39 -27q-25 0 -47 3l-17 3q-33 5 -92 5
t-92 -5l-22 -3q-18 -2 -29 -2q-41 0 -41 28q0 17 27 23q47 10 59.5 29t21.5 93l110 895q-41 -12 -68 -22l-28 -12l-13 -4q-9 -4 -15 -4q-10 0 -11 10l1 8l5 15q4 11 28 18q7 3 44 18q15 6 39 14l24 9l5 40q18 150 46.5 201t94.5 51q22 0 22 -18q0 -11 -12 -47
q-19 -57 -26 -110zM349 745l-74 -601q-2 -18 -2 -36q0 -51 86 -51q142 0 243 133t101 319q0 117 -70 180.5t-199 63.5q-35 0 -85 -8z" />
    <glyph glyph-name="q" unicode="q" horiz-adv-x="894" 
d="M614 248q-88 -133 -174.5 -192t-191.5 -59q-89 0 -143 60.5t-54 161.5q0 208 166 405t341 197q68 0 112 -22q17 -8 26 -9q19 -2 36 34l44 86q16 30 31 30q18 0 18 -18q0 -12 -7 -30q-12 -33 -20 -100l-8 -67l-10 -71l-104 -851q-3 -24 -3 -36q0 -37 14 -50t57 -17l28 -3
q35 -3 35 -23q0 -22 -29 -22q-6 0 -26 2q-66 8 -142 8q-68 0 -114 -5l-29 -3l-15 -1q-10 -1 -15 -1q-23 0 -23 20q0 16 54 31q49 13 68 36.5t25 76.5zM646 505l11 89l5 50q2 23 2 31q0 39 -39.5 67t-93.5 28q-110 0 -211 -122q-59 -72 -99 -179t-40 -194t39.5 -137
t108.5 -50q109 0 212 133q83 107 105 284z" />
    <glyph glyph-name="r" unicode="r" horiz-adv-x="598" 
d="M315 608q110 205 232 205q70 0 70 -48q0 -12 -6 -31q-7 -22 -8 -28l-12 -48q-7 -33 -30 -34q-12 -1 -21 22q-23 57 -71 57q-47 0 -81 -102t-61 -324l-29 -234l-1 -11q-4 -39 -63 -39q-53 0 -53 32q0 7 1 18l49 391q4 33 4 80q0 148 -68 148q-30 0 -55 -33t-32 -81
q-5 -38 -24 -38q-23 0 -23 48q0 102 51 168q24 31 59 56t56 25q65 0 116 -199z" />
    <glyph glyph-name="s" unicode="s" horiz-adv-x="593" 
d="M290 555l142 -153q67 -73 67 -174t-80 -171.5t-195 -70.5q-87 0 -148.5 36t-61.5 87q0 63 60 63q35 0 65 -50l21 -37q28 -48 82 -48q59 0 102.5 37.5t43.5 88.5q0 81 -80 164l-112 116q-77 80 -77 171q0 97 65.5 151.5t180.5 54.5q160 0 160 -93q0 -62 -62 -62
q-31 0 -52 31l-22 31q-31 46 -83 46q-86 0 -86 -94q0 -48 70 -124z" />
    <glyph glyph-name="t" unicode="t" horiz-adv-x="574" 
d="M325 687l-50 -404q-3 -28 -3 -60q0 -48 24 -80t60 -32q64 0 133 74q18 20 31 20q16 0 16 -16q0 -55 -92.5 -125.5t-164.5 -70.5q-57 0 -92 53t-35 138q0 39 7 99l47 382q3 23 6 37q1 8 1 13q-1 22 -34 22h-56q-23 0 -23 17q0 20 42 42q109 59 174 162q16 26 33 26
q22 0 22 -19q0 -10 -6 -28q-2 -7 -10 -38l-7 -33l-6 -26q-2 -9 -2 -14q0 -24 40 -24h9l137 4q34 0 34 -26q0 -43 -51 -43l-119 5h-14q-28 0 -37.5 -10t-13.5 -45z" />
    <glyph glyph-name="u" unicode="u" horiz-adv-x="968" 
d="M639 410q-127 -196 -199 -272q-54 -56 -121.5 -98t-104.5 -42q-32 0 -52 33.5t-20 86.5q0 80 24 206l40 207q15 76 15 108q0 38 -21 39q-19 1 -46 -27.5t-43 -68.5q-15 -34 -32 -34q-19 0 -19 24q0 80 68.5 161.5t136.5 81.5q79 0 79 -126q0 -32 -6 -68l-57 -345
q-2 -17 -7 -50l-5 -44q-2 -16 -2 -29q0 -42 30 -42q33 0 100.5 67t137.5 170q127 185 183 399q10 37 21 48t38 11q53 0 53 -41q0 -11 -3 -25l-50 -232q-49 -225 -49 -337q0 -49 40 -49q59 0 118 111q13 25 28 25q20 0 20 -22q0 -73 -91.5 -158t-171.5 -85q-68 0 -68 105
q0 79 18 189l10 57q3 17 8 66z" />
    <glyph glyph-name="v" unicode="v" horiz-adv-x="801" 
d="M359 609l-33 -270q-3 -23 -3 -56q0 -175 86 -175q41 0 91 41.5t90 108.5q98 165 98 350q0 42 -27 111q-8 22 -8 33q0 22 17 38.5t40 16.5q58 0 58 -95q0 -110 -39.5 -245t-98.5 -228q-62 -99 -154 -176t-147 -77q-47 0 -80 71t-33 170v25q0 7 -2 16q-4 14 -28 17
q-131 19 -131 196q0 118 72 225t152 107q83 0 83 -148q0 -30 -3 -56zM219 669q-19 3 -63 -59q-56 -78 -56 -153q0 -48 22.5 -82.5t53.5 -34.5q23 0 31 19.5t16 91.5q3 24 9 65l6 44q5 38 5 58q0 47 -24 51z" />
    <glyph glyph-name="w" unicode="w" horiz-adv-x="1241" 
d="M655 346q-84 -162 -132 -222q-111 -138 -199 -138q-45 0 -77.5 72t-32.5 173v21l-1 21q0 19 -20 19q-61 0 -100.5 52t-39.5 132q0 115 72 226t146 111q82 0 82 -190q0 -33 -5 -79l-21 -174q-4 -38 -4 -72q0 -83 19.5 -137.5t49.5 -54.5q35 0 88.5 55.5t92.5 131.5
q83 162 114 371l14 91q7 48 35 50q72 4 72 -33q0 -10 -2 -26l-8 -55q-34 -227 -34 -366q0 -98 24.5 -162.5t61.5 -64.5q34 0 88 51.5t95 122.5q99 173 99 316q0 61 -25 128q-9 24 -9 33q0 23 20.5 41t46.5 18q44 0 44 -91q0 -165 -79.5 -350.5t-193.5 -285.5
q-107 -94 -162 -94t-87 96.5t-32 262.5zM209 659q-29 4 -64 -67t-35 -132q0 -47 19 -77.5t49 -30.5q26 0 35 21t14 93l3 48l4 49q1 16 1 31q0 61 -26 65z" />
    <glyph glyph-name="x" unicode="x" horiz-adv-x="757" 
d="M434 468q11 -27 12 -32l35 -102q43 -124 85 -202q40 -74 101 -74q11 0 20 2q26 4 32 4q23 0 23 -20t-38.5 -34t-93.5 -14q-97 0 -138 35.5t-73 148.5l-43 148l-37 -68l-57 -107q-94 -167 -218 -167q-27 0 -46 18t-19 45t19 47t45 20q14 0 26 -4q43 -13 48 -13
q54 -3 143 161l74 135l-65 168l-23 56q-24 58 -62 58q-51 0 -66 -66l-6 -31q-5 -21 -24 -21t-19 33q0 86 43.5 153.5t99.5 67.5q97 0 195 -283l44 84q48 91 108 145t113 54q28 0 47.5 -19.5t19.5 -47.5q0 -59 -55 -59q-11 0 -39 8q-19 5 -32 5q-30 0 -69 -39.5t-66 -97.5z
" />
    <glyph glyph-name="y" unicode="y" horiz-adv-x="724" 
d="M503 257q62 192 62 334q0 47 -23 95q-20 41 -20 66q0 61 51 61q32 0 52.5 -34t20.5 -89q0 -82 -41 -268.5t-86 -311.5q-85 -235 -178 -346.5t-205 -111.5q-49 0 -86.5 29.5t-37.5 68.5q0 61 51 61q27 0 64 -26q43 -31 70 -31q77 0 167 144q68 108 68 172q0 37 -35.5 142
t-81.5 204q-116 253 -190 253q-66 0 -85 -90l-7 -32q-3 -17 -17 -17q-19 0 -19 44q0 96 43 164t103 68q62 0 140.5 -105t156.5 -293z" />
    <glyph glyph-name="z" unicode="z" horiz-adv-x="729" 
d="M265 190q92 -62 132 -103.5t93 -131.5q37 -61 52.5 -77t38.5 -16q36 0 57 52q18 47 46 47q43 0 43 -47q0 -36 -55 -71t-111 -35q-53 0 -93.5 27t-110.5 109q-114 133 -163 133q-31 0 -69 -59q-16 -24 -37 -24q-29 0 -28 28q1 18 34 52q29 30 60 67l355 434
q-104 20 -198 80q-65 42 -100 42q-24 0 -41 -21t-17 -50q0 -34 31 -63q13 -13 13 -23q0 -17 -16 -18q-26 -1 -52.5 43t-26.5 87q0 66 42.5 113.5t100.5 47.5q41 0 147 -52q137 -68 192 -68q36 0 48 44l9 33q10 36 39 36q38 0 36 -38q-1 -26 -51 -88z" />
    <glyph glyph-name="braceleft" unicode="{" horiz-adv-x="526" 
d="M103 48l34 278q8 65 8 87q0 90 -84 159q-15 12 -15 20q0 10 20 24q67 45 96 97t41 149l34 278q17 137 80 208.5t167 71.5h63q60 0 60 -20t-40 -26q-107 -15 -150.5 -69.5t-60.5 -195.5l-33 -271q-19 -149 -106 -211l-22 -15q-16 -12 -17 -18t13 -18l18 -15
q57 -49 57 -161q0 -24 -3 -50l-34 -271q-6 -52 -6 -104q0 -146 159 -165q29 -4 28 -20q-2 -22 -66 -22h-63q-83 0 -133 52.5t-50 139.5q0 49 5 88z" />
    <glyph glyph-name="bar" unicode="|" 
d="M469 1365h87v-1706h-87v1706z" />
    <glyph glyph-name="braceright" unicode="}" horiz-adv-x="526" 
d="M472 1140l-34 -278q-7 -61 -7 -88q0 -89 83 -158q15 -12 15 -20q0 -10 -20 -24q-66 -44 -95.5 -97t-40.5 -149l-34 -278q-17 -137 -80 -208.5t-167 -71.5h-64q-60 0 -60 20t40 26q108 15 151 69.5t60 195.5l34 271q18 149 105 211l22 16q16 11 17 17t-13 18l-18 15
q-56 48 -56 162q0 28 3 49l33 271q7 58 7 104q0 146 -159 165q-29 4 -28 20q2 22 65 22h63q84 0 134 -52.5t50 -139.5q0 -44 -6 -88z" />
    <glyph glyph-name="asciitilde" unicode="~" horiz-adv-x="1365" 
d="M1095 1502l25 -16q-51 -85 -127.5 -137t-151.5 -52q-45 0 -134 30q-174 57 -240 57q-58 0 -96 -24t-100 -100l-25 17q124 190 283 190q60 0 193 -45q110 -37 161 -37q119 0 212 117z" />
    <glyph glyph-name="Adieresis" unicode="&#xc4;" horiz-adv-x="1303" 
d="M853 494h-413q-47 0 -60 -5t-24 -29l-128 -256q-30 -60 -30 -96q0 -51 69 -66q67 -14 66 -34q-1 -15 -30 -15q-11 0 -26 2q-57 9 -128 9q-66 0 -131 -8q-21 -3 -33 -3q-31 0 -31 20q0 19 30 28l39 10q52 14 93 98l32 68l574 1119q19 36 38 36q20 0 31 -36l326 -1042
l29 -86q31 -98 50.5 -124t72.5 -43q29 -8 29 -25q0 -23 -41 -23q-11 0 -27 2q-59 9 -131 9q-64 0 -107 -5l-26 -3q-21 -3 -28 -3q-40 0 -40 21q0 15 46 27q76 19 76 76q0 39 -15 87l-70 218l-11 34q-8 27 -19 32.5t-52 5.5zM857 665l-131 413q-7 23 -9 33q-5 22 -15 21
q-6 -1 -16 -23q-6 -14 -15 -31l-234 -451l-10 -19q-4 -9 -4 -16q0 -11 18 -11h373q62 0 62 24q0 8 -7 25q-5 14 -12 35zM627 1738q10 -1 19 -19q17 -35 21 -40l25 -36q9 -13 9 -21q0 -9 -16 -25q-28 -28 -58 -66q-13 -16 -23 -16q-13 0 -23 21q-22 45 -40 70q-10 14 -10 23
q1 12 11 23l30 32q6 6 29 35q15 20 26 19zM967 1738q10 -1 19 -19q17 -35 21 -40l25 -36q9 -13 9 -21q0 -9 -16 -25q-27 -26 -58 -66q-13 -16 -23 -16q-13 0 -23 21q-21 45 -40 70q-10 14 -10 23q1 12 11 23l30 32q7 8 29 35q15 20 26 19z" />
    <glyph glyph-name="Aring" unicode="&#xc5;" horiz-adv-x="1303" 
d="M853 494h-413q-47 0 -60 -5t-24 -29l-128 -256q-30 -60 -30 -96q0 -51 69 -66q67 -14 66 -34q-1 -15 -30 -15q-11 0 -26 2q-57 9 -128 9q-66 0 -131 -8q-21 -3 -33 -3q-31 0 -31 20q0 19 30 28l39 10q52 14 93 98l32 68l574 1119q19 36 38 36q20 0 31 -36l326 -1042
l29 -86q31 -98 50.5 -124t72.5 -43q29 -8 29 -25q0 -23 -41 -23q-11 0 -27 2q-59 9 -131 9q-64 0 -107 -5l-26 -3q-21 -3 -28 -3q-40 0 -40 21q0 15 46 27q76 19 76 76q0 39 -15 87l-70 218l-11 34q-8 27 -19 32.5t-52 5.5zM857 665l-131 413q-7 23 -9 33q-5 22 -15 21
q-6 -1 -16 -23q-6 -14 -15 -31l-234 -451l-10 -19q-4 -9 -4 -16q0 -11 18 -11h373q62 0 62 24q0 8 -7 25q-5 14 -12 35zM778 1777q76 0 129 -43t53 -105t-53 -105t-129 -43q-78 0 -131.5 42.5t-53.5 105.5t53 105.5t132 42.5zM775 1726q-40 0 -67.5 -28t-27.5 -69
q0 -42 27.5 -70t67.5 -28q43 0 70.5 27.5t27.5 70.5q0 42 -27.5 69.5t-70.5 27.5z" />
    <glyph glyph-name="Ccedilla" unicode="&#xc7;" horiz-adv-x="1343" 
d="M746 -20l-44 -121q139 -17 139 -118q0 -59 -49 -99t-120 -40q-56 0 -112.5 36.5t-56.5 73.5q0 21 14 20q7 -1 16 -7q65 -48 108 -48q28 0 49.5 23t21.5 52q0 43 -66 73l58 155q-274 14 -429.5 186.5t-155.5 464.5q0 330 190 542.5t485 212.5q241 0 432 -128
q16 -11 26 -11q6 0 12 6l15 13q8 7 19 7q20 0 20 -34v-95l14 -150q2 -24 2 -37q0 -36 -21 -36q-23 0 -35 48q-36 146 -150 236q-155 122 -333 122q-232 0 -378 -178.5t-146 -461.5t140.5 -466t358.5 -183q148 0 283 88t172 209q19 61 45 61q21 0 21 -40q0 -30 -14 -73
q-21 -64 -28 -109q-4 -27 -22.5 -43.5t-82.5 -49.5q-191 -101 -398 -101z" />
    <glyph glyph-name="Eacute" unicode="&#xc9;" horiz-adv-x="1180" 
d="M228 184l118 972q5 37 5 60q0 89 -94 107q-57 11 -57 28q0 21 31 21q32 0 80 -5q97 -9 373 -9q261 0 381 10q56 4 80 4q28 0 28 -25l-2 -97l4 -150q0 -32 -23 -32q-24 0 -27 41q-6 110 -60 142t-236 32h-80l-180 4q-42 0 -54 -11t-18 -55l-53 -435q-2 -13 -2 -20
q-1 -22 43 -22h279q135 0 166 123q7 24 22 25q20 1 20 -25q0 -34 -13 -96q-14 -75 -19 -178q-4 -74 -9.5 -95.5t-20.5 -21.5q-20 0 -20 26l-2 45q0 110 -156 110h-239q-46 0 -56 -6.5t-14 -39.5l-53 -428q-1 -12 -1 -23q0 -49 30.5 -64t130.5 -15q441 0 546 160q25 37 41 37
q19 0 19 -22q0 -31 -31.5 -89t-71.5 -103q-41 -44 -79.5 -57.5t-125.5 -13.5q-42 0 -174 8q-97 6 -189 6q-104 0 -192 -7q-87 -7 -139 -7q-37 0 -37 20q0 15 36 25q54 14 69 37.5t26 108.5zM675 1577l143 112q49 38 79 38t53 -25.5t23 -57.5q0 -62 -84 -81l-186 -41l-20 -4
q-11 -2 -20 -2q-22 1 -22 20q0 12 16 26z" />
    <glyph glyph-name="Ntilde" unicode="&#xd1;" horiz-adv-x="1456" 
d="M240 313l91 631q12 79 12 155q0 86 -54.5 149.5t-129.5 63.5q-15 0 -27 -3q-13 -2 -22 -2q-22 1 -22 18q0 15 31.5 29t67.5 14l92 -4l67 -1q40 0 61 -29l229 -323q116 -163 242 -364l222 -353l12 -17q12 -17 17 -17q16 0 23 65q2 13 8 45q34 185 68.5 463t34.5 370
q0 107 -102 121q-53 7 -54 29q-1 19 37 19q12 0 26 -2q55 -8 124 -8q61 0 101 5l25 3q21 2 29 2q38 0 38 -24q0 -15 -36 -20q-64 -9 -83.5 -54t-38.5 -229q-52 -492 -130 -908q-20 -108 -26.5 -126t-28.5 -18q-15 0 -30 23l-230 362l-122 188q-119 183 -143 218l-150 215
q-10 14 -16 23q-12 20 -19 19q-13 -2 -19 -43l-92 -754q-8 -68 -8 -93q0 -94 102 -106q49 -6 49 -27q0 -25 -44 -25q-12 0 -28 2q-61 9 -136 9q-65 0 -110 -5l-27 -3q-22 -3 -29 -3q-25 0 -25 18q0 19 44 32q55 18 77.5 51t35.5 116zM810 1694q31 0 56 -14l28 -15
q45 -24 80 -24q48 0 90 37q27 24 35 24q13 0 13 -16q0 -26 -46 -84q-62 -77 -134 -77q-35 0 -93 34q-46 26 -85 26q-41 0 -77 -41q-17 -18 -28 -18q-17 0 -17 14q0 23 35 66q73 88 143 88z" />
    <glyph glyph-name="Odieresis" unicode="&#xd6;" horiz-adv-x="1511" 
d="M826 1386q277 0 458.5 -186.5t181.5 -469.5q0 -248 -128 -450q-190 -300 -578 -300q-296 0 -470.5 171.5t-174.5 461.5q0 321 208 547t503 226zM798 1332q-225 0 -375 -195.5t-150 -488.5q0 -265 141.5 -437t359.5 -172q232 0 379 198.5t147 511.5q0 308 -178 460
q-146 123 -324 123zM749 1738q10 -1 19 -19q17 -35 21 -40l25 -36q9 -14 9 -21q0 -9 -16 -25q-28 -27 -58 -66q-13 -16 -23 -16q-13 0 -23 21q-21 45 -40 70q-10 14 -10 23q0 12 11 23l30 32q5 5 29 35q15 20 26 19zM1089 1738q10 -1 19 -19q17 -35 21 -40l25 -36
q9 -13 9 -21q0 -9 -16 -25q-29 -28 -58 -66q-13 -16 -23 -16q-13 0 -23 21q-22 45 -40 70q-10 14 -10 23q1 12 11 23l30 32q8 9 29 35q15 20 26 19z" />
    <glyph glyph-name="Udieresis" unicode="&#xdc;" horiz-adv-x="1478" 
d="M1296 1002l19 154q4 36 4 60q0 89 -94 107q-57 11 -57 28q0 21 31 21q10 0 25 -2q55 -8 123 -8q60 0 99 5l25 3q21 2 26 2q36 0 36 -19q0 -16 -36 -25q-54 -14 -70.5 -38t-28.5 -109l-87 -580q-49 -330 -199 -475.5t-442 -145.5q-232 0 -354 107q-104 91 -104 299
q0 52 6 118l60 677q4 48 4 69q0 58 -69 78l-15 4q-15 4 -15 16q0 24 42 24q11 0 25 -2q54 -8 120 -8q60 0 99 5l24 3q20 2 25 2q37 0 37 -20q0 -15 -20 -20l-16 -5q-54 -15 -69 -38t-25 -108l-29 -238q-16 -127 -20 -182l-15 -199q-7 -102 -7 -165q0 -166 91.5 -257
t257.5 -91q204 0 342 115q78 65 116 149.5t69 265.5l35 202q11 64 31 221zM732 1738q10 -1 19 -19q17 -35 21 -40l25 -36q9 -13 9 -21q0 -9 -16 -25q-27 -26 -58 -66q-13 -16 -23 -16q-13 0 -23 21q-22 45 -40 70q-10 14 -10 23q1 12 11 23l30 32q5 6 29 35q15 20 26 19z
M1072 1738q10 -1 19 -19q19 -36 21 -40l25 -36q9 -13 9 -21q0 -9 -16 -25q-29 -28 -58 -66q-13 -16 -23 -16q-13 0 -23 21q-21 45 -40 70q-10 14 -10 23q1 12 11 23l30 32q7 8 29 35q15 20 26 19z" />
    <glyph glyph-name="aacute" unicode="&#xe1;" horiz-adv-x="925" 
d="M571 214q-174 -228 -357 -228q-73 0 -119.5 56t-46.5 145q0 118 56 251.5t145 230.5q133 143 278 143q51 0 112 -19q22 -7 36 -7q30 0 74 69q21 34 33 33t12 -19q0 -8 -3 -17q-2 -7 -13 -56l-23 -109q-21 -94 -41 -241t-20 -201q0 -124 39 -124q20 0 51.5 33t48.5 71
q14 33 30 33q17 0 17 -21q0 -64 -79.5 -153t-135.5 -89q-39 0 -58 45t-36 174zM528 770q-106 0 -202 -120q-63 -79 -107 -199.5t-44 -214.5q0 -149 134 -149q85 0 173 90.5t101 191.5q7 56 15 94l18 90q16 75 23 101q7 28 7 50q0 25 -37 45.5t-81 20.5zM531 994l106 143
q44 59 83 59q30 0 51.5 -20t21.5 -48q0 -45 -58 -80l-165 -99q-27 -16 -42 -17q-19 -1 -19 19q0 14 22 43z" />
    <glyph glyph-name="agrave" unicode="&#xe0;" horiz-adv-x="925" 
d="M571 214q-174 -228 -357 -228q-73 0 -119.5 56t-46.5 145q0 118 56 251.5t145 230.5q133 143 278 143q51 0 112 -19q22 -7 36 -7q30 0 74 69q21 34 33 33t12 -19q0 -8 -3 -17q-2 -7 -13 -56l-23 -109q-21 -94 -41 -241t-20 -201q0 -124 39 -124q20 0 51.5 33t48.5 71
q14 33 30 33q17 0 17 -21q0 -64 -79.5 -153t-135.5 -89q-39 0 -58 45t-36 174zM528 770q-106 0 -202 -120q-63 -79 -107 -199.5t-44 -214.5q0 -149 134 -149q85 0 173 90.5t101 191.5q7 56 15 94l18 90q16 75 23 101q7 28 7 50q0 25 -37 45.5t-81 20.5zM522 1153l104 -168
q14 -22 14 -32q0 -20 -16 -20q-14 0 -40 16l-140 91q-59 38 -59 81q0 31 21 53.5t51 22.5q37 0 65 -44z" />
    <glyph glyph-name="acircumflex" unicode="&#xe2;" horiz-adv-x="925" 
d="M571 214q-174 -228 -357 -228q-73 0 -119.5 56t-46.5 145q0 118 56 251.5t145 230.5q133 143 278 143q51 0 112 -19q22 -7 36 -7q30 0 74 69q21 34 33 33t12 -19q0 -8 -3 -17q-2 -7 -13 -56l-23 -109q-21 -94 -41 -241t-20 -201q0 -124 39 -124q20 0 51.5 33t48.5 71
q14 33 30 33q17 0 17 -21q0 -64 -79.5 -153t-135.5 -89q-39 0 -58 45t-36 174zM528 770q-106 0 -202 -120q-63 -79 -107 -199.5t-44 -214.5q0 -149 134 -149q85 0 173 90.5t101 191.5q7 56 15 94l18 90q16 75 23 101q7 28 7 50q0 25 -37 45.5t-81 20.5zM645 1220l131 -257
l8 -19q2 -14 -16 -14q-10 0 -17 6l-131 136l-216 -136q-11 -7 -22 -7q-21 0 -20 16q1 8 17 23z" />
    <glyph glyph-name="adieresis" unicode="&#xe4;" horiz-adv-x="925" 
d="M571 214q-174 -228 -357 -228q-73 0 -119.5 56t-46.5 145q0 118 56 251.5t145 230.5q133 143 278 143q51 0 112 -19q22 -7 36 -7q30 0 74 69q21 34 33 33t12 -19q0 -8 -3 -17q-2 -7 -13 -56l-23 -109q-21 -94 -41 -241t-20 -201q0 -124 39 -124q20 0 51.5 33t48.5 71
q14 33 30 33q17 0 17 -21q0 -64 -79.5 -153t-135.5 -89q-39 0 -58 45t-36 174zM528 770q-106 0 -202 -120q-63 -79 -107 -199.5t-44 -214.5q0 -149 134 -149q85 0 173 90.5t101 191.5q7 56 15 94l18 90q16 75 23 101q7 28 7 50q0 25 -37 45.5t-81 20.5zM440 1162
q9 -1 17 -18q16 -31 42 -69q9 -13 9 -20q0 -9 -15 -23q-23 -22 -54 -61q-11 -15 -21 -15q-12 0 -21 19q-21 45 -37 65q-9 13 -9 21q0 11 10 22l28 29q5 5 26 33q15 18 25 17zM725 1162q9 -1 17 -18q16 -31 42 -69q9 -13 9 -20q0 -9 -15 -23q-24 -23 -54 -61q-11 -15 -21 -15
q-12 0 -21 19q-21 44 -37 65q-9 13 -9 21q0 11 10 22l28 29q9 10 27 33q14 18 24 17z" />
    <glyph glyph-name="atilde" unicode="&#xe3;" horiz-adv-x="925" 
d="M571 214q-174 -228 -357 -228q-73 0 -119.5 56t-46.5 145q0 118 56 251.5t145 230.5q133 143 278 143q51 0 112 -19q22 -7 36 -7q30 0 74 69q21 34 33 33t12 -19q0 -8 -3 -17q-2 -7 -13 -56l-23 -109q-21 -94 -41 -241t-20 -201q0 -124 39 -124q20 0 51.5 33t48.5 71
q14 33 30 33q17 0 17 -21q0 -64 -79.5 -153t-135.5 -89q-39 0 -58 45t-36 174zM528 770q-106 0 -202 -120q-63 -79 -107 -199.5t-44 -214.5q0 -149 134 -149q85 0 173 90.5t101 191.5q7 56 15 94l18 90q16 75 23 101q7 28 7 50q0 25 -37 45.5t-81 20.5zM541 1127
q29 0 51 -15l26 -17q40 -26 72 -26q45 0 84 41q25 26 32 26q12 -1 12 -16q0 -25 -43 -84q-58 -77 -120 -77q-35 0 -88 37q-40 29 -77 29q-38 0 -72 -45q-15 -20 -26 -20q-15 0 -15 14q0 22 33 65q68 88 131 88z" />
    <glyph glyph-name="aring" unicode="&#xe5;" horiz-adv-x="925" 
d="M571 214q-174 -228 -357 -228q-73 0 -119.5 56t-46.5 145q0 118 56 251.5t145 230.5q133 143 278 143q51 0 112 -19q22 -7 36 -7q30 0 74 69q21 34 33 33t12 -19q0 -8 -3 -17q-2 -7 -13 -56l-23 -109q-21 -94 -41 -241t-20 -201q0 -124 39 -124q20 0 51.5 33t48.5 71
q14 33 30 33q17 0 17 -21q0 -64 -79.5 -153t-135.5 -89q-39 0 -58 45t-36 174zM528 770q-106 0 -202 -120q-63 -79 -107 -199.5t-44 -214.5q0 -149 134 -149q85 0 173 90.5t101 191.5q7 56 15 94l18 90q16 75 23 101q7 28 7 50q0 25 -37 45.5t-81 20.5zM595 1209
q74 0 125 -41.5t51 -102.5q0 -60 -51.5 -101.5t-124.5 -41.5q-76 0 -127.5 41.5t-51.5 101.5q0 61 51.5 102.5t127.5 41.5zM592 1160q-39 0 -65.5 -27t-26.5 -68t26.5 -68t65.5 -27q42 0 68.5 27t26.5 68t-26.5 68t-68.5 27z" />
    <glyph glyph-name="ccedilla" unicode="&#xe7;" horiz-adv-x="708" 
d="M357 -12l-34 -124q63 -8 98.5 -40t35.5 -80q0 -49 -39 -82.5t-97 -33.5q-75 0 -137 58q-32 30 -33 44q-1 13 11 12q5 0 13 -7q58 -47 112 -47q28 0 49 20t21 48q0 49 -78 79l41 151q-122 0 -190.5 81t-68.5 225q0 206 128 367t291 161q81 0 142 -36t61 -83q0 -28 -18 -49
t-43 -21q-19 0 -37 19l-58 61q-47 49 -101 49q-105 0 -175 -112.5t-70 -279.5q0 -134 58.5 -207.5t165.5 -73.5q106 0 184 69l37 32q8 8 17 8q12 1 12 -12q0 -41 -82 -108q-89 -74 -216 -88z" />
    <glyph glyph-name="eacute" unicode="&#xe9;" horiz-adv-x="714" 
d="M174 397q-5 -43 -5 -69q0 -102 68 -173t166 -71q124 0 198 75q23 23 30 23q14 0 14 -19q0 -33 -71 -89q-114 -88 -254 -88q-122 0 -193.5 76.5t-71.5 208.5q0 202 134.5 375.5t290.5 173.5q76 0 124.5 -41t48.5 -106q0 -119 -157 -208q-120 -68 -322 -68zM179 433
q151 0 254 69.5t103 172.5q0 93 -94 93q-82 0 -164 -99q-71 -87 -99 -236zM439 994l106 143q44 59 83 59q30 0 51.5 -20t21.5 -48q0 -45 -58 -80l-165 -99q-27 -16 -42 -17q-19 -1 -19 19q0 14 22 43z" />
    <glyph glyph-name="egrave" unicode="&#xe8;" horiz-adv-x="714" 
d="M174 397q-5 -43 -5 -69q0 -102 68 -173t166 -71q124 0 198 75q23 23 30 23q14 0 14 -19q0 -33 -71 -89q-114 -88 -254 -88q-122 0 -193.5 76.5t-71.5 208.5q0 202 134.5 375.5t290.5 173.5q76 0 124.5 -41t48.5 -106q0 -119 -157 -208q-120 -68 -322 -68zM179 433
q151 0 254 69.5t103 172.5q0 93 -94 93q-82 0 -164 -99q-71 -87 -99 -236zM429 1153l104 -168q14 -22 14 -32q0 -20 -16 -20q-14 0 -40 16l-140 91q-59 38 -59 81q0 31 21 53.5t51 22.5q37 0 65 -44z" />
    <glyph glyph-name="ecircumflex" unicode="&#xea;" horiz-adv-x="714" 
d="M174 397q-5 -43 -5 -69q0 -102 68 -173t166 -71q124 0 198 75q23 23 30 23q14 0 14 -19q0 -33 -71 -89q-114 -88 -254 -88q-122 0 -193.5 76.5t-71.5 208.5q0 202 134.5 375.5t290.5 173.5q76 0 124.5 -41t48.5 -106q0 -119 -157 -208q-120 -68 -322 -68zM179 433
q151 0 254 69.5t103 172.5q0 93 -94 93q-82 0 -164 -99q-71 -87 -99 -236zM580 1220l131 -257l8 -19q2 -14 -16 -14q-10 0 -17 6l-131 136l-216 -136q-11 -7 -22 -7q-21 0 -20 16q1 8 17 23z" />
    <glyph glyph-name="edieresis" unicode="&#xeb;" horiz-adv-x="714" 
d="M174 397q-5 -43 -5 -69q0 -102 68 -173t166 -71q124 0 198 75q23 23 30 23q14 0 14 -19q0 -33 -71 -89q-114 -88 -254 -88q-122 0 -193.5 76.5t-71.5 208.5q0 202 134.5 375.5t290.5 173.5q76 0 124.5 -41t48.5 -106q0 -119 -157 -208q-120 -68 -322 -68zM179 433
q151 0 254 69.5t103 172.5q0 93 -94 93q-82 0 -164 -99q-71 -87 -99 -236zM362 1162q9 -1 17 -18q16 -31 42 -69q9 -13 9 -20q0 -9 -15 -23q-23 -22 -54 -61q-11 -15 -21 -15q-12 0 -21 19q-21 45 -37 65q-9 13 -9 21q0 11 10 22l28 29q5 5 26 33q15 18 25 17zM647 1162
q9 -1 17 -18q16 -31 42 -69q9 -13 9 -20q0 -9 -15 -23q-24 -23 -54 -61q-11 -15 -21 -15q-12 0 -21 19q-21 44 -37 65q-9 13 -9 21q0 11 10 22l28 29q9 10 27 33q14 18 24 17z" />
    <glyph glyph-name="iacute" unicode="&#xed;" horiz-adv-x="502" 
d="M177 410l42 248q5 27 5 49q0 40 -59 40h-54q-44 0 -43 20q1 23 43 23q92 0 178 17q33 6 51 6q21 0 21 -24l-1 -11l-56 -276q-42 -205 -42 -312q0 -60 31 -62q45 -3 89 83q11 23 24 23q16 0 15 -21q-4 -65 -77 -142.5t-130 -77.5q-30 0 -49 44.5t-19 114.5q0 79 31 258z
M238 994l106 143q44 59 83 59q30 0 51.5 -20t21.5 -48q0 -45 -58 -80l-165 -99q-27 -16 -42 -17q-19 -1 -19 19q0 14 22 43z" />
    <glyph glyph-name="igrave" unicode="&#xec;" horiz-adv-x="502" 
d="M177 410l42 248q5 27 5 49q0 40 -59 40h-54q-44 0 -43 20q1 23 43 23q92 0 178 17q33 6 51 6q21 0 21 -24l-1 -11l-56 -276q-42 -205 -42 -312q0 -60 31 -62q45 -3 89 83q11 23 24 23q16 0 15 -21q-4 -65 -77 -142.5t-130 -77.5q-30 0 -49 44.5t-19 114.5q0 79 31 258z
M228 1153l104 -168q14 -22 14 -32q0 -20 -16 -20q-14 0 -40 16l-140 91q-59 38 -59 81q0 31 21 53.5t51 22.5q37 0 65 -44z" />
    <glyph glyph-name="icircumflex" unicode="&#xee;" horiz-adv-x="502" 
d="M177 410l42 248q5 27 5 49q0 40 -59 40h-54q-44 0 -43 20q1 23 43 23q92 0 178 17q33 6 51 6q21 0 21 -24l-1 -11l-56 -276q-42 -205 -42 -312q0 -60 31 -62q45 -3 89 83q11 23 24 23q16 0 15 -21q-4 -65 -77 -142.5t-130 -77.5q-30 0 -49 44.5t-19 114.5q0 79 31 258z
M351 1220l131 -257l8 -19q2 -14 -16 -14q-10 0 -17 6l-131 136l-216 -136q-11 -7 -22 -7q-21 0 -20 16q1 8 17 23z" />
    <glyph glyph-name="idieresis" unicode="&#xef;" horiz-adv-x="502" 
d="M177 410l42 248q5 27 5 49q0 40 -59 40h-54q-44 0 -43 20q1 23 43 23q92 0 178 17q33 6 51 6q21 0 21 -24l-1 -11l-56 -276q-42 -205 -42 -312q0 -60 31 -62q45 -3 89 83q11 23 24 23q16 0 15 -21q-4 -65 -77 -142.5t-130 -77.5q-30 0 -49 44.5t-19 114.5q0 79 31 258z
M167 1162q9 -1 17 -18q15 -30 42 -69q9 -13 9 -20q0 -9 -15 -23q-22 -21 -53 -61q-12 -15 -22 -15q-12 0 -21 19q-21 43 -37 65q-9 13 -9 21q0 11 10 22l28 29q4 5 26 33q15 18 25 17zM410 1162q9 -1 18 -18q15 -30 20 -36l22 -33q9 -13 9 -20q0 -9 -15 -23q-25 -24 -54 -61
q-11 -15 -21 -15q-12 0 -21 19q-21 45 -37 65q-9 13 -9 21q0 11 10 22l28 29q7 8 26 33q15 18 24 17z" />
    <glyph glyph-name="ntilde" unicode="&#xf1;" horiz-adv-x="961" 
d="M319 615q68 92 153.5 145t163.5 53q62 0 103.5 -64t41.5 -161q0 -56 -7 -143l-21 -260q-1 -10 -1 -19q0 -52 29 -52q50 0 96 67q20 30 36 30q18 0 17 -20q-3 -54 -84.5 -126.5t-139.5 -72.5q-71 0 -71 132q0 30 4 82l25 307q2 20 2 45q0 78 -29.5 124.5t-78.5 46.5
q-85 0 -147.5 -103.5t-83.5 -279.5l-38 -303q-3 -30 -17 -40t-52 -10q-51 0 -49 32l2 18l32 259q7 60 15 119q14 103 14 156q0 98 -45 98q-17 0 -40.5 -24.5t-34.5 -54.5q-13 -37 -28 -37q-20 0 -20 28q0 68 59.5 145.5t112.5 77.5q36 0 58.5 -43t22.5 -112v-40zM505 1127
q29 0 51 -15l26 -17q40 -26 72 -26q45 0 84 41q25 26 32 26q12 -1 12 -16q0 -25 -43 -84q-58 -77 -120 -77q-35 0 -88 37q-40 29 -77 29q-38 0 -72 -45q-15 -20 -26 -20q-15 0 -15 14q0 22 33 65q68 88 131 88z" />
    <glyph glyph-name="oacute" unicode="&#xf3;" horiz-adv-x="818" 
d="M465 820q133 0 212 -88.5t79 -237.5q0 -211 -118 -359.5t-286 -148.5q-127 0 -206.5 94.5t-79.5 244.5q0 111 46.5 224.5t118.5 179.5q99 91 234 91zM468 771q-114 0 -190.5 -129t-76.5 -320q0 -280 170 -280q103 0 177.5 137.5t74.5 329.5q0 262 -155 262zM437 994
l106 143q44 59 83 59q30 0 51.5 -20t21.5 -48q0 -45 -58 -80l-165 -99q-27 -16 -42 -17q-19 -1 -19 19q0 14 22 43z" />
    <glyph glyph-name="ograve" unicode="&#xf2;" horiz-adv-x="818" 
d="M465 820q133 0 212 -88.5t79 -237.5q0 -211 -118 -359.5t-286 -148.5q-127 0 -206.5 94.5t-79.5 244.5q0 111 46.5 224.5t118.5 179.5q99 91 234 91zM468 771q-114 0 -190.5 -129t-76.5 -320q0 -280 170 -280q103 0 177.5 137.5t74.5 329.5q0 262 -155 262zM414 1153
l104 -168q14 -22 14 -32q0 -20 -16 -20q-14 0 -40 16l-140 91q-59 38 -59 81q0 31 21 53.5t51 22.5q37 0 65 -44z" />
    <glyph glyph-name="ocircumflex" unicode="&#xf4;" horiz-adv-x="818" 
d="M465 820q133 0 212 -88.5t79 -237.5q0 -211 -118 -359.5t-286 -148.5q-127 0 -206.5 94.5t-79.5 244.5q0 111 46.5 224.5t118.5 179.5q99 91 234 91zM468 771q-114 0 -190.5 -129t-76.5 -320q0 -280 170 -280q103 0 177.5 137.5t74.5 329.5q0 262 -155 262zM550 1220
l131 -257l8 -19q2 -14 -16 -14q-10 0 -17 6l-131 136l-216 -136q-11 -7 -22 -7q-21 0 -20 16q1 8 17 23z" />
    <glyph glyph-name="odieresis" unicode="&#xf6;" horiz-adv-x="818" 
d="M465 820q133 0 212 -88.5t79 -237.5q0 -211 -118 -359.5t-286 -148.5q-127 0 -206.5 94.5t-79.5 244.5q0 111 46.5 224.5t118.5 179.5q99 91 234 91zM468 771q-114 0 -190.5 -129t-76.5 -320q0 -280 170 -280q103 0 177.5 137.5t74.5 329.5q0 262 -155 262zM373 1162
q9 -1 17 -18q16 -31 42 -69q9 -13 9 -20q0 -9 -15 -23q-23 -22 -54 -61q-11 -15 -21 -15q-12 0 -21 19q-21 45 -37 65q-9 13 -9 21q0 11 10 22l28 29q5 5 26 33q15 18 25 17zM658 1162q9 -1 17 -18q16 -31 42 -69q9 -13 9 -20q0 -9 -15 -23q-24 -23 -54 -61q-11 -15 -21 -15
q-12 0 -21 19q-21 44 -37 65q-9 13 -9 21q0 11 10 22l28 29q9 10 27 33q14 18 24 17z" />
    <glyph glyph-name="otilde" unicode="&#xf5;" horiz-adv-x="818" 
d="M465 820q133 0 212 -88.5t79 -237.5q0 -211 -118 -359.5t-286 -148.5q-127 0 -206.5 94.5t-79.5 244.5q0 111 46.5 224.5t118.5 179.5q99 91 234 91zM468 771q-114 0 -190.5 -129t-76.5 -320q0 -280 170 -280q103 0 177.5 137.5t74.5 329.5q0 262 -155 262zM454 1127
q29 0 51 -15l26 -17q40 -26 72 -26q45 0 84 41q25 26 32 26q12 -1 12 -16q0 -25 -43 -84q-58 -77 -120 -77q-35 0 -88 37q-40 29 -77 29q-38 0 -72 -45q-15 -20 -26 -20q-15 0 -15 14q0 22 33 65q68 88 131 88z" />
    <glyph glyph-name="uacute" unicode="&#xfa;" horiz-adv-x="968" 
d="M639 410q-127 -196 -199 -272q-54 -56 -121.5 -98t-104.5 -42q-32 0 -52 33.5t-20 86.5q0 80 24 206l40 207q15 76 15 108q0 38 -21 39q-19 1 -46 -27.5t-43 -68.5q-15 -34 -32 -34q-19 0 -19 24q0 80 68.5 161.5t136.5 81.5q79 0 79 -126q0 -32 -6 -68l-57 -345
q-2 -17 -7 -50l-5 -44q-2 -16 -2 -29q0 -42 30 -42q33 0 100.5 67t137.5 170q127 185 183 399q10 37 21 48t38 11q53 0 53 -41q0 -11 -3 -25l-50 -232q-49 -225 -49 -337q0 -49 40 -49q59 0 118 111q13 25 28 25q20 0 20 -22q0 -73 -91.5 -158t-171.5 -85q-68 0 -68 105
q0 79 18 189l10 57q3 17 8 66zM511 994l106 143q44 59 83 59q30 0 51.5 -20t21.5 -48q0 -45 -58 -80l-165 -99q-27 -16 -42 -17q-19 -1 -19 19q0 14 22 43z" />
    <glyph glyph-name="ugrave" unicode="&#xf9;" horiz-adv-x="968" 
d="M639 410q-127 -196 -199 -272q-54 -56 -121.5 -98t-104.5 -42q-32 0 -52 33.5t-20 86.5q0 80 24 206l40 207q15 76 15 108q0 38 -21 39q-19 1 -46 -27.5t-43 -68.5q-15 -34 -32 -34q-19 0 -19 24q0 80 68.5 161.5t136.5 81.5q79 0 79 -126q0 -32 -6 -68l-57 -345
q-2 -17 -7 -50l-5 -44q-2 -16 -2 -29q0 -42 30 -42q33 0 100.5 67t137.5 170q127 185 183 399q10 37 21 48t38 11q53 0 53 -41q0 -11 -3 -25l-50 -232q-49 -225 -49 -337q0 -49 40 -49q59 0 118 111q13 25 28 25q20 0 20 -22q0 -73 -91.5 -158t-171.5 -85q-68 0 -68 105
q0 79 18 189l10 57q3 17 8 66zM461 1153l104 -168q14 -22 14 -32q0 -20 -16 -20q-14 0 -40 16l-140 91q-59 38 -59 81q0 31 21 53.5t51 22.5q37 0 65 -44z" />
    <glyph glyph-name="ucircumflex" unicode="&#xfb;" horiz-adv-x="968" 
d="M639 410q-127 -196 -199 -272q-54 -56 -121.5 -98t-104.5 -42q-32 0 -52 33.5t-20 86.5q0 80 24 206l40 207q15 76 15 108q0 38 -21 39q-19 1 -46 -27.5t-43 -68.5q-15 -34 -32 -34q-19 0 -19 24q0 80 68.5 161.5t136.5 81.5q79 0 79 -126q0 -32 -6 -68l-57 -345
q-2 -17 -7 -50l-5 -44q-2 -16 -2 -29q0 -42 30 -42q33 0 100.5 67t137.5 170q127 185 183 399q10 37 21 48t38 11q53 0 53 -41q0 -11 -3 -25l-50 -232q-49 -225 -49 -337q0 -49 40 -49q59 0 118 111q13 25 28 25q20 0 20 -22q0 -73 -91.5 -158t-171.5 -85q-68 0 -68 105
q0 79 18 189l10 57q3 17 8 66zM626 1220l131 -257l8 -19q2 -14 -16 -14q-10 0 -17 6l-131 136l-216 -136q-11 -7 -22 -7q-21 0 -20 16q1 8 17 23z" />
    <glyph glyph-name="udieresis" unicode="&#xfc;" horiz-adv-x="968" 
d="M639 410q-127 -196 -199 -272q-54 -56 -121.5 -98t-104.5 -42q-32 0 -52 33.5t-20 86.5q0 80 24 206l40 207q15 76 15 108q0 38 -21 39q-19 1 -46 -27.5t-43 -68.5q-15 -34 -32 -34q-19 0 -19 24q0 80 68.5 161.5t136.5 81.5q79 0 79 -126q0 -32 -6 -68l-57 -345
q-2 -17 -7 -50l-5 -44q-2 -16 -2 -29q0 -42 30 -42q33 0 100.5 67t137.5 170q127 185 183 399q10 37 21 48t38 11q53 0 53 -41q0 -11 -3 -25l-50 -232q-49 -225 -49 -337q0 -49 40 -49q59 0 118 111q13 25 28 25q20 0 20 -22q0 -73 -91.5 -158t-171.5 -85q-68 0 -68 105
q0 79 18 189l10 57q3 17 8 66zM434 1162q9 -1 17 -18q16 -31 42 -69q9 -13 9 -20q0 -9 -15 -23q-23 -22 -54 -61q-11 -15 -21 -15q-12 0 -21 19q-21 45 -37 65q-9 13 -9 21q0 11 10 22l28 29q5 5 26 33q15 18 25 17zM719 1162q9 -1 17 -18q16 -31 42 -69q9 -13 9 -20
q0 -9 -15 -23q-24 -23 -54 -61q-11 -15 -21 -15q-12 0 -21 19q-21 44 -37 65q-9 13 -9 21q0 11 10 22l28 29q9 10 27 33q14 18 24 17z" />
    <glyph glyph-name="dagger" unicode="&#x2020;" 
d="M697 1217l-82 -246l-7 -24q2 -11 22 -11q5 0 10 1l241 54q24 5 42 5q54 0 54 -55q0 -121 -70 -121q-24 0 -70 11l-207 49l-19 3q-15 -4 -15 -40q0 -23 6 -57q17 -85 17 -169q0 -58 -21 -133l-51 -176q-35 -121 -76 -454q-8 -64 -12 -75t-19 -11q-26 0 -26 20q0 23 7 66
q8 45 23 193.5t15 181.5l-10 300q0 13 2 35q6 49 21 90l47 132l23 65l6 15q-2 21 -34 14l-220 -49q-48 -11 -73 -11q-46 0 -46 56q0 120 76 120q18 0 41 -5l228 -54l18 -4l14 37l-22 246q-2 20 -2 32q0 74 22.5 101.5t83.5 27.5q48 0 65 -12.5t17 -47.5q0 -45 -19 -100z" />
    <glyph glyph-name="degree" unicode="&#xb0;" horiz-adv-x="710" 
d="M441 1365q113 0 193.5 -80t80.5 -193t-80 -193t-194 -80q-113 0 -193 80t-80 193t80 193t193 80zM441 1274q-75 0 -128.5 -53.5t-53.5 -128.5t53.5 -128.5t128.5 -53.5q76 0 129.5 53.5t53.5 128.5t-53.5 128.5t-129.5 53.5z" />
    <glyph glyph-name="cent" unicode="&#xa2;" 
d="M638 1100l-80 -677q17 -1 22 -1q111 0 189 71q42 39 53 39t11 -9q0 -40 -83 -107q-84 -68 -203 -85l-23 -189q-3 -29 -29 -29q-34 0 -30 28l22 187q-114 0 -181 82.5t-67 221.5q0 178 100 327.5t245 188.5l16 138q3 21 27 21q32 0 32 -28l-1 -8l-13 -113h22q74 0 134 -36
t60 -79q0 -27 -18 -47t-42 -20q-22 0 -37 16l-58 61q-33 34 -68 47zM579 1103q-100 -19 -160.5 -127.5t-60.5 -267.5q0 -212 142 -271z" />
    <glyph glyph-name="sterling" unicode="&#xa3;" 
d="M478 734h249l-8 -62h-231q13 -77 13 -118q0 -139 -64 -242.5t-232 -237.5q172 51 242 51q53 0 132 -43l49 -27l44 -25q49 -25 90 -25q60 0 104 34l54 40q13 11 26 10q12 -1 13 -13q1 -25 -67 -84q-112 -97 -218 -97q-57 0 -134 39q-173 86 -266 86q-118 0 -194 -36
q-20 -9 -32 -10q-20 -1 -22 18q-2 18 91 84q134 95 187 170.5t53 171.5q0 79 -33 204l-13 50h-220l8 62h199q-12 87 -12 137q0 211 141.5 363t338.5 152q125 0 212.5 -64t87.5 -155q0 -48 -29.5 -79t-74.5 -31q-87 0 -87 93q0 10 2 24q6 48 6 58q0 41 -41.5 68t-104.5 27
q-133 0 -215.5 -88t-82.5 -230q0 -97 39 -275z" />
    <glyph glyph-name="section" unicode="&#xa7;" 
d="M285 935q-55 74 -55 153q0 130 111.5 214t283.5 84q167 0 272 -79q70 -53 71 -82q0 -9 -12 -34q-8 -14 -18 -39q-27 -66 -50 -66q-16 0 -21 31q-30 211 -250 211q-103 0 -178.5 -55.5t-75.5 -131.5q0 -95 172 -169l121 -52q177 -75 244.5 -147t67.5 -183
q0 -160 -153 -337q49 -74 49 -134q0 -136 -139.5 -244t-314.5 -108q-128 0 -253 61t-129 125q-2 38 21.5 98t41.5 60t25 -45q17 -103 96 -166t191 -63q134 0 229 69.5t95 168.5q0 47 -29.5 74.5t-125.5 69.5l-131 56q-187 81 -248 148q-78 86 -78 193q0 166 170 319z
M327 891q-91 -83 -91 -192q0 -87 46.5 -131t211.5 -115q144 -62 188 -86t95 -67q84 104 84 210q0 68 -53.5 117.5t-192.5 109.5q-202 86 -288 154z" />
    <glyph glyph-name="bullet" unicode="&#x2022;" horiz-adv-x="1365" 
d="M685 978q118 0 201 -83t83 -201t-83 -201t-201 -83t-201 83t-83 201t83 201t201 83z" />
    <glyph glyph-name="paragraph" unicode="&#xb6;" 
d="M873 1074l-120 -981q-13 -102 -13 -139q0 -69 27 -104t89 -44q40 -7 40 -23q0 -26 -34 -26q-16 0 -38 3q-36 5 -95 5h-61l-39 1q-26 3 -26 29q0 7 1 13l176 1438l1 8q2 44 -62 44q-69 0 -76 -52l-176 -1439q-4 -27 -17 -34.5t-58 -7.5q-54 0 -107 -6q-33 -3 -63 -3
q-24 0 -24 18q0 20 34 26q79 13 105 52.5t42 166.5l89 727l1 7l-5 14q-5 5 -17 5l-45 -1q-36 0 -88 18q-189 64 -189 272q0 167 118 257q29 22 90.5 40.5t99.5 16.5l188 -11l194 5q75 0 127 3l68 5q18 1 25 1q25 0 25 -17q0 -19 -29 -29l-55 -20q-77 -28 -103 -238z" />
    <glyph glyph-name="germandbls" unicode="&#xdf;" horiz-adv-x="1007" 
d="M670 891q139 -19 197 -70q93 -82 93 -220q0 -107 -56 -223.5t-154 -212.5q-181 -179 -327 -179q-40 0 -56 14.5t-21 55.5q-3 20 -5 28l-12 51q-2 8 -2 17q0 34 24 33q12 -1 25 -10l43 -33q43 -33 98 -33q103 0 203.5 137.5t100.5 277.5q0 119 -67.5 195.5t-172.5 76.5
q-33 0 -66 -12q-18 -7 -32 -8q-25 -2 -24 25q1 25 44 42q103 42 229 172q82 85 82 159q0 68 -48.5 113.5t-120.5 45.5q-113 0 -175.5 -114t-94.5 -381l-76 -617l-17 -153q-16 -134 -37.5 -202t-64.5 -116q-82 -92 -170 -92q-55 0 -55 41q0 19 6 41l11 39q14 54 33 54
q14 0 18 -23q13 -71 55 -71q30 0 50.5 74t36.5 237l13 133l68 555h-145q-34 0 -34 28q0 40 44 40h144l1 13q16 125 60 248t99 195q100 131 282 131q117 0 185.5 -49t68.5 -132q0 -125 -281 -321z" />
    <glyph glyph-name="registered" unicode="&#xae;" horiz-adv-x="1584" 
d="M711 652l-30 -246q-2 -15 -2 -34q0 -46 50 -56q40 -8 40 -23q0 -22 -28 -22q-9 0 -19 1l-13 2q-26 3 -73 3q-45 0 -88 -4q-15 -2 -20 -2q-29 0 -29 19q0 16 28 23q29 8 36.5 20t13.5 59l70 571q2 17 2 34q0 47 -50 56q-40 7 -40 24q0 22 28 21q10 -1 35 -5q19 -3 35 -3
q14 0 116 6q35 2 77 2q243 0 243 -175q0 -63 -37.5 -123t-91.5 -82l-39 -17q-11 -5 -12 -11l3 -9q5 -9 11 -31q9 -33 36 -97q35 -80 44 -103q58 -141 115 -137l16 1l7 -1q10 -3 10 -12q0 -34 -91 -34q-97 0 -134 100l-104 282q-8 22 -13.5 25.5t-29.5 3.5q-50 0 -60 -3.5
t-12 -22.5zM752 989l-25 -210q-3 -19 -3 -26q-1 -20 32 -20l83 -3l57 11q89 33 89 162q0 145 -153 145q-47 0 -61 -10.5t-19 -48.5zM854 1392q287 0 486 -198.5t199 -485.5q0 -302 -217 -518.5t-519 -216.5q-286 0 -485.5 199.5t-199.5 486.5q0 274 186 484q222 249 550 249
zM851 1315q-269 0 -462.5 -193t-193.5 -461q0 -256 177.5 -434t433.5 -178q269 0 462.5 193.5t193.5 461.5q0 256 -177.5 433.5t-433.5 177.5z" />
    <glyph glyph-name="copyright" unicode="&#xa9;" horiz-adv-x="1584" 
d="M845 1105q157 0 264 -77l10 -5l11 9q7 7 17 7q20 0 20 -27v-56q0 -5 9 -88q1 -13 1 -22q0 -31 -22 -31q-18 0 -28 34q-24 90 -103.5 147.5t-179.5 57.5q-135 0 -219.5 -101.5t-84.5 -264.5q0 -164 82.5 -270t210.5 -106q86 0 163 49t101 119q14 43 35 43q20 0 20 -30
q0 -20 -8 -46l-13 -38l-4 -26q-7 -42 -109 -82t-203 -40q-177 0 -280 105t-103 285q0 199 116 326.5t297 127.5zM854 1392q287 0 486 -198.5t199 -485.5q0 -302 -217 -518.5t-519 -216.5q-286 0 -485.5 199.5t-199.5 486.5q0 274 186 484q222 249 550 249zM851 1315
q-269 0 -462.5 -193t-193.5 -461q0 -256 177.5 -434t433.5 -178q269 0 462.5 193.5t193.5 461.5q0 256 -177.5 433.5t-433.5 177.5z" />
    <glyph glyph-name="trademark" unicode="&#x2122;" horiz-adv-x="1844" 
d="M556 1270l-68 -558q-3 -21 -3 -31q0 -43 54 -52q44 -7 44 -23q0 -23 -37 -23q-8 0 -19 1q-40 5 -86 5q-37 0 -53 -1l-14 -2l-18 -1l-10 -1q-5 -1 -10 -1q-38 0 -38 20q0 16 32 24q31 7 39 18t13 54l70 571l1 6q1 11 -18 11h-127q-94 0 -118 -60q-15 -40 -33 -40
q-28 0 -26 31q1 21 19 67q7 16 14 44q11 40 52 40q7 0 52 -3q87 -5 245 -5q170 0 246 6q33 2 41 2q43 0 43 -51v-26l1 -72q0 -38 -24 -38q-22 0 -27 36q-4 40 -18.5 54.5t-50.5 14.5h-162zM1618 1125l-263 -513q-11 -21 -27 -21t-29 27l-224 496l-69 -392q-4 -23 -4 -40
q0 -43 53 -48q47 -4 47 -25q0 -26 -35 -26q-7 0 -17 1q-35 5 -77 5q-35 0 -48 -1l-14 -2l-15 -1l-9 -1l-8 -1q-35 0 -35 21t40 29q37 8 45 41l7 33l13 56l36 189q28 147 28 225q0 57 -23.5 98.5t-56.5 43.5l-14 -1q-17 -2 -25 -2q-25 0 -24 18q2 35 71 35l58 -2l49 -2
q23 -4 37 -34l268 -585l194 387l51 101l37 78l16 32q10 20 36 20l36 1l53 2l20 -3q11 -5 11 -16q0 -13 -10 -16l-35 -13q-39 -13 -39 -117l-5 -488q0 -46 11.5 -62t46.5 -23q41 -7 42 -24q1 -22 -27 -22q-8 0 -19 1q-39 5 -87 5q-40 0 -54 -1l-15 -2l-18 -1l-9 -1
q-5 -1 -10 -1q-32 0 -32 21q0 16 27 23q38 9 38 42v29z" />
    <glyph glyph-name="acute" unicode="&#xb4;" horiz-adv-x="973" 
d="M514 994l106 143q44 59 83 59q30 0 51.5 -20t21.5 -48q0 -45 -58 -80l-165 -99q-27 -16 -42 -17q-19 -1 -19 19q0 14 22 43z" />
    <glyph glyph-name="dieresis" unicode="&#xa8;" 
d="M462 1162q9 -1 17 -18q16 -31 42 -69q9 -13 9 -20q0 -9 -15 -23q-23 -22 -54 -61q-11 -15 -21 -15q-12 0 -21 19q-21 45 -37 65q-9 13 -9 21q0 11 10 22l28 29q5 5 26 33q15 18 25 17zM747 1162q9 -1 17 -18q16 -31 42 -69q9 -13 9 -20q0 -9 -15 -23q-24 -23 -54 -61
q-11 -15 -21 -15q-12 0 -21 19q-21 44 -37 65q-9 13 -9 21q0 11 10 22l28 29q9 10 27 33q14 18 24 17z" />
    <glyph glyph-name="notequal" unicode="&#x2260;" 
d="M364 495l-70 2q-46 0 -69 -3q-27 -4 -48 -4q-38 0 -41 23l2 7l11 30l10 33q9 24 43 24q7 0 28 -1q63 -3 103 -3l54 -2l54 -1q22 30 34 46q26 35 33 46l34 48h-43l-207 2l-67 -3q-27 -4 -48 -4q-38 0 -41 23l2 7l11 30l10 32q9 24 43 24l28 -1l103 -3l216 -5h65l60 86
q97 139 119 139q17 0 28 -32l6 -20l8 -26q0 -14 -71 -109l-28 -38h63l114 -2q41 0 41 -22q0 -17 -17 -38q-11 -13 -14 -18q-20 -29 -50 -29l-41 1l-160 5h-11l-101 -142h209q125 0 155 -4t30 -21t-17 -38q-11 -14 -14 -18q-20 -29 -50 -29l-41 1l-333 6h-12l-12 -17l-15 -20
q-56 -77 -75 -112q-44 -79 -66 -79q-9 0 -15 6l-19 22l-23 22q-7 9 -7 19q0 13 34 58q8 10 35 48q13 18 40 54z" />
    <glyph glyph-name="AE" unicode="&#xc6;" horiz-adv-x="1898" 
d="M1216 1221l-54 -435q-2 -16 -2 -23q-1 -19 43 -19h279q135 0 167 123q6 24 22 25q20 2 19 -26q-2 -42 -12 -96q-20 -105 -20 -178q0 -116 -30 -116q-19 0 -20 26l-2 45q-6 110 -156 110h-239q-46 0 -56 -6.5t-14 -39.5l-52 -428q-2 -14 -2 -23q0 -49 30.5 -64t130.5 -15
q439 0 546 160q25 37 41 37q19 0 19 -22q0 -31 -31.5 -89.5t-71.5 -102.5q-41 -44 -79 -57.5t-125 -13.5q-32 0 -175 8q-97 6 -241 6q-139 0 -193 -6q-66 -8 -86 -8q-37 0 -37 20q0 15 36 25q54 14 69 37.5t26 108.5l35 285v13q0 21 -35 21h-416q-41 0 -54 -6.5t-43 -44.5
l-195 -241q-48 -58 -48 -98q0 -59 79 -71q46 -7 46 -29q0 -20 -31 -20q-12 0 -28 2q-58 9 -134 9q-67 0 -135 -8q-23 -3 -32 -3q-29 0 -29 19t35 30q45 15 74 39.5t87 95.5l287 356q155 193 332 398l273 317q16 19 16 37q0 28 -65 38q-38 6 -38 25q0 24 40 24q11 0 85 -5
q132 -9 350 -9q268 0 381 10q53 4 80 4q28 0 28 -25l-2 -97l4 -150q0 -32 -23 -32q-24 0 -27 41q-6 111 -60 142.5t-236 31.5h-80l-179 4q-43 0 -55 -11t-17 -55zM1002 642l59 486q1 6 1 13q0 31 -11 32q-6 1 -16 -11l-21 -22l-421 -497l-16 -18q-6 -6 -6 -13q-1 -10 13 -10
h379q34 0 37 26z" />
    <glyph glyph-name="Oslash" unicode="&#xd8;" horiz-adv-x="1512" 
d="M258 184q-143 181 -143 430q0 320 208 546t503 226q249 0 431 -162l122 127q28 29 47 29q14 0 27 -11.5t13 -25.5t-31 -47l-123 -128q154 -180 154 -440q0 -246 -128 -448q-190 -300 -577 -300q-267 0 -446 146l-112 -117q-23 -25 -51 -25q-12 0 -24.5 12t-12.5 24
q0 16 31 48zM359 290l823 856q-69 86 -172.5 136t-210.5 50q-225 0 -375.5 -195.5t-150.5 -487.5q0 -204 86 -359zM1227 1079l-821 -858q147 -182 368 -182q231 0 378.5 198.5t147.5 508.5q0 197 -73 333z" />
    <glyph glyph-name="infinity" unicode="&#x221e;" horiz-adv-x="1365" 
d="M654 606q-78 -136 -149.5 -193t-163.5 -57q-130 0 -218.5 91.5t-88.5 225.5q0 146 92.5 246.5t226.5 100.5q187 0 342 -255q134 256 328 256q130 0 219.5 -96t89.5 -236q0 -142 -94.5 -242.5t-228.5 -100.5q-103 0 -185.5 60.5t-169.5 199.5zM719 730q168 -274 350 -274
q91 0 151.5 65t60.5 162q0 108 -74 172t-200 64q-90 0 -151 -40t-137 -149zM627 646q-92 144 -168 203.5t-170 59.5q-89 0 -146.5 -62.5t-57.5 -158.5q0 -105 69.5 -168t185.5 -63q91 0 147 37t140 152z" />
    <glyph glyph-name="plusminus" unicode="&#xb1;" 
d="M595 618l2 -90l2 -72q0 -38 3 -104q1 -23 1 -28q0 -33 -22 -39l-35 -10l-35 -16l-10 4q-10 10 -10 37l2 48q2 40 2 118v67l-1 85l-85 1l-111 2q-38 0 -75 -3q-34 -3 -45 -3q-40 0 -39 22q1 11 11 41l10 28q8 22 42 22l26 -1l104 -3l71 -2l90 -3v80l-7 190q0 27 4.5 35.5
t29.5 30.5q27 24 43 24q29 0 29 -36l2 -125l-1 -86v-115l114 1h64q124 0 154 -3.5t29 -17.5q-2 -40 -22 -63t-54 -23l-42 1l-161 6h-80zM205 155l26 -1l102 -3l217 -6l250 1l114 -2q41 0 41 -23q0 -17 -17 -38q-11 -14 -14 -18q-20 -29 -49 -29l-42 1l-160 5h-173l-207 3
l-67 -3q-28 -3 -41 -3q-44 0 -48 22l2 8l11 29l10 33q8 24 45 24z" />
    <glyph glyph-name="lessequal" unicode="&#x2264;" 
d="M934 1247v-64l-670 -439l670 -446v-170l-844 561v12zM90 60h844v-60h-844v60z" />
    <glyph glyph-name="greaterequal" unicode="&#x2265;" 
d="M90 60h844v-60h-844v60zM90 128v64l669 439l-669 446v170l844 -563v-12z" />
    <glyph glyph-name="yen" unicode="&#xa5;" 
d="M583 420h247l-7 -62h-247l-19 -154q-4 -30 -4 -58q0 -87 91 -105q56 -10 56 -27q0 -21 -34 -21q-6 0 -25 2l-23 3q-48 5 -118 5q-66 0 -115 -5l-28 -3l-15 -1q-10 -1 -15 -1q-36 0 -36 19q0 16 35 25q53 13 68 36.5t25 106.5l22 178h-246l7 62h246l16 125q3 28 3 37
q0 12 -7 36h-288l8 62h252l-202 474q-41 96 -61.5 120.5t-64.5 29.5q-35 3 -35 21q0 20 29 20q10 0 25 -2q59 -9 127 -9q73 0 125 5l30 3q25 2 33 2q34 0 34 -21q0 -17 -37 -21q-60 -7 -60 -60q0 -31 30 -108l159 -403q12 -31 22 -32q12 -1 39 45l208 358q56 96 56 138
q0 57 -87 57q-45 0 -45 27q0 21 32 21q10 0 27 -2q62 -9 130 -9q74 0 130 8q19 3 28 3q25 0 25 -21q0 -16 -34 -24q-46 -11 -77.5 -43.5t-92.5 -133.5l-229 -378q-6 -9 -33 -50q-4 -5 -10 -15h264l-8 -62h-291q-17 -48 -22 -94z" />
    <glyph glyph-name="mu" unicode="&#xb5;" 
d="M246 19l-23 -268q-7 -79 -74 -79q-72 0 -72 49q0 16 4 37l153 773q15 74 15 108q0 38 -22 39q-18 1 -44.5 -27.5t-43.5 -68.5q-14 -34 -32 -34q-19 0 -19 24q0 80 68.5 161.5t136.5 81.5q79 0 79 -126q0 -32 -6 -68l-56 -345q-16 -95 -16 -122q0 -43 30 -43
q33 0 100.5 67.5t138.5 169.5q126 183 183 399q10 37 21 48t38 11q53 0 53 -41q0 -11 -3 -25l-50 -232q-49 -225 -49 -337q0 -49 41 -49q59 0 118 111q13 25 28 25q22 0 20 -23q-6 -79 -95 -160.5t-169 -81.5q-68 0 -68 105q0 82 18 189l10 57q3 17 8 66
q-147 -218 -239 -296q-103 -87 -182 -95z" />
    <glyph glyph-name="partialdiff" unicode="&#x2202;" 
d="M304 1365l19 36q299 -134 465.5 -380.5t166.5 -554.5q0 -216 -125 -355t-318 -139t-318 133t-125 338q0 200 126.5 333.5t315.5 133.5q200 0 309 -175q-74 237 -189.5 378.5t-326.5 251.5zM521 866q-141 0 -233.5 -119.5t-92.5 -300.5q0 -185 88.5 -307.5t222.5 -122.5
q141 0 232 123t91 312q0 183 -86.5 299t-221.5 116z" />
    <glyph glyph-name="summation" unicode="&#x2211;" horiz-adv-x="1365" 
d="M126 1365h1034v-318h-37q-19 157 -90.5 213t-252.5 56h-484l429 -814l-481 -901h539q196 0 289 67t135 239h37l-68 -385h-1050l492 920z" />
    <glyph glyph-name="product" unicode="&#x220f;" horiz-adv-x="1365" 
d="M57 1365h1251v-36h-44q-94 0 -116 -26t-22 -138v-1444q0 -109 22 -136t110 -27h48v-36h-493v36h44q92 0 114 26.5t22 136.5v1444q0 111 -22.5 137.5t-116.5 26.5h-340q-94 0 -116 -26t-22 -138v-1444q0 -109 21.5 -136t109.5 -27h49v-36h-493v36h44q92 0 114 26.5
t22 136.5v1444q0 111 -22 137.5t-114 26.5h-50v36z" />
    <glyph glyph-name="pi" unicode="&#x3c0;" 
d="M1132 952v-92h-325q-76 -189 -76 -282v-320q0 -116 15 -152.5t62 -36.5q46 0 107 27v-34l-192 -81l-12 -5q-5 -2 -10 -2q-23 0 -53 43q-38 54 -38 156v320q0 74 37 177.5t95 189.5h-359l-1 -54l-1 -158q0 -317 -33 -562q-16 -119 -79 -119q-58 0 -58 65q0 37 21 104
l16 50q27 85 50.5 288t23.5 351l1 35l-30 -1q-91 0 -158 -40t-148 -142l-22 26l147 178q35 43 71 57t110 14h839z" />
    <glyph glyph-name="integral" unicode="&#x222b;" horiz-adv-x="1026" 
d="M580 948v-904q0 -302 -61 -422q-83 -166 -248 -166q-95 0 -161 59t-66 145q0 44 28 74t69 30q39 0 66.5 -25.5t27.5 -62.5q0 -14 -8 -29q-10 -19 -10 -34q0 -78 64 -78q75 0 121 104.5t46 274.5v913q0 307 62 424q89 166 250 166q91 0 157.5 -59.5t66.5 -141.5
q0 -46 -27.5 -76.5t-68.5 -30.5q-40 0 -67 25t-27 61q0 19 12 46q5 11 5 20q0 77 -63 77q-75 0 -121.5 -108t-46.5 -282z" />
    <glyph glyph-name="ordfeminine" unicode="&#xaa;" horiz-adv-x="617" 
d="M422 663q-107 -125 -220 -125q-51 0 -81.5 35.5t-30.5 94.5q0 133 98 252t208 119q35 0 73 -12q13 -4 20 -4q15 0 40 37q17 24 28 23q12 -1 13 -15q0 -6 -2 -14q-1 -6 -7 -32l-15 -65q-35 -160 -35 -255q0 -68 18 -70q27 -2 56 56q12 24 26 24q17 0 17 -19
q0 -40 -52 -94.5t-90 -54.5q-48 0 -64 119zM395 1001q-75 0 -143 -99.5t-68 -208.5q0 -82 79 -82q50 0 102.5 51.5t60.5 108.5q5 34 9 56l11 53q10 46 14 60q4 15 4 25q0 14 -21 25t-48 11z" />
    <glyph glyph-name="ordmasculine" unicode="&#xba;" horiz-adv-x="549" 
d="M357 1043q87 0 139 -54.5t52 -146.5q0 -125 -75 -214.5t-180 -89.5q-86 0 -139.5 57t-53.5 149q0 124 75 211.5t182 87.5zM357 1000q-68 0 -113 -72.5t-45 -181.5q0 -162 102 -162q62 0 105.5 77.5t43.5 186.5q0 152 -93 152z" />
    <glyph glyph-name="Omega" unicode="&#x2126;" horiz-adv-x="1365" 
d="M1399 227l-78 -227h-556v73q179 89 266 185q178 198 178 477q0 259 -148.5 429.5t-374.5 170.5q-231 0 -380.5 -174t-149.5 -443q0 -426 444 -645v-73h-557l-77 227h37q27 -83 84 -116t174 -33l219 -4v10q-234 95 -354.5 255.5t-120.5 377.5q0 290 192.5 480t485.5 190
q325 0 515 -220q162 -188 162 -426q0 -225 -120.5 -392t-354.5 -265v-10l228 4q113 0 164.5 31t84.5 118h37z" />
    <glyph glyph-name="ae" unicode="&#xe6;" horiz-adv-x="1225" 
d="M688 422q-11 -58 -11 -91q0 -100 67.5 -172.5t160.5 -72.5q123 0 190 63l28 26q6 6 17 6q17 0 16 -21q-3 -38 -78 -93q-109 -81 -245 -81q-201 0 -272 207q-93 -119 -166 -162.5t-180 -43.5q-87 0 -139 41.5t-52 112.5q0 109 98 171t350 112q78 16 86.5 23.5t28.5 79.5
l13 46q11 41 11 75q0 50 -30.5 85.5t-71.5 35.5q-37 0 -91 -31q-34 -20 -59 -72q-38 -77 -83 -77q-61 0 -61 54q0 58 96.5 114t196.5 56q119 0 201 -114q134 121 269 121q81 0 135 -42t54 -104q0 -183 -422 -244zM557 402l-135 -34q-258 -63 -258 -200q0 -44 36 -76t85 -32
q99 0 172 88q48 58 90 219zM697 462q151 26 227 73q112 70 112 151q0 79 -88 79q-75 0 -154 -89q-62 -71 -97 -214z" />
    <glyph glyph-name="oslash" unicode="&#xf8;" horiz-adv-x="819" 
d="M168 57l-71 -86q-11 -14 -27 -15q-10 -1 -21 9.5t-11 21.5q1 12 11 24l77 94q-60 90 -60 220q0 109 47 224t118 180q101 91 233 91q113 0 193 -70l70 85q14 16 28 16q10 0 21 -10.5t10 -20.5q-1 -13 -11 -25l-75 -92q56 -81 56 -208q0 -209 -116.5 -359t-279.5 -150
q-109 0 -192 71zM233 136q44 -95 138 -95q106 0 178.5 138.5t72.5 342.5q0 43 -7 79zM211 208l384 467q-42 95 -128 95q-114 0 -190 -128.5t-76 -322.5q0 -58 10 -111z" />
    <glyph glyph-name="questiondown" unicode="&#xbf;" horiz-adv-x="582" 
d="M130 181l102 132q117 150 117 254q0 17 -3 32q-4 17 -4 26q0 13 13 13q19 0 32 -36t13 -86q0 -88 -81 -226l-87 -149q-59 -102 -59 -156q0 -60 49 -107t111 -47q26 0 47 15l36 25q10 7 19 7q15 0 14 -15q-3 -34 -67.5 -71.5t-121.5 -37.5q-89 0 -159.5 65t-70.5 146
q0 87 100 216zM409 1076q12 0 24 -20q23 -37 56 -67q18 -15 18 -28q0 -16 -24 -32q-30 -21 -68 -61q-16 -18 -29 -18q-14 0 -28 18l-28 33q-11 13 -34 32q-16 14 -15 24t19 24q56 43 82 76q15 19 27 19z" />
    <glyph glyph-name="exclamdown" unicode="&#xa1;" horiz-adv-x="469" 
d="M287 640l-38 -805q-4 -81 -78 -81q-68 0 -68 47q0 19 3 37l138 805q6 31 23 31q22 0 20 -34zM307 1076q12 0 24 -20q24 -38 56 -67q18 -15 18 -27q0 -16 -24 -33q-29 -20 -68 -61q-16 -18 -28 -18q-15 0 -29 18l-28 33q-12 14 -34 32q-16 14 -15 24t19 24q54 42 82 76
q15 19 27 19z" />
    <glyph glyph-name="logicalnot" unicode="&#xac;" 
d="M790 0v476h-714v70h872v-546h-158z" />
    <glyph glyph-name="radical" unicode="&#x221a;" horiz-adv-x="1365" 
d="M1331 1686v-52h-249l-379 -1634h-138l-178 741h-353v52h468l162 -690l371 1583h296z" />
    <glyph glyph-name="florin" unicode="&#x192;" horiz-adv-x="724" 
d="M367 741h-131q-46 0 -46 24q0 38 59 38h131q4 18 11 53q71 345 220 526q56 68 102.5 94t111.5 26q67 0 67 -32q0 -5 -1 -14q-3 -18 -4 -34q-10 -83 -28 -82q-9 0 -15 7l-22 27q-36 45 -89 45q-67 0 -121 -149q-60 -164 -110 -419l-9 -48h152q46 0 46 -22q0 -40 -59 -40
h-151l-37 -200q-67 -369 -187 -556q-76 -119 -142 -168t-150 -49q-72 0 -72 34q0 7 1 15l5 36l3 33q9 56 27 56q9 0 15 -8l24 -29q38 -48 95 -48q117 0 209 420l31 141q15 70 19 92z" />
    <glyph glyph-name="approxequal" unicode="&#x2248;" 
d="M940 651l27 -15q-54 -86 -133.5 -137.5t-156.5 -51.5q-46 0 -140 30q-180 57 -250 57q-60 0 -99.5 -24.5t-102.5 -99.5l-28 16q75 103 143 147t152 44q62 0 200 -45q115 -37 169 -37q121 0 219 116zM940 964l27 -16q-55 -86 -134 -137.5t-156 -51.5q-46 0 -140 30
q-180 58 -250 58q-60 0 -99.5 -24.5t-102.5 -99.5l-28 16q75 103 143 147t152 44q63 0 200 -45q114 -38 169 -38q121 0 219 117z" />
    <glyph glyph-name="Delta" unicode="&#x2206;" horiz-adv-x="1365" 
d="M710 1400l631 -1400h-1316l630 1400h55zM649 1234l-435 -965q-35 -77 -35 -110q0 -39 25.5 -54.5t89.5 -15.5h861z" />
    <glyph glyph-name="guillemotleft" unicode="&#xab;" horiz-adv-x="685" 
d="M609 733q28 0 26 -22q-1 -17 -19 -41q-15 -19 -37 -57q-41 -70 -64 -108q-55 -91 -55 -109q0 -15 30 -99l38 -108q11 -32 22 -57q10 -22 10 -37q0 -26 -31 -26q-16 0 -30 24l-19 31l-32 59q-37 67 -97 138q-42 48 -42 74q0 30 61 86q81 74 131 138l47 59q44 55 61 55z
M370 733q27 0 25 -22q-1 -17 -19 -41q-14 -19 -37 -57q-40 -68 -64 -108q-55 -91 -55 -109q0 -14 35 -117.5t54 -146.5q10 -22 10 -37q0 -26 -31 -26q-16 0 -30 24l-18 31l-32 59q-37 68 -98 138q-41 48 -41 74q0 30 61 86q81 73 132 138l46 59q44 55 62 55z" />
    <glyph glyph-name="guillemotright" unicode="&#xbb;" horiz-adv-x="685" 
d="M160 733q19 0 49 -55l32 -59q35 -65 97 -138q41 -48 41 -74q0 -30 -61 -86q-79 -72 -131 -138l-46 -59q-44 -55 -61 -55q-28 0 -26 22q1 17 19 41q14 19 36 57q43 73 64 108q55 90 55 109q0 17 -29 99l-37 108q-13 37 -22 57q-11 22 -10 37q1 26 30 26zM401 733
q18 0 48 -55l32 -59q36 -66 98 -138q41 -49 41 -74q0 -30 -61 -86q-82 -74 -132 -138l-46 -59q-44 -55 -61 -55q-28 0 -26 22q1 17 19 41q14 19 37 57l64 108q55 92 55 109q0 16 -29 99l-38 108q-13 37 -22 57q-11 23 -10 37q1 26 31 26z" />
    <glyph glyph-name="ellipsis" unicode="&#x2026;" horiz-adv-x="1386" 
d="M204 212q14 1 29 -18l28 -33q12 -14 34 -32q16 -14 15 -24t-19 -24q-58 -45 -82 -76q-15 -19 -27 -19t-24 20q-23 37 -56 66q-18 16 -18 29q0 16 24 32q26 18 37 29l31 32q16 17 28 18zM666 212q14 0 29 -18l28 -33q12 -14 34 -32q16 -14 15 -24t-19 -24q-58 -45 -82 -76
q-15 -19 -27 -19t-24 20q-22 36 -56 66q-18 16 -18 29q0 16 24 32q26 18 37 29l31 32q17 18 28 18zM1128 212q14 1 29 -18l28 -33q12 -14 34 -32q16 -14 15 -24t-19 -24q-59 -47 -82 -76q-15 -19 -27 -19t-24 20q-22 36 -56 66q-18 16 -18 29q0 16 24 32q26 18 37 29l31 32
q16 17 28 18z" />
    <glyph glyph-name="Agrave" unicode="&#xc0;" horiz-adv-x="1303" 
d="M853 494h-413q-47 0 -60 -5t-24 -29l-128 -256q-30 -60 -30 -96q0 -51 69 -66q67 -14 66 -34q-1 -15 -30 -15q-11 0 -26 2q-57 9 -128 9q-66 0 -131 -8q-21 -3 -33 -3q-31 0 -31 20q0 19 30 28l39 10q52 14 93 98l32 68l574 1119q19 36 38 36q20 0 31 -36l326 -1042
l29 -86q31 -98 50.5 -124t72.5 -43q29 -8 29 -25q0 -23 -41 -23q-11 0 -27 2q-59 9 -131 9q-64 0 -107 -5l-26 -3q-21 -3 -28 -3q-40 0 -40 21q0 15 46 27q76 19 76 76q0 39 -15 87l-70 218l-11 34q-8 27 -19 32.5t-52 5.5zM857 665l-131 413q-7 23 -9 33q-5 22 -15 21
q-6 -1 -16 -23q-6 -14 -15 -31l-234 -451l-10 -19q-4 -9 -4 -16q0 -11 18 -11h373q62 0 62 24q0 8 -7 25q-5 14 -12 35zM677 1713l157 -142q24 -23 24 -36q0 -20 -23 -20q-14 0 -37 7l-174 52q-88 26 -88 87q0 33 23 57t56 24q30 0 62 -29z" />
    <glyph glyph-name="Atilde" unicode="&#xc3;" horiz-adv-x="1303" 
d="M853 494h-413q-47 0 -60 -5t-24 -29l-128 -256q-30 -60 -30 -96q0 -51 69 -66q67 -14 66 -34q-1 -15 -30 -15q-11 0 -26 2q-57 9 -128 9q-66 0 -131 -8q-21 -3 -33 -3q-31 0 -31 20q0 19 30 28l39 10q52 14 93 98l32 68l574 1119q19 36 38 36q20 0 31 -36l326 -1042
l29 -86q31 -98 50.5 -124t72.5 -43q29 -8 29 -25q0 -23 -41 -23q-11 0 -27 2q-59 9 -131 9q-64 0 -107 -5l-26 -3q-21 -3 -28 -3q-40 0 -40 21q0 15 46 27q76 19 76 76q0 39 -15 87l-70 218l-11 34q-8 27 -19 32.5t-52 5.5zM857 665l-131 413q-7 23 -9 33q-5 22 -15 21
q-6 -1 -16 -23q-6 -14 -15 -31l-234 -451l-10 -19q-4 -9 -4 -16q0 -11 18 -11h373q62 0 62 24q0 8 -7 25q-5 14 -12 35zM734 1694q31 0 56 -14l28 -15q45 -24 80 -24q48 0 90 37q27 24 35 24q13 0 13 -16q0 -26 -46 -84q-62 -77 -134 -77q-34 0 -93 34q-46 26 -85 26
q-41 0 -77 -41q-17 -18 -28 -18q-16 0 -17 14q-1 21 36 66q72 88 142 88z" />
    <glyph glyph-name="Otilde" unicode="&#xd5;" horiz-adv-x="1511" 
d="M826 1386q277 0 458.5 -186.5t181.5 -469.5q0 -248 -128 -450q-190 -300 -578 -300q-296 0 -470.5 171.5t-174.5 461.5q0 321 208 547t503 226zM798 1332q-225 0 -375 -195.5t-150 -488.5q0 -265 141.5 -437t359.5 -172q232 0 379 198.5t147 511.5q0 308 -178 460
q-146 123 -324 123zM838 1694q31 0 56 -14l28 -15q45 -24 80 -24q48 0 90 37q27 24 35 24q13 0 13 -16q0 -26 -46 -84q-62 -77 -134 -77q-35 0 -93 34q-46 26 -85 26q-41 0 -77 -41q-17 -18 -28 -18q-16 0 -17 14q-1 21 35 66q73 88 143 88z" />
    <glyph glyph-name="OE" unicode="&#x152;" horiz-adv-x="2027" 
d="M1344 1221l-53 -435q-2 -14 -2 -23q0 -19 43 -19h278q135 0 167 123q6 24 22 25q20 2 19 -26q-2 -42 -12 -95q-20 -104 -20 -178q0 -117 -30 -117q-19 0 -20 26l-2 45q-6 110 -156 110h-239q-45 0 -55.5 -7t-14.5 -39l-52 -429q-1 -7 -1 -22q0 -50 30.5 -65t130.5 -15
q440 0 546 161q24 37 41 37q19 0 19 -22q0 -31 -31.5 -89t-71.5 -103q-41 -44 -79.5 -57.5t-126.5 -13.5q-48 0 -174 9q-97 6 -181 6q-51 0 -199 -7l-140 -8q-14 0 -124 -8q-73 -5 -117 -5q-282 0 -454 171.5t-172 453.5q0 160 63.5 315.5t171.5 262.5q206 203 488 203
q49 0 143 -13q99 -14 174 -14q510 0 620 7q143 10 183 10q61 0 63 -29l-1 -97l3 -151q0 -32 -23 -32q-24 0 -27 41q-6 111 -60 143t-236 32h-79l-180 3q-42 0 -54.5 -11.5t-17.5 -53.5zM1081 241l105 863q2 15 2 34q0 85 -81 129q-118 64 -283 64q-244 0 -397 -196
t-153 -508q0 -257 143.5 -423.5t366.5 -166.5q142 0 227 55q35 23 48 51t22 98z" />
    <glyph glyph-name="oe" unicode="&#x153;" horiz-adv-x="1269" 
d="M728 405q-5 -45 -5 -73q0 -101 68.5 -171.5t166.5 -70.5q122 0 191 71q27 27 38 27q16 0 15 -18q-4 -58 -113 -121t-204 -63q-163 0 -248 139q-135 -139 -280 -139q-129 0 -209 93t-80 243q0 206 117 352t282 146q186 0 267 -177q155 177 305 177q73 0 122.5 -42.5
t49.5 -104.5q0 -109 -132 -188.5t-313 -79.5h-38zM476 768q-52 4 -106.5 -29.5t-88.5 -90.5q-76 -126 -76 -349q0 -117 44.5 -186t119.5 -69q105 0 178 135t73 329q0 250 -144 260zM734 439q165 9 253 69q106 74 106 164q0 96 -93 96q-85 0 -168 -98q-64 -76 -98 -231z" />
    <glyph glyph-name="endash" unicode="&#x2013;" 
d="M140 354q-51 0 -51 42q0 28 23 48.5t56 20.5h721q51 0 51 -42q0 -28 -23 -48.5t-56 -20.5h-721z" />
    <glyph glyph-name="emdash" unicode="&#x2014;" horiz-adv-x="998" 
d="M59 354q-57 0 -57 49q0 26 20 44t50 18h872q57 0 57 -49q0 -26 -20 -44t-51 -18h-871z" />
    <glyph glyph-name="quotedblleft" unicode="&#x201c;" horiz-adv-x="778" 
d="M753 1420q23 -2 23 -22q0 -11 -35 -45q-92 -86 -92 -190q0 -80 59 -126q36 -28 36 -38q0 -13 -36 -53q-12 -14 -26 -33q-21 -29 -36 -30q-41 -2 -78.5 64.5t-37.5 139.5q0 116 103 239q82 98 120 94zM433 1420q23 -2 23 -22q0 -11 -35 -45q-92 -86 -92 -190
q0 -80 59 -126q36 -28 36 -38q0 -13 -36 -53q-12 -14 -26 -33q-21 -29 -36 -30q-41 -2 -78.5 64.5t-37.5 139.5q0 117 103 239q82 98 120 94z" />
    <glyph glyph-name="quotedblright" unicode="&#x201d;" horiz-adv-x="777" 
d="M320 1420q32 3 72 -54q43 -62 43 -149q0 -117 -103 -240q-79 -94 -120 -94q-23 0 -23 22q0 10 36 45q91 88 91 190q0 79 -58 126q-36 29 -36 38q0 12 10 24l26 29q9 10 26 32q21 29 36 31zM641 1420q31 3 72 -54q43 -62 43 -149q0 -116 -104 -240q-79 -94 -120 -94
q-23 0 -23 22q0 10 36 45q92 87 92 190q0 79 -59 126q-36 29 -36 38q0 12 10 24l26 29q9 10 26 32q21 29 37 31z" />
    <glyph glyph-name="quoteleft" unicode="&#x2018;" horiz-adv-x="458" 
d="M433 1420q23 -2 23 -22q0 -11 -35 -45q-92 -87 -92 -190q0 -80 59 -126q36 -28 36 -38q0 -13 -36 -53q-13 -14 -26 -32q-21 -30 -36 -31q-41 -2 -78.5 64.5t-37.5 139.5q0 116 103 239q82 98 120 94z" />
    <glyph glyph-name="quoteright" unicode="&#x2019;" horiz-adv-x="457" 
d="M320 1420q32 3 73 -54q43 -62 43 -149q0 -117 -104 -240q-79 -94 -120 -94q-23 0 -23 22q0 10 36 45q92 88 92 190q0 79 -59 126q-36 29 -36 38q0 12 11 24l25 29q10 11 26 32q21 29 36 31z" />
    <glyph glyph-name="divide" unicode="&#xf7;" 
d="M546 1113q20 0 59 -45t40 -71q1 -24 -36.5 -71t-58.5 -47q-22 0 -63.5 49t-40.5 73q1 26 39.5 69t60.5 43zM546 459q20 0 59 -45t40 -71q1 -24 -36.5 -71t-58.5 -47q-22 0 -63.5 49t-40.5 73q1 26 39.5 69t60.5 43zM202 729q11 0 28 -1q64 -4 102 -4l217 -6l250 2l114 -2
q41 0 41 -23q0 -18 -17 -39l-14 -17q-20 -30 -50 -30q-21 0 -41 1q-121 6 -160 6h-173l-207 3l-67 -3q-29 -4 -41 -4q-44 0 -48 23l2 7l11 30l10 33q9 24 43 24z" />
    <glyph glyph-name="lozenge" unicode="&#x25ca;" horiz-adv-x="1365" 
d="M683 1419l532 -736l-532 -736l-532 736zM683 1237l-404 -554l404 -555l403 555z" />
    <glyph glyph-name="ydieresis" unicode="&#xff;" horiz-adv-x="724" 
d="M503 257q62 192 62 334q0 47 -23 95q-20 41 -20 66q0 61 51 61q32 0 52.5 -34t20.5 -89q0 -82 -41 -268.5t-86 -311.5q-85 -235 -178 -346.5t-205 -111.5q-49 0 -86.5 29.5t-37.5 68.5q0 61 51 61q27 0 64 -26q43 -31 70 -31q77 0 167 144q68 108 68 172q0 37 -35.5 142
t-81.5 204q-116 253 -190 253q-66 0 -85 -90l-7 -32q-3 -17 -17 -17q-19 0 -19 44q0 96 43 164t103 68q62 0 140.5 -105t156.5 -293zM257 1162q9 -1 17 -18q16 -31 42 -69q9 -13 9 -20q0 -9 -15 -23q-23 -22 -54 -61q-11 -15 -21 -15q-12 0 -21 19q-21 45 -37 65
q-9 13 -9 21q0 11 10 22l28 29q5 5 26 33q15 18 25 17zM542 1162q9 -1 17 -18q16 -31 42 -69q9 -13 9 -20q0 -9 -15 -23q-24 -23 -54 -61q-11 -15 -21 -15q-12 0 -21 19q-21 44 -37 65q-9 13 -9 21q0 11 10 22l28 29q9 10 27 33q14 18 24 17z" />
    <glyph glyph-name="Ydieresis" unicode="&#x178;" horiz-adv-x="1151" 
d="M685 535l-40 -326q-4 -34 -4 -59q0 -90 94 -108q57 -11 57 -28q0 -21 -31 -21q-12 0 -30 2q-66 9 -144 9q-69 0 -117 -5l-28 -3q-24 -3 -31 -3q-37 0 -37 20q0 15 36 25q54 14 69 37.5t26 108.5l45 372q4 33 4 39q-1 26 -19 63l-17 34l-234 486q-42 88 -74.5 118.5
t-87.5 32.5q-44 2 -44 23q0 20 30 20q13 0 33 -2q71 -8 156 -8q76 0 128 5l31 3q25 2 33 2q35 0 35 -21q0 -18 -38 -22q-62 -7 -62 -57q0 -43 33 -115l189 -412l10 -21q5 -11 12 -12t21 17l48 66q14 18 110 167l104 162q61 95 61 135q0 64 -88 64q-46 0 -46 27q0 22 33 22
q11 0 27 -2q60 -8 132 -8q64 0 107 5l26 3q23 2 28 2q26 0 26 -21q0 -17 -35 -25q-49 -12 -77.5 -42.5t-112.5 -162.5q-34 -53 -87 -131q-79 -116 -97 -144q-70 -106 -93 -137q-39 -49 -50.5 -78.5t-19.5 -95.5zM569 1738q10 -1 19 -19q17 -35 21 -40l25 -36q9 -13 9 -21
q0 -9 -16 -25q-28 -28 -58 -66q-13 -16 -23 -16q-13 0 -23 21q-22 45 -40 70q-10 14 -10 23q1 12 11 23l30 32q6 6 29 35q15 20 26 19zM909 1738q10 -1 19 -19q17 -34 21 -40l25 -36q9 -13 9 -21q0 -9 -16 -25q-29 -28 -58 -66q-13 -16 -23 -16q-13 0 -23 21q-21 45 -40 70
q-10 14 -10 23q1 12 11 23l30 32q7 8 29 35q15 20 26 19z" />
    <glyph glyph-name="fraction" unicode="&#x2215;" horiz-adv-x="231" 
d="M634 1303l-876 -1269q-33 -48 -69 -48q-37 0 -36 18q0 7 10 20l887 1290q26 37 63 37q35 0 35 -19q0 -9 -14 -29z" />
    <glyph glyph-name="currency" unicode="&#xa4;" 
d="M238 950l-118 118q-23 23 -23 29q0 9 13.5 22.5t22.5 14.5q7 1 26 -18l122 -123q120 100 268 100q150 0 268 -101l118 119q23 23 30 23q9 0 22.5 -13.5t14.5 -22.5q0 -6 -4 -11l-14 -15l-124 -123q99 -120 99 -266q0 -149 -100 -268l112 -111l17 -17q10 -11 11 -22
q1 -10 -11.5 -22t-22.5 -12q-9 0 -18 9l-15 15l-116 117q-118 -99 -267 -99t-266 98l-111 -111q-29 -28 -40 -28q-10 0 -21.5 12t-11.5 22q0 9 8 18l16 15l116 116q-100 119 -100 268q0 148 99 267zM549 998q-130 0 -222.5 -92.5t-92.5 -222.5t92.5 -222.5t222.5 -92.5
t222.5 92.5t92.5 222.5t-92.5 222.5t-222.5 92.5z" />
    <glyph glyph-name="guilsinglleft" unicode="&#x2039;" horiz-adv-x="444" 
d="M370 733q27 0 25 -22q-1 -17 -19 -41q-14 -19 -37 -57q-40 -68 -64 -108q-55 -91 -55 -109q0 -14 35 -117.5t54 -146.5q10 -22 10 -37q0 -26 -31 -26q-16 0 -30 24l-18 31l-32 59q-37 68 -98 138q-41 48 -41 74q0 30 61 86q81 73 132 138l46 59q44 55 62 55z" />
    <glyph glyph-name="guilsinglright" unicode="&#x203a;" horiz-adv-x="444" 
d="M161 733q18 0 48 -55l32 -59q35 -63 98 -138q41 -49 41 -74q0 -30 -61 -86q-81 -74 -131 -138l-46 -58q-43 -56 -62 -56q-27 0 -25 22q1 17 19 41q14 19 36 57q30 50 65 108q54 90 54 109q0 15 -35.5 120t-53.5 144q-11 22 -10 37q1 26 31 26z" />
    <glyph glyph-name="fi" unicode="&#xf001;" horiz-adv-x="970" 
d="M249 738h-134q-48 0 -48 28q0 40 55 40h138q39 213 128 359q64 104 154 166t177 62q48 0 87.5 -15.5t38.5 -33.5q-2 -34 -22.5 -79.5t-34.5 -46.5q-7 0 -22 21q-48 69 -123 69q-94 0 -164 -124t-102 -351l-4 -27h302q43 0 102 14q13 3 24 3q30 0 28 -33q0 -6 -2 -12
l-57 -276q-41 -200 -41 -312q0 -60 31 -62q19 -1 45.5 24.5t43.5 59.5q11 23 24 23q16 0 15 -21q-4 -65 -77 -143t-131 -78q-67 0 -67 166q0 74 31 252l41 238q5 31 5 49q0 24 -14 32t-56 8h-256l-59 -474q-33 -264 -52 -349t-58 -139q-83 -119 -197 -119q-30 0 -30 35
q0 56 10 97t24 42q15 1 19 -25q9 -69 54 -69q48 0 68 155l89 726q9 75 17 120z" />
    <glyph glyph-name="fl" unicode="&#xf002;" horiz-adv-x="933" 
d="M372 806h148q48 0 48 -28q0 -40 -57 -40h-147l-75 -609q-27 -218 -62 -305t-114 -131q-63 -35 -115 -35q-40 0 -40 39q0 49 14.5 91.5t30.5 42.5t20 -26q11 -69 56 -69q37 0 48 65l10 55q8 42 12 79l85 696l8 57q3 16 7 50h-133q-49 0 -49 27q0 41 57 41h136l3 10
q5 19 17 87q43 224 169 369t279 145q29 0 64 -6q14 -2 22 -2t46 9q8 2 16 2q19 0 19 -28q0 -11 -3 -31l-6 -39l-129 -851q-37 -241 -37 -309q0 -47 35 -47q55 0 124 101q19 28 33 28q15 0 15 -15q0 -28 -41 -90q-42 -62 -99.5 -103t-103.5 -41q-76 0 -76 127q0 103 28 292
l124 832q5 28 5 33q1 22 -29.5 37.5t-75.5 15.5q-82 0 -135 -57q-48 -51 -89 -171.5t-58 -258.5z" />
    <glyph glyph-name="daggerdbl" unicode="&#x2021;" 
d="M698 1217l-83 -246l-7 -24l22 -11l10 1l241 54q24 5 43 5q54 0 54 -55q0 -121 -70 -121q-25 0 -71 11l-207 49l-18 3q-15 -4 -15 -39q0 -23 6 -58q16 -89 16 -169q0 -65 -21 -124l-48 -132l-22 -65l-6 -15q2 -21 34 -14l219 49q51 11 73 11q46 0 46 -57q0 -120 -75 -120
q-18 0 -42 6l-227 53l-19 5l-13 -37l22 -247q1 -16 1 -36q0 -71 -23 -98.5t-82 -27.5q-47 0 -64.5 13t-17.5 47q0 47 18 101l82 247l8 24l-22 11l-10 -2l-241 -53q-25 -6 -43 -6q-54 0 -54 55q0 125 70 122q27 -1 70 -11l208 -49l18 -4l15 40l-6 57q-16 84 -16 172
q0 63 21 122l47 132l23 65l6 15q-2 21 -34 14l-220 -49q-48 -11 -73 -11q-46 0 -46 56q0 120 76 120q18 0 41 -5l228 -54l19 -4l13 37l-22 246q-1 11 -1 32q0 75 22 102t83 27q48 0 65 -12.5t17 -47.5q0 -45 -18 -100z" />
    <glyph glyph-name="periodcentered" unicode="&#x2219;" horiz-adv-x="462" 
d="M247 563q14 1 29 -18l28 -33q12 -14 34 -32q16 -14 15 -24t-19 -24q-57 -44 -82 -76q-15 -19 -27 -19t-24 20q-23 37 -56 67q-18 15 -18 28q0 16 24 32q25 17 37 29l31 32q16 17 28 18z" />
    <glyph glyph-name="quotesinglbase" unicode="&#x201a;" horiz-adv-x="458" 
d="M172 214q32 3 73 -54q43 -62 43 -148q0 -117 -104 -240q-79 -94 -120 -94q-23 0 -23 22q0 10 36 44q92 88 92 191q0 78 -59 125q-36 29 -36 38q0 12 11 24l25 29q9 10 26 33q21 28 36 30z" />
    <glyph glyph-name="quotedblbase" unicode="&#x201e;" horiz-adv-x="778" 
d="M172 214q32 3 72 -54q43 -62 43 -148q0 -117 -103 -240q-79 -94 -120 -94q-23 0 -23 22q0 10 36 44q92 88 92 191q0 78 -59 125q-36 29 -36 38q0 12 10 24l26 29q8 9 26 33q21 28 36 30zM493 214q31 3 72 -54q43 -62 43 -148q0 -117 -104 -240q-79 -94 -120 -94
q-23 0 -23 22q0 10 36 44q92 88 92 191q0 78 -59 125q-36 29 -36 38q0 12 10 24l26 29q9 10 26 33q21 28 37 30z" />
    <glyph glyph-name="perthousand" unicode="&#x2030;" horiz-adv-x="2149" 
d="M452 1343q103 0 164.5 -68t61.5 -182q0 -158 -92.5 -275t-217.5 -117q-99 0 -161 72.5t-62 188.5q0 155 91 268t216 113zM452 1303q-86 0 -145 -103.5t-59 -253.5q0 -93 34 -147t92 -54q82 0 141.5 108.5t59.5 257.5q0 192 -123 192zM1255 1303l-876 -1268
q-34 -49 -69 -49q-36 0 -36 18q0 7 9 21l889 1289q26 37 63 37q35 0 35 -18q0 -9 -15 -30zM1174 638q103 0 164.5 -68t61.5 -183q0 -158 -92.5 -274.5t-217.5 -116.5q-99 0 -161 72t-62 189q0 155 91 268t216 113zM1174 598q-86 0 -145.5 -103.5t-59.5 -253.5q0 -93 34 -147
t93 -54q82 0 141.5 108.5t59.5 256.5q0 193 -123 193zM1848 638q103 0 164.5 -68t61.5 -183q0 -158 -92.5 -274.5t-217.5 -116.5q-99 0 -161 72t-62 189q0 155 91 268t216 113zM1848 598q-86 0 -145.5 -103.5t-59.5 -253.5q0 -93 34 -147t93 -54q82 0 141.5 108.5
t59.5 256.5q0 193 -123 193z" />
    <glyph glyph-name="Acircumflex" unicode="&#xc2;" horiz-adv-x="1303" 
d="M853 494h-413q-47 0 -60 -5t-24 -29l-128 -256q-30 -60 -30 -96q0 -51 69 -66q67 -14 66 -34q-1 -15 -30 -15q-11 0 -26 2q-57 9 -128 9q-66 0 -131 -8q-21 -3 -33 -3q-31 0 -31 20q0 19 30 28l39 10q52 14 93 98l32 68l574 1119q19 36 38 36q20 0 31 -36l326 -1042
l29 -86q31 -98 50.5 -124t72.5 -43q29 -8 29 -25q0 -23 -41 -23q-11 0 -27 2q-59 9 -131 9q-64 0 -107 -5l-26 -3q-21 -3 -28 -3q-40 0 -40 21q0 15 46 27q76 19 76 76q0 39 -15 87l-70 218l-11 34q-8 27 -19 32.5t-52 5.5zM857 665l-131 413q-7 23 -9 33q-5 22 -15 21
q-6 -1 -16 -23q-6 -14 -15 -31l-234 -451l-10 -19q-4 -9 -4 -16q0 -11 18 -11h373q62 0 62 24q0 8 -7 25q-5 14 -12 35zM820 1753l164 -217q7 -9 7 -18q0 -16 -14 -15q-7 0 -18 7l-163 101l-246 -102q-15 -6 -24 -6q-18 0 -17 15q1 12 16 23z" />
    <glyph glyph-name="Ecircumflex" unicode="&#xca;" horiz-adv-x="1180" 
d="M228 184l118 972q5 37 5 60q0 89 -94 107q-57 11 -57 28q0 21 31 21q32 0 80 -5q97 -9 373 -9q261 0 381 10q56 4 80 4q28 0 28 -25l-2 -97l4 -150q0 -32 -23 -32q-24 0 -27 41q-6 110 -60 142t-236 32h-80l-180 4q-42 0 -54 -11t-18 -55l-53 -435q-2 -13 -2 -20
q-1 -22 43 -22h279q135 0 166 123q7 24 22 25q20 1 20 -25q0 -34 -13 -96q-14 -75 -19 -178q-4 -74 -9.5 -95.5t-20.5 -21.5q-20 0 -20 26l-2 45q0 110 -156 110h-239q-46 0 -56 -6.5t-14 -39.5l-53 -428q-1 -12 -1 -23q0 -49 30.5 -64t130.5 -15q441 0 546 160q25 37 41 37
q19 0 19 -22q0 -31 -31.5 -89t-71.5 -103q-41 -44 -79.5 -57.5t-125.5 -13.5q-42 0 -174 8q-97 6 -189 6q-104 0 -192 -7q-87 -7 -139 -7q-37 0 -37 20q0 15 36 25q54 14 69 37.5t26 108.5zM827 1753l164 -217q7 -10 7 -18q0 -16 -15 -15q-7 0 -17 7l-163 101l-246 -102
q-15 -6 -25 -6q-18 0 -17 15q1 12 16 23z" />
    <glyph glyph-name="Aacute" unicode="&#xc1;" horiz-adv-x="1303" 
d="M853 494h-413q-47 0 -60 -5t-24 -29l-128 -256q-30 -60 -30 -96q0 -51 69 -66q67 -14 66 -34q-1 -15 -30 -15q-11 0 -26 2q-57 9 -128 9q-66 0 -131 -8q-21 -3 -33 -3q-31 0 -31 20q0 19 30 28l39 10q52 14 93 98l32 68l574 1119q19 36 38 36q20 0 31 -36l326 -1042
l29 -86q31 -98 50.5 -124t72.5 -43q29 -8 29 -25q0 -23 -41 -23q-11 0 -27 2q-59 9 -131 9q-64 0 -107 -5l-26 -3q-21 -3 -28 -3q-40 0 -40 21q0 15 46 27q76 19 76 76q0 39 -15 87l-70 218l-11 34q-8 27 -19 32.5t-52 5.5zM857 665l-131 413q-7 23 -9 33q-5 22 -15 21
q-6 -1 -16 -23q-6 -14 -15 -31l-234 -451l-10 -19q-4 -9 -4 -16q0 -11 18 -11h373q62 0 62 24q0 8 -7 25q-5 14 -12 35zM736 1577l144 112q49 38 78 38q30 0 53 -25.5t23 -58.5q0 -61 -83 -80l-186 -41q-29 -6 -37 -6q-25 0 -25 20q0 15 33 41z" />
    <glyph glyph-name="Edieresis" unicode="&#xcb;" horiz-adv-x="1180" 
d="M228 184l118 972q5 37 5 60q0 89 -94 107q-57 11 -57 28q0 21 31 21q32 0 80 -5q97 -9 373 -9q261 0 381 10q56 4 80 4q28 0 28 -25l-2 -97l4 -150q0 -32 -23 -32q-24 0 -27 41q-6 110 -60 142t-236 32h-80l-180 4q-42 0 -54 -11t-18 -55l-53 -435q-2 -13 -2 -20
q-1 -22 43 -22h279q135 0 166 123q7 24 22 25q20 1 20 -25q0 -34 -13 -96q-14 -75 -19 -178q-4 -74 -9.5 -95.5t-20.5 -21.5q-20 0 -20 26l-2 45q0 110 -156 110h-239q-46 0 -56 -6.5t-14 -39.5l-53 -428q-1 -12 -1 -23q0 -49 30.5 -64t130.5 -15q441 0 546 160q25 37 41 37
q19 0 19 -22q0 -31 -31.5 -89t-71.5 -103q-41 -44 -79.5 -57.5t-125.5 -13.5q-42 0 -174 8q-97 6 -189 6q-104 0 -192 -7q-87 -7 -139 -7q-37 0 -37 20q0 15 36 25q54 14 69 37.5t26 108.5zM583 1738q10 -1 19 -19q18 -35 46 -76q9 -13 9 -21q0 -9 -16 -25q-29 -28 -58 -66
q-13 -16 -23 -16q-13 0 -23 21q-22 47 -40 70q-10 14 -10 23q0 12 11 23l30 32q5 5 29 35q15 20 26 19zM923 1738q10 -1 19 -19q18 -36 46 -76q9 -13 9 -21q0 -9 -16 -25q-30 -29 -58 -66q-13 -16 -23 -16q-13 0 -23 21q-22 45 -40 70q-10 14 -10 23q1 12 11 23l30 32
q8 9 29 35q15 20 26 19z" />
    <glyph glyph-name="Egrave" unicode="&#xc8;" horiz-adv-x="1180" 
d="M228 184l118 972q5 37 5 60q0 89 -94 107q-57 11 -57 28q0 21 31 21q32 0 80 -5q97 -9 373 -9q261 0 381 10q56 4 80 4q28 0 28 -25l-2 -97l4 -150q0 -32 -23 -32q-24 0 -27 41q-6 110 -60 142t-236 32h-80l-180 4q-42 0 -54 -11t-18 -55l-53 -435q-2 -13 -2 -20
q-1 -22 43 -22h279q135 0 166 123q7 24 22 25q20 1 20 -25q0 -34 -13 -96q-14 -75 -19 -178q-4 -74 -9.5 -95.5t-20.5 -21.5q-20 0 -20 26l-2 45q0 110 -156 110h-239q-46 0 -56 -6.5t-14 -39.5l-53 -428q-1 -12 -1 -23q0 -49 30.5 -64t130.5 -15q441 0 546 160q25 37 41 37
q19 0 19 -22q0 -31 -31.5 -89t-71.5 -103q-41 -44 -79.5 -57.5t-125.5 -13.5q-42 0 -174 8q-97 6 -189 6q-104 0 -192 -7q-87 -7 -139 -7q-37 0 -37 20q0 15 36 25q54 14 69 37.5t26 108.5zM650 1713l156 -142q25 -23 25 -36q0 -20 -24 -20q-14 0 -36 7l-175 52
q-87 26 -87 87q0 33 23 57t55 24q31 0 63 -29z" />
    <glyph glyph-name="Iacute" unicode="&#xcd;" horiz-adv-x="649" 
d="M227 184l119 972q4 30 4 60q0 89 -93 107q-57 11 -57 28q0 21 34 21q7 0 27 -2l23 -3q50 -5 123 -5q71 0 118 5l30 3q25 2 31 2q37 0 37 -20q0 -15 -20 -20l-16 -5q-54 -15 -69 -37.5t-25 -108.5l-120 -972q-4 -36 -4 -59q0 -89 94 -108q57 -11 57 -28q0 -21 -31 -21
q-12 0 -30 2q-68 9 -147 9q-70 0 -118 -5l-29 -3q-24 -3 -31 -3q-37 0 -37 20q0 15 35 25q79 20 89 94zM388 1577l144 112q48 38 78 38t53 -25.5t23 -57.5q0 -62 -83 -81l-187 -41l-19 -4q-11 -2 -20 -2q-22 1 -22 20q0 15 33 41z" />
    <glyph glyph-name="Icircumflex" unicode="&#xce;" horiz-adv-x="648" 
d="M227 184l119 972q4 30 4 60q0 89 -93 107q-57 11 -57 28q0 21 34 21q7 0 27 -2l23 -3q50 -5 123 -5q71 0 118 5l30 3q25 2 31 2q37 0 37 -20q0 -15 -20 -20l-16 -5q-54 -15 -69 -37.5t-25 -108.5l-120 -972q-4 -36 -4 -59q0 -89 94 -108q57 -11 57 -28q0 -21 -31 -21
q-12 0 -30 2q-68 9 -147 9q-70 0 -118 -5l-29 -3q-24 -3 -31 -3q-37 0 -37 20q0 15 35 25q79 20 89 94zM513 1753l164 -217q7 -9 7 -18q0 -16 -14 -15q-7 0 -18 7l-163 101l-246 -102q-15 -6 -24 -6q-18 0 -17 15q1 12 16 23z" />
    <glyph glyph-name="Idieresis" unicode="&#xcf;" horiz-adv-x="648" 
d="M227 184l119 972q4 30 4 60q0 89 -93 107q-57 11 -57 28q0 21 34 21q7 0 27 -2l23 -3q50 -5 123 -5q71 0 118 5l30 3q25 2 31 2q37 0 37 -20q0 -15 -20 -20l-16 -5q-54 -15 -69 -37.5t-25 -108.5l-120 -972q-4 -36 -4 -59q0 -89 94 -108q57 -11 57 -28q0 -21 -31 -21
q-12 0 -30 2q-68 9 -147 9q-70 0 -118 -5l-29 -3q-24 -3 -31 -3q-37 0 -37 20q0 15 35 25q79 20 89 94zM331 1738q10 -1 19 -19q18 -35 46 -76q9 -13 9 -21q0 -9 -16 -25q-30 -29 -58 -66q-13 -16 -23 -16q-13 0 -23 21q-22 45 -40 70q-10 14 -10 23q1 12 11 23l30 32
q5 6 29 35q15 20 26 19zM602 1738q10 -1 19 -19q18 -35 46 -76q9 -13 9 -21q0 -9 -16 -25q-30 -29 -58 -66q-13 -16 -23 -16q-13 0 -23 21q-21 45 -40 70q-10 14 -10 23q1 12 11 23l30 32q5 6 29 35q15 20 26 19z" />
    <glyph glyph-name="Igrave" unicode="&#xcc;" horiz-adv-x="649" 
d="M227 184l119 972q4 30 4 60q0 89 -93 107q-57 11 -57 28q0 21 34 21q7 0 27 -2l23 -3q50 -5 123 -5q71 0 118 5l30 3q25 2 31 2q37 0 37 -20q0 -15 -20 -20l-16 -5q-54 -15 -69 -37.5t-25 -108.5l-120 -972q-4 -36 -4 -59q0 -89 94 -108q57 -11 57 -28q0 -21 -31 -21
q-12 0 -30 2q-68 9 -147 9q-70 0 -118 -5l-29 -3q-24 -3 -31 -3q-37 0 -37 20q0 15 35 25q79 20 89 94zM384 1713l156 -142q24 -22 25 -36q1 -20 -24 -20q-14 0 -36 7l-175 52q-87 26 -87 87q0 33 23 57t55 24q31 0 63 -29z" />
    <glyph glyph-name="Oacute" unicode="&#xd3;" horiz-adv-x="1511" 
d="M826 1386q277 0 458.5 -186.5t181.5 -469.5q0 -248 -128 -450q-190 -300 -578 -300q-296 0 -470.5 171.5t-174.5 461.5q0 321 208 547t503 226zM798 1332q-225 0 -375 -195.5t-150 -488.5q0 -265 141.5 -437t359.5 -172q232 0 379 198.5t147 511.5q0 308 -178 460
q-146 123 -324 123zM813 1577l144 112q48 38 78 38t53 -25.5t23 -58.5q0 -61 -83 -80l-187 -41q-28 -6 -36 -6q-25 0 -25 20q0 12 15 26z" />
    <glyph glyph-name="Ocircumflex" unicode="&#xd4;" horiz-adv-x="1511" 
d="M826 1386q277 0 458.5 -186.5t181.5 -469.5q0 -248 -128 -450q-190 -300 -578 -300q-296 0 -470.5 171.5t-174.5 461.5q0 321 208 547t503 226zM798 1332q-225 0 -375 -195.5t-150 -488.5q0 -265 141.5 -437t359.5 -172q232 0 379 198.5t147 511.5q0 308 -178 460
q-146 123 -324 123zM965 1753l164 -217q7 -9 7 -18q0 -16 -14 -15q-7 0 -18 7l-163 101l-246 -102q-15 -6 -24 -6q-18 0 -17 15q1 12 16 23z" />
    <glyph glyph-name="Ograve" unicode="&#xd2;" horiz-adv-x="1511" 
d="M826 1386q277 0 458.5 -186.5t181.5 -469.5q0 -248 -128 -450q-190 -300 -578 -300q-296 0 -470.5 171.5t-174.5 461.5q0 321 208 547t503 226zM798 1332q-225 0 -375 -195.5t-150 -488.5q0 -265 141.5 -437t359.5 -172q232 0 379 198.5t147 511.5q0 308 -178 460
q-146 123 -324 123zM816 1713l156 -142q24 -22 24 -36q0 -20 -23 -20q-14 0 -37 7l-174 52q-88 27 -88 87q0 33 23 57t56 24q30 0 63 -29z" />
    <glyph glyph-name="Uacute" unicode="&#xda;" horiz-adv-x="1478" 
d="M1296 1002l19 154q4 36 4 60q0 89 -94 107q-57 11 -57 28q0 21 31 21q10 0 25 -2q55 -8 123 -8q60 0 99 5l25 3q21 2 26 2q36 0 36 -19q0 -16 -36 -25q-54 -14 -70.5 -38t-28.5 -109l-87 -580q-49 -330 -199 -475.5t-442 -145.5q-232 0 -354 107q-104 91 -104 299
q0 52 6 118l60 677q4 48 4 69q0 58 -69 78l-15 4q-15 4 -15 16q0 24 42 24q11 0 25 -2q54 -8 120 -8q60 0 99 5l24 3q20 2 25 2q37 0 37 -20q0 -15 -20 -20l-16 -5q-54 -15 -69 -38t-25 -108l-29 -238q-16 -127 -20 -182l-15 -199q-7 -102 -7 -165q0 -166 91.5 -257
t257.5 -91q204 0 342 115q78 65 116 149.5t69 265.5l35 202q11 64 31 221zM824 1577l144 112q48 38 78 38t53 -25t23 -59q0 -61 -84 -80l-186 -41q-28 -6 -37 -6q-24 0 -24 20q0 15 33 41z" />
    <glyph glyph-name="Ucircumflex" unicode="&#xdb;" horiz-adv-x="1478" 
d="M1296 1002l19 154q4 36 4 60q0 89 -94 107q-57 11 -57 28q0 21 31 21q10 0 25 -2q55 -8 123 -8q60 0 99 5l25 3q21 2 26 2q36 0 36 -19q0 -16 -36 -25q-54 -14 -70.5 -38t-28.5 -109l-87 -580q-49 -330 -199 -475.5t-442 -145.5q-232 0 -354 107q-104 91 -104 299
q0 52 6 118l60 677q4 48 4 69q0 58 -69 78l-15 4q-15 4 -15 16q0 24 42 24q11 0 25 -2q54 -8 120 -8q60 0 99 5l24 3q20 2 25 2q37 0 37 -20q0 -15 -20 -20l-16 -5q-54 -15 -69 -38t-25 -108l-29 -238q-16 -127 -20 -182l-15 -199q-7 -102 -7 -165q0 -166 91.5 -257
t257.5 -91q204 0 342 115q78 65 116 149.5t69 265.5l35 202q11 64 31 221zM949 1753l164 -217q7 -10 7 -18q0 -16 -15 -15q-7 0 -17 7l-163 101l-246 -102q-15 -6 -25 -6q-18 0 -17 15q1 12 17 23z" />
    <glyph glyph-name="Ugrave" unicode="&#xd9;" horiz-adv-x="1478" 
d="M1296 1002l19 154q4 36 4 60q0 89 -94 107q-57 11 -57 28q0 21 31 21q10 0 25 -2q55 -8 123 -8q60 0 99 5l25 3q21 2 26 2q36 0 36 -19q0 -16 -36 -25q-54 -14 -70.5 -38t-28.5 -109l-87 -580q-49 -330 -199 -475.5t-442 -145.5q-232 0 -354 107q-104 91 -104 299
q0 52 6 118l60 677q4 48 4 69q0 58 -69 78l-15 4q-15 4 -15 16q0 24 42 24q11 0 25 -2q54 -8 120 -8q60 0 99 5l24 3q20 2 25 2q37 0 37 -20q0 -15 -20 -20l-16 -5q-54 -15 -69 -38t-25 -108l-29 -238q-16 -127 -20 -182l-15 -199q-7 -102 -7 -165q0 -166 91.5 -257
t257.5 -91q204 0 342 115q78 65 116 149.5t69 265.5l35 202q11 64 31 221zM799 1713l157 -142q24 -23 24 -36q0 -20 -24 -20q-13 0 -36 7l-174 52q-88 26 -88 87q0 33 23 57t56 24q30 0 62 -29z" />
    <glyph glyph-name="dotlessi" unicode="&#x131;" horiz-adv-x="502" 
d="M177 410l42 248q5 27 5 49q0 40 -59 40h-54q-44 0 -43 20q1 23 43 23q92 0 178 17q33 6 51 6q21 0 21 -24l-1 -11l-56 -276q-42 -205 -42 -312q0 -60 31 -62q45 -3 89 83q11 23 24 23q16 0 15 -21q-4 -65 -77 -142.5t-130 -77.5q-30 0 -49 44.5t-19 114.5q0 79 31 258z
" />
    <glyph glyph-name="circumflex" unicode="&#x2c6;" 
d="M653 1220l131 -257l8 -19q2 -14 -16 -14q-10 0 -17 6l-131 136l-216 -136q-11 -7 -22 -7q-21 0 -20 16q1 8 17 23z" />
    <glyph glyph-name="tilde" unicode="&#x2dc;" 
d="M536 1127q29 0 51 -15l26 -17q40 -26 72 -26q45 0 84 41q25 26 32 26q12 -1 12 -16q0 -25 -43 -84q-58 -77 -120 -77q-35 0 -88 37q-40 29 -77 29q-38 0 -72 -45q-15 -20 -26 -20q-15 0 -15 14q0 22 33 65q68 88 131 88z" />
    <glyph glyph-name="macron" unicode="&#xaf;" 
d="M479 1012q-24 0 -64 -2q-18 -1 -23 -1q-33 0 -32 16q0 5 13 34l10 25q8 18 34 18h14l56 -2l118 -3h137l62 -1q27 0 26 -19q-2 -28 -22 -49t-45 -21h-16q-62 4 -87 4h-95z" />
    <glyph glyph-name="macron" unicode="&#x2c9;" 
d="M479 1012q-24 0 -64 -2q-18 -1 -23 -1q-33 0 -32 16q0 5 13 34l10 25q8 18 34 18h14l56 -2l118 -3h137l62 -1q27 0 26 -19q-2 -28 -22 -49t-45 -21h-16q-62 4 -87 4h-95z" />
    <glyph glyph-name="breve" unicode="&#x2d8;" 
d="M400 1167q12 0 22 -18l12 -22q49 -90 154 -90q103 0 200 111q15 18 26 18q18 0 17 -15q-3 -42 -60 -108q-83 -96 -194 -96q-81 0 -139.5 56t-58.5 133q0 31 21 31z" />
    <glyph glyph-name="dotaccent" unicode="&#x2d9;" 
d="M605 1162q9 -1 17 -18q16 -31 19 -36l23 -33q9 -13 9 -20q0 -9 -15 -23q-23 -22 -54 -61q-11 -15 -21 -15q-12 0 -21 19q-21 45 -37 65q-9 13 -9 21q0 11 10 22l28 29q7 8 26 33q15 18 25 17z" />
    <glyph glyph-name="ring" unicode="&#x2da;" 
d="M596 1209q74 0 125 -41.5t51 -102.5q0 -60 -51.5 -101.5t-124.5 -41.5q-76 0 -127.5 41.5t-51.5 101.5q0 61 51.5 102.5t127.5 41.5zM593 1160q-39 0 -65.5 -27t-26.5 -68t26.5 -68t65.5 -27q42 0 68.5 27t26.5 68t-26.5 68t-68.5 27z" />
    <glyph glyph-name="cedilla" unicode="&#xb8;" 
d="M518 0l-36 -136q63 -8 98.5 -40t35.5 -80q0 -49 -39 -82.5t-97 -33.5q-76 0 -137 58q-32 32 -33 44q-1 11 10 11q6 0 14 -6q62 -47 112 -47q29 0 49.5 20.5t20.5 48.5q0 48 -78 78l45 165h35z" />
    <glyph glyph-name="hungarumlaut" unicode="&#x2dd;" 
d="M678 994l77 143q33 60 73 60q30 0 52.5 -21.5t22.5 -50.5q0 -38 -47 -74l-136 -102q-24 -17 -37 -17q-19 0 -20 19q-1 14 15 43zM432 994l78 143q32 60 72 60q30 0 52.5 -21.5t22.5 -50.5q0 -38 -47 -74l-136 -102q-23 -17 -37 -17q-20 0 -20 19q0 15 15 43z" />
    <glyph glyph-name="ogonek" unicode="&#x2db;" horiz-adv-x="993" 
d="M470 0h62q-88 -69 -88 -132q0 -36 27 -58.5t69 -22.5q24 0 43 6l27 9l9 2q8 -1 8 -10q0 -27 -53.5 -53.5t-108.5 -26.5q-54 0 -89.5 31.5t-35.5 81.5q0 89 130 173z" />
    <glyph glyph-name="caron" unicode="&#x2c7;" 
d="M542 930l-131 258q-7 13 -8 18q-1 14 16 14q10 0 16 -6l132 -135l216 135q10 7 21 7q23 0 21 -15q-1 -8 -17 -23z" />
    <glyph glyph-name="Scaron" unicode="&#x160;" horiz-adv-x="902" 
d="M433 876l230 -240q155 -161 155 -322q0 -150 -121 -242.5t-317 -92.5q-204 0 -252 41q-22 19 -43.5 95.5t-21.5 132.5q0 35 23 35q15 0 24 -26q36 -102 123 -162.5t197 -60.5q114 0 188 65.5t74 166.5q0 56 -27 106t-98 127l-228 246q-101 109 -138.5 185.5t-37.5 174.5
q0 122 86.5 201.5t218.5 79.5q81 0 217 -46q40 -13 45 -13q10 1 32 14q11 7 21 8q25 1 25 -59v-33l21 -194q2 -31 -26 -31q-24 0 -36 46q-31 111 -119 184.5t-191 73.5q-75 0 -122.5 -49t-47.5 -126q0 -134 146 -285zM493 1502l-163 217q-8 9 -8 18q-1 16 14 15q8 0 18 -7
l163 -101l246 102q15 6 25 6q18 0 17 -15q-1 -12 -17 -23z" />
    <glyph glyph-name="scaron" unicode="&#x161;" horiz-adv-x="594" 
d="M290 555l142 -153q67 -73 67 -174t-80 -171.5t-195 -70.5q-87 0 -148.5 36t-61.5 87q0 63 60 63q35 0 65 -50l21 -37q28 -48 82 -48q59 0 102.5 37.5t43.5 88.5q0 81 -80 164l-112 116q-77 80 -77 171q0 97 65.5 151.5t180.5 54.5q160 0 160 -93q0 -62 -62 -62
q-31 0 -52 31l-22 31q-31 46 -83 46q-86 0 -86 -94q0 -48 70 -124zM354 930l-131 258q-7 13 -8 18q-1 14 16 14q10 0 16 -6l132 -135l216 135q10 7 21 7q23 0 21 -15q-1 -8 -17 -23z" />
    <glyph glyph-name="brokenbar" unicode="&#xa6;" 
d="M468 1365h87v-675h-87v675zM468 314h87v-655h-87v655z" />
    <glyph glyph-name="Eth" unicode="&#xd0;" horiz-adv-x="1381" 
d="M269 679h-104q-48 0 -48 26q0 36 56 36h104l50 415q5 38 5 60q0 89 -94 107q-57 11 -57 28q0 21 31 21q23 0 79 -9q42 -6 78 -6q39 0 151 8q111 7 215 7q293 0 459 -143t166 -395q0 -213 -99 -404t-270 -310q-100 -68 -215 -97.5t-285 -29.5q-84 0 -167 8q-64 6 -85 6
q-27 0 -63 -6q-46 -8 -61 -8q-37 0 -37 20q0 15 35 25q79 20 89 94l6 52zM412 679l-61 -501q-4 -30 -4 -55q0 -45 26 -58.5t113 -13.5q160 0 259.5 29t186.5 102q117 97 193.5 282t76.5 370q0 249 -185 385q-125 92 -346 92q-122 0 -154.5 -22t-43.5 -112l-54 -436h293
q48 0 48 -26q0 -36 -56 -36h-292z" />
    <glyph glyph-name="eth" unicode="&#xf0;" horiz-adv-x="819" 
d="M496 1276l215 117l19 11q9 4 19 4q26 0 26 -25q0 -19 -37 -39l-199 -107q233 -241 233 -620q0 -284 -112.5 -457.5t-297.5 -173.5q-134 0 -213.5 91.5t-79.5 246.5q0 113 45.5 225.5t118.5 178.5q100 90 234 90q110 0 173 -103q-19 275 -172 478l-203 -113
q-26 -14 -39 -14q-28 0 -28 23q0 17 38 39l196 108q-72 81 -208 138q-28 12 -28 31q0 21 21 21q36 0 127 -49t152 -101zM470 768q-114 0 -190.5 -129t-76.5 -320q0 -279 170 -279q100 0 165 113q37 63 62 165t25 188q0 262 -155 262z" />
    <glyph glyph-name="Yacute" unicode="&#xdd;" horiz-adv-x="1151" 
d="M685 535l-40 -326q-4 -34 -4 -59q0 -90 94 -108q57 -11 57 -28q0 -21 -31 -21q-12 0 -30 2q-66 9 -144 9q-69 0 -117 -5l-28 -3q-24 -3 -31 -3q-37 0 -37 20q0 15 36 25q54 14 69 37.5t26 108.5l45 372q4 33 4 39q-1 26 -19 63l-17 34l-234 486q-42 88 -74.5 118.5
t-87.5 32.5q-44 2 -44 23q0 20 30 20q13 0 33 -2q71 -8 156 -8q76 0 128 5l31 3q25 2 33 2q35 0 35 -21q0 -18 -38 -22q-62 -7 -62 -57q0 -43 33 -115l189 -412l10 -21q5 -11 12 -12t21 17l48 66q14 18 110 167l104 162q61 95 61 135q0 64 -88 64q-46 0 -46 27q0 22 33 22
q11 0 27 -2q60 -8 132 -8q64 0 107 5l26 3q23 2 28 2q26 0 26 -21q0 -17 -35 -25q-49 -12 -77.5 -42.5t-112.5 -162.5q-34 -53 -87 -131q-79 -116 -97 -144q-70 -106 -93 -137q-39 -49 -50.5 -78.5t-19.5 -95.5zM702 1577l143 112q49 38 79 38t53 -25.5t23 -58.5
q0 -61 -84 -80l-186 -41q-28 -6 -37 -6q-24 0 -24 20q0 16 33 41z" />
    <glyph glyph-name="yacute" unicode="&#xfd;" horiz-adv-x="724" 
d="M503 257q62 192 62 334q0 47 -23 95q-20 41 -20 66q0 61 51 61q32 0 52.5 -34t20.5 -89q0 -82 -41 -268.5t-86 -311.5q-85 -235 -178 -346.5t-205 -111.5q-49 0 -86.5 29.5t-37.5 68.5q0 61 51 61q27 0 64 -26q43 -31 70 -31q77 0 167 144q68 108 68 172q0 37 -35.5 142
t-81.5 204q-116 253 -190 253q-66 0 -85 -90l-7 -32q-3 -17 -17 -17q-19 0 -19 44q0 96 43 164t103 68q62 0 140.5 -105t156.5 -293zM348 994l106 143q44 59 83 59q30 0 51.5 -20t21.5 -48q0 -45 -58 -80l-165 -99q-27 -16 -42 -17q-19 -1 -19 19q0 14 22 43z" />
    <glyph glyph-name="Thorn" unicode="&#xde;" horiz-adv-x="992" 
d="M477 1151q117 11 180 11q171 0 266 -85.5t95 -238.5q0 -132 -77 -242.5t-198 -153.5q-65 -23 -165 -23q-42 0 -55 2l-37 4q-52 7 -50 25q1 13 26 13l16 -1q39 -2 64 -2q133 0 227.5 103t94.5 249q0 121 -89.5 205t-217.5 84q-57 0 -75.5 -28.5t-31.5 -136.5l-89 -727
q-4 -36 -4 -59q0 -90 106 -108q65 -11 65 -27q0 -22 -51 -22q-14 0 -32 2q-67 9 -147 9q-65 0 -114 -5l-30 -3q-25 -3 -32 -3q-37 0 -37 20q0 15 35 25q79 20 89 94l6 52l119 972q4 30 4 60q0 89 -93 107q-57 11 -57 28q0 21 31 21q16 0 78 -7q26 -3 98 -3q71 0 118 5l30 3
q25 2 31 2q37 0 37 -20q0 -15 -20 -20l-16 -5q-54 -15 -69 -38.5t-25 -107.5z" />
    <glyph glyph-name="thorn" unicode="&#xfe;" horiz-adv-x="918" 
d="M379 798q95 16 149 16q155 0 245.5 -73.5t90.5 -199.5q0 -109 -55 -226.5t-141 -193.5q-131 -115 -284 -115q-33 0 -49 3q-20 3 -29 3q-24 0 -30 -48l-18 -151q-2 -12 -2 -34q0 -39 18 -53t78 -22l31 -5q30 -4 31 -21q2 -27 -40 -27q-25 0 -46 3l-17 3q-33 5 -92 5
q-60 0 -92 -5l-22 -3q-18 -2 -29 -2q-41 0 -41 28q0 17 27 23q47 10 59.5 28.5t21.5 93.5l110 895q-37 -11 -68 -22l-28 -12l-13 -4q-8 -4 -15 -4q-10 0 -11 10q-2 27 34 41l44 18q7 3 38 14q9 3 25 9l61 496q5 41 5 54q0 35 -55 35h-51q-41 0 -40 19q1 22 40 23
q115 6 167 17q29 6 46 6q18 0 19 -23v-12zM372 745l-74 -601q-2 -18 -2 -36q0 -51 86 -51q143 0 244 132.5t101 319.5q0 244 -270 244q-34 0 -85 -8z" />
    <glyph glyph-name="multiply" unicode="&#xd7;" 
d="M616 670l65 -62q44 -43 81 -78q53 -52 76 -71q36 -31 36 -49q0 -7 -3 -14l-19 -32l-11 -33q-4 -6 -12 -7q-19 -1 -66 54q-23 28 -82 85l-77 76l-60 59q-42 -40 -61 -59l-77 -76q-69 -69 -82 -85q-41 -52 -60 -52q-14 0 -34 43l-13 27q-4 9 -4 15q1 15 37 47q25 22 76 71
q68 67 146 141l-35 35l-51 50q-74 73 -118 110q-45 38 -46 60l2 22l4 37q0 8 11 19t18 11q10 0 27 -17q5 -6 83 -81q18 -16 96 -96q27 -28 81 -81l41 41q121 123 135 136q68 66 83 81q17 17 27 17q11 0 27.5 -29t16.5 -50q0 -20 -55 -70l-68 -64q-59 -54 -135 -131z" />
    <glyph glyph-name="onesuperior" unicode="&#xb9;" horiz-adv-x="679" 
d="M506 1183l-60 -490q-3 -25 -3 -39q0 -60 65 -60q46 0 45 -27q-1 -25 -35 -25q-6 0 -20 1l-17 2q-37 3 -90 3q-52 0 -87 -3l-22 -2h-11q-8 -1 -13 -1q-29 0 -29 23q0 26 39 28q44 3 57 21t21 88l56 454q3 27 4 50q1 26 -21 26q-13 0 -43 -11q-15 -5 -27 -5q-21 0 -19 23
q1 19 32 32l51 21q69 30 104 59q20 16 31 16q21 0 21 -20q0 -14 -7 -41q-13 -48 -22 -123z" />
    <glyph glyph-name="twosuperior" unicode="&#xb2;" horiz-adv-x="679" 
d="M421 850l-139 -174q-14 -17 -14 -22q1 -12 33 -12h31l68 -1q68 0 99.5 10t63.5 44q21 20 35 20q27 0 26 -19q0 -8 -14 -27l-78 -106q-15 -21 -30 -21q-10 0 -32 3q-46 5 -137 5q-126 0 -160 -5q-18 -3 -33 -3q-25 0 -25 21q0 12 25 40l114 131q94 108 162.5 238.5
t68.5 203.5q0 97 -93 97q-70 0 -116 -36l-42 -33q-11 -8 -23 -8q-23 0 -22 21q2 30 68 81q77 59 168 59q79 0 130.5 -41.5t51.5 -104.5q0 -130 -186 -361z" />
    <glyph glyph-name="threesuperior" unicode="&#xb3;" horiz-adv-x="679" 
d="M462 1033q80 -15 115 -51.5t35 -105.5q0 -137 -100 -237.5t-237 -100.5q-57 0 -111.5 24t-54.5 50q0 28 28 28q10 0 26 -7q65 -32 112 -32q85 0 151 72t66 164q0 125 -129 125q-18 0 -26 -1l-20 -2q-22 -1 -22 21q0 18 28 28q64 23 112 77.5t48 104.5q0 84 -90 84
q-50 0 -87 -30l-38 -30q-12 -10 -26 -11q-25 -1 -25 22q0 25 57 69q82 63 164 63q72 0 113.5 -34t41.5 -94q0 -92 -131 -196z" />
    <glyph glyph-name="onehalf" unicode="&#xbd;" horiz-adv-x="1590" 
d="M506 1183l-60 -490q-3 -25 -3 -39q0 -60 65 -60q46 0 45 -27q-1 -25 -35 -25q-6 0 -20 1l-17 2q-37 3 -90 3q-52 0 -87 -3l-22 -2h-11q-8 -1 -13 -1q-29 0 -29 23q0 26 39 28q44 3 57 21t21 88l56 454q3 27 4 50q1 26 -21 26q-13 0 -43 -11q-15 -5 -27 -5q-21 0 -19 23
q1 19 32 32l51 21q69 30 104 59q20 16 31 16q21 0 21 -20q0 -14 -7 -41q-13 -48 -22 -123zM1312 1303l-875 -1269q-34 -48 -70 -48q-37 0 -36 18q0 6 10 20l888 1290q25 37 63 37q35 0 35 -19q0 -8 -15 -29zM1265 304l-139 -173q-14 -18 -14 -23q1 -12 33 -12h31l68 -1
q68 0 99.5 10t63.5 44q21 20 35 20q27 0 26 -19q0 -8 -14 -26l-78 -106l-11 -15q-6 -7 -20 -7q-10 0 -32 3q-45 5 -136 5q-126 0 -160 -5q-19 -3 -33 -3q-25 0 -25 21q0 13 24 40l115 131q94 108 162 239t68 204q0 97 -93 97q-70 0 -116 -36l-42 -33q-9 -7 -21 -8
q-26 -2 -24 21q2 29 68 81q77 59 168 59q79 0 130.5 -41.5t51.5 -104.5q0 -132 -185 -362z" />
    <glyph glyph-name="onequarter" unicode="&#xbc;" horiz-adv-x="1590" 
d="M506 1183l-60 -490q-3 -25 -3 -39q0 -60 65 -60q46 0 45 -27q-1 -25 -35 -25q-6 0 -20 1l-17 2q-37 3 -90 3q-52 0 -87 -3l-22 -2h-11q-8 -1 -13 -1q-29 0 -29 23q0 26 39 28q44 3 57 21t21 88l56 454q3 27 4 50q1 26 -21 26q-13 0 -43 -11q-15 -5 -27 -5q-21 0 -19 23
q1 19 32 32l51 21q69 30 104 59q20 16 31 16q21 0 21 -20q0 -14 -7 -41q-13 -48 -22 -123zM1312 1303l-875 -1269q-34 -48 -70 -48q-37 0 -36 18q0 6 10 20l888 1290q25 37 63 37q35 0 35 -19q0 -8 -15 -29zM1278 246h-281q-41 0 -41 25q0 21 52 81q7 9 65 81
q82 102 149 176l126 141l47 52q18 18 35 18q23 0 23 -20q0 -6 -2 -14l-11 -53q-4 -23 -9 -59l-41 -342h13q30 0 58 24q23 20 38 20q19 0 20 -18q0 -5 -2 -10l-33 -81q-8 -21 -31 -21h-74l-34 -277q-4 -30 -36 -37q-22 -6 -28 -7q-14 -5 -24 -4q-27 1 -27 28q0 6 3 14
q18 62 22 93zM1288 332l37 302q-104 -101 -254 -302h217z" />
    <glyph glyph-name="threequarters" unicode="&#xbe;" horiz-adv-x="1590" 
d="M462 1033q80 -15 115 -51.5t35 -105.5q0 -137 -100 -237.5t-237 -100.5q-57 0 -111.5 24t-54.5 50q0 28 28 28q10 0 26 -7q65 -32 112 -32q85 0 151 72t66 164q0 125 -129 125q-18 0 -26 -1l-20 -2q-22 -1 -22 21q0 18 28 28q64 23 112 77.5t48 104.5q0 84 -90 84
q-50 0 -87 -30l-38 -30q-12 -10 -26 -11q-25 -1 -25 22q0 25 57 69q82 63 164 63q72 0 113.5 -34t41.5 -94q0 -92 -131 -196zM1312 1303l-876 -1269q-33 -48 -69 -48q-37 0 -36 18q0 6 10 20l888 1290q25 37 63 37q35 0 35 -19q0 -8 -15 -29zM1278 246h-282q-40 0 -40 24
q0 22 52 82q9 11 65 81q83 104 148 176l127 141l46 52q19 18 36 18q23 0 23 -20q0 -6 -2 -14q-15 -69 -20 -112l-42 -342h14q30 0 58 24q22 20 38 20q20 0 20 -18q0 -6 -2 -10l-33 -81q-8 -21 -31 -21h-74l-34 -277q-4 -30 -36 -37q-23 -6 -28 -7q-13 -4 -24 -4
q-27 0 -27 28q0 5 3 14q17 57 21 93zM1288 332l37 302q-107 -104 -254 -302h217z" />
    <glyph glyph-name="glyph240" horiz-adv-x="1303" 
d="M627 1738q10 -1 19 -19q17 -35 21 -40l25 -36q9 -13 9 -21q0 -9 -16 -25q-28 -28 -58 -66q-13 -16 -23 -16q-13 0 -23 21q-22 45 -40 70q-10 14 -10 23q1 12 11 23l30 32q6 6 29 35q15 20 26 19zM967 1738q10 -1 19 -19q17 -35 21 -40l25 -36q9 -13 9 -21q0 -9 -16 -25
q-27 -26 -58 -66q-13 -16 -23 -16q-13 0 -23 21q-21 45 -40 70q-10 14 -10 23q1 12 11 23l30 32q7 8 29 35q15 20 26 19z" />
    <glyph glyph-name="glyph241" horiz-adv-x="1303" 
d="M736 1577l144 112q49 38 78 38q30 0 53 -25.5t23 -58.5q0 -61 -83 -80l-186 -41q-29 -6 -37 -6q-25 0 -25 20q0 15 33 41z" />
    <glyph glyph-name="glyph242" horiz-adv-x="1303" 
d="M677 1713l157 -142q24 -23 24 -36q0 -20 -23 -20q-14 0 -37 7l-174 52q-88 26 -88 87q0 33 23 57t56 24q30 0 62 -29z" />
    <glyph glyph-name="glyph243" horiz-adv-x="1303" 
d="M820 1753l164 -217q7 -9 7 -18q0 -16 -14 -15q-7 0 -18 7l-163 101l-246 -102q-15 -6 -24 -6q-18 0 -17 15q1 12 16 23z" />
    <glyph glyph-name="glyph244" horiz-adv-x="1303" 
d="M734 1694q31 0 56 -14l28 -15q45 -24 80 -24q48 0 90 37q27 24 35 24q13 0 13 -16q0 -26 -46 -84q-62 -77 -134 -77q-34 0 -93 34q-46 26 -85 26q-41 0 -77 -41q-17 -18 -28 -18q-16 0 -17 14q-1 21 36 66q72 88 142 88z" />
    <glyph glyph-name="glyph245" horiz-adv-x="1303" 
d="M778 1777q76 0 129 -43t53 -105t-53 -105t-129 -43q-78 0 -131.5 42.5t-53.5 105.5t53 105.5t132 42.5zM775 1726q-40 0 -67.5 -28t-27.5 -69q0 -42 27.5 -70t67.5 -28q43 0 70.5 27.5t27.5 70.5q0 42 -27.5 69.5t-70.5 27.5z" />
    <glyph glyph-name="glyph246" horiz-adv-x="1180" 
d="M583 1738q10 -1 19 -19q18 -35 46 -76q9 -13 9 -21q0 -9 -16 -25q-29 -28 -58 -66q-13 -16 -23 -16q-13 0 -23 21q-22 47 -40 70q-10 14 -10 23q0 12 11 23l30 32q5 5 29 35q15 20 26 19zM923 1738q10 -1 19 -19q18 -36 46 -76q9 -13 9 -21q0 -9 -16 -25q-30 -29 -58 -66
q-13 -16 -23 -16q-13 0 -23 21q-22 45 -40 70q-10 14 -10 23q1 12 11 23l30 32q8 9 29 35q15 20 26 19z" />
    <glyph glyph-name="glyph247" horiz-adv-x="1180" 
d="M675 1577l143 112q49 38 79 38t53 -25.5t23 -57.5q0 -62 -84 -81l-186 -41l-20 -4q-11 -2 -20 -2q-22 1 -22 20q0 12 16 26z" />
    <glyph glyph-name="glyph248" horiz-adv-x="1180" 
d="M650 1713l156 -142q25 -23 25 -36q0 -20 -24 -20q-14 0 -36 7l-175 52q-87 26 -87 87q0 33 23 57t55 24q31 0 63 -29z" />
    <glyph glyph-name="glyph249" horiz-adv-x="1180" 
d="M827 1753l164 -217q7 -10 7 -18q0 -16 -15 -15q-7 0 -17 7l-163 101l-246 -102q-15 -6 -25 -6q-18 0 -17 15q1 12 16 23z" />
    <glyph glyph-name="glyph250" horiz-adv-x="648" 
d="M331 1738q10 -1 19 -19q18 -35 46 -76q9 -13 9 -21q0 -9 -16 -25q-30 -29 -58 -66q-13 -16 -23 -16q-13 0 -23 21q-22 45 -40 70q-10 14 -10 23q1 12 11 23l30 32q5 6 29 35q15 20 26 19zM602 1738q10 -1 19 -19q18 -35 46 -76q9 -13 9 -21q0 -9 -16 -25q-30 -29 -58 -66
q-13 -16 -23 -16q-13 0 -23 21q-21 45 -40 70q-10 14 -10 23q1 12 11 23l30 32q5 6 29 35q15 20 26 19z" />
    <glyph glyph-name="glyph251" horiz-adv-x="649" 
d="M388 1577l144 112q48 38 78 38t53 -25.5t23 -57.5q0 -62 -83 -81l-187 -41l-19 -4q-11 -2 -20 -2q-22 1 -22 20q0 15 33 41z" />
    <glyph glyph-name="glyph252" horiz-adv-x="649" 
d="M384 1713l156 -142q24 -22 25 -36q1 -20 -24 -20q-14 0 -36 7l-175 52q-87 26 -87 87q0 33 23 57t55 24q31 0 63 -29z" />
    <glyph glyph-name="glyph253" horiz-adv-x="648" 
d="M513 1753l164 -217q7 -9 7 -18q0 -16 -14 -15q-7 0 -18 7l-163 101l-246 -102q-15 -6 -24 -6q-18 0 -17 15q1 12 16 23z" />
    <glyph glyph-name="glyph254" horiz-adv-x="1456" 
d="M810 1694q31 0 56 -14l28 -15q45 -24 80 -24q48 0 90 37q27 24 35 24q13 0 13 -16q0 -26 -46 -84q-62 -77 -134 -77q-35 0 -93 34q-46 26 -85 26q-41 0 -77 -41q-17 -18 -28 -18q-17 0 -17 14q0 23 35 66q73 88 143 88z" />
    <glyph glyph-name="glyph255" horiz-adv-x="1511" 
d="M749 1738q10 -1 19 -19q17 -35 21 -40l25 -36q9 -14 9 -21q0 -9 -16 -25q-28 -27 -58 -66q-13 -16 -23 -16q-13 0 -23 21q-21 45 -40 70q-10 14 -10 23q0 12 11 23l30 32q5 5 29 35q15 20 26 19zM1089 1738q10 -1 19 -19q17 -35 21 -40l25 -36q9 -13 9 -21q0 -9 -16 -25
q-29 -28 -58 -66q-13 -16 -23 -16q-13 0 -23 21q-22 45 -40 70q-10 14 -10 23q1 12 11 23l30 32q8 9 29 35q15 20 26 19z" />
    <glyph glyph-name="glyph256" horiz-adv-x="1511" 
d="M813 1577l144 112q48 38 78 38t53 -25.5t23 -58.5q0 -61 -83 -80l-187 -41q-28 -6 -36 -6q-25 0 -25 20q0 12 15 26z" />
    <glyph glyph-name="glyph257" horiz-adv-x="1511" 
d="M816 1713l156 -142q24 -22 24 -36q0 -20 -23 -20q-14 0 -37 7l-174 52q-88 27 -88 87q0 33 23 57t56 24q30 0 63 -29z" />
    <glyph glyph-name="glyph258" horiz-adv-x="1511" 
d="M965 1753l164 -217q7 -9 7 -18q0 -16 -14 -15q-7 0 -18 7l-163 101l-246 -102q-15 -6 -24 -6q-18 0 -17 15q1 12 16 23z" />
    <glyph glyph-name="glyph259" horiz-adv-x="1511" 
d="M838 1694q31 0 56 -14l28 -15q45 -24 80 -24q48 0 90 37q27 24 35 24q13 0 13 -16q0 -26 -46 -84q-62 -77 -134 -77q-35 0 -93 34q-46 26 -85 26q-41 0 -77 -41q-17 -18 -28 -18q-16 0 -17 14q-1 21 35 66q73 88 143 88z" />
    <glyph glyph-name="glyph260" horiz-adv-x="902" 
d="M493 1502l-163 217q-8 9 -8 18q-1 16 14 15q8 0 18 -7l163 -101l246 102q15 6 25 6q18 0 17 -15q-1 -12 -17 -23z" />
    <glyph glyph-name="glyph261" horiz-adv-x="1478" 
d="M732 1738q10 -1 19 -19q17 -35 21 -40l25 -36q9 -13 9 -21q0 -9 -16 -25q-27 -26 -58 -66q-13 -16 -23 -16q-13 0 -23 21q-22 45 -40 70q-10 14 -10 23q1 12 11 23l30 32q5 6 29 35q15 20 26 19zM1072 1738q10 -1 19 -19q19 -36 21 -40l25 -36q9 -13 9 -21q0 -9 -16 -25
q-29 -28 -58 -66q-13 -16 -23 -16q-13 0 -23 21q-21 45 -40 70q-10 14 -10 23q1 12 11 23l30 32q7 8 29 35q15 20 26 19z" />
    <glyph glyph-name="glyph262" horiz-adv-x="1478" 
d="M824 1577l144 112q48 38 78 38t53 -25t23 -59q0 -61 -84 -80l-186 -41q-28 -6 -37 -6q-24 0 -24 20q0 15 33 41z" />
    <glyph glyph-name="glyph263" horiz-adv-x="1478" 
d="M799 1713l157 -142q24 -23 24 -36q0 -20 -24 -20q-13 0 -36 7l-174 52q-88 26 -88 87q0 33 23 57t56 24q30 0 62 -29z" />
    <glyph glyph-name="glyph264" horiz-adv-x="1478" 
d="M949 1753l164 -217q7 -10 7 -18q0 -16 -15 -15q-7 0 -17 7l-163 101l-246 -102q-15 -6 -25 -6q-18 0 -17 15q1 12 17 23z" />
    <glyph glyph-name="glyph265" horiz-adv-x="1151" 
d="M702 1577l143 112q49 38 79 38t53 -25.5t23 -58.5q0 -61 -84 -80l-186 -41q-28 -6 -37 -6q-24 0 -24 20q0 16 33 41z" />
    <glyph glyph-name="glyph266" horiz-adv-x="1151" 
d="M569 1738q10 -1 19 -19q17 -35 21 -40l25 -36q9 -13 9 -21q0 -9 -16 -25q-28 -28 -58 -66q-13 -16 -23 -16q-13 0 -23 21q-22 45 -40 70q-10 14 -10 23q1 12 11 23l30 32q6 6 29 35q15 20 26 19zM909 1738q10 -1 19 -19q17 -34 21 -40l25 -36q9 -13 9 -21q0 -9 -16 -25
q-29 -28 -58 -66q-13 -16 -23 -16q-13 0 -23 21q-21 45 -40 70q-10 14 -10 23q1 12 11 23l30 32q7 8 29 35q15 20 26 19z" />
    <glyph glyph-name="glyph267" horiz-adv-x="502" 
d="M167 1162q9 -1 17 -18q15 -30 42 -69q9 -13 9 -20q0 -9 -15 -23q-22 -21 -53 -61q-12 -15 -22 -15q-12 0 -21 19q-21 43 -37 65q-9 13 -9 21q0 11 10 22l28 29q4 5 26 33q15 18 25 17zM410 1162q9 -1 18 -18q15 -30 20 -36l22 -33q9 -13 9 -20q0 -9 -15 -23
q-25 -24 -54 -61q-11 -15 -21 -15q-12 0 -21 19q-21 45 -37 65q-9 13 -9 21q0 11 10 22l28 29q7 8 26 33q15 18 24 17z" />
    <glyph glyph-name="glyph268" horiz-adv-x="502" 
d="M177 410l42 248q5 27 5 49q0 40 -59 40h-54q-44 0 -43 20q1 23 43 23q92 0 178 17q33 6 51 6q21 0 21 -24l-1 -11l-56 -276q-42 -205 -42 -312q0 -60 31 -62q45 -3 89 83q11 23 24 23q16 0 15 -21q-4 -65 -77 -142.5t-130 -77.5q-30 0 -49 44.5t-19 114.5q0 79 31 258z
" />
    </font>
</defs>
</svg>
